/* XPM */
static char *result[] = {
/* columns rows colors chars-per-pixel */
"50 50 106 2 ",
"   c #262624",
".  c #2B2B2B",
"X  c #31312F",
"o  c #353533",
"O  c #47251D",
"+  c #55251A",
"@  c #5B2519",
"#  c #5D2A1F",
"$  c #642516",
"%  c #602518",
"&  c #642A1E",
"*  c #6C2A1C",
"=  c #722A1A",
"-  c #7F311E",
";  c #502A22",
":  c #5C3227",
">  c #5E3329",
",  c #553A3A",
"<  c #6D3426",
"1  c #603429",
"2  c #733425",
"3  c #7C3423",
"4  c #6C4949",
"5  c #B51403",
"6  c #BC1503",
"7  c #853421",
"8  c #C31502",
"9  c #E71D06",
"0  c #EC1E06",
"q  c #F41F06",
"w  c #FD1F04",
"e  c #F72007",
"r  c #FA2007",
"t  c #9C7C00",
"y  c #A07F00",
"u  c #CE5F00",
"i  c #D35F00",
"p  c #E4560B",
"a  c #E45B0B",
"s  c #CD6300",
"d  c #CC6A00",
"f  c #D36200",
"g  c #C77400",
"h  c #CD7200",
"j  c #C57900",
"k  c #CD7B00",
"l  c #D07000",
"z  c #E66409",
"x  c #E76B09",
"c  c #E87507",
"v  c #E97C07",
"b  c #E77108",
"n  c #E87108",
"m  c #F27100",
"M  c #FF7F00",
"N  c #895D5D",
"B  c #A48200",
"V  c #A98700",
"C  c #AD8900",
"Z  c #B18D00",
"A  c #BE8F00",
"S  c #B69100",
"D  c #BB9400",
"F  c #BF9800",
"G  c #C68000",
"H  c #CD8400",
"J  c #C18B00",
"K  c #CB8B00",
"L  c #D28404",
"P  c #D28C02",
"I  c #C49500",
"U  c #CD9400",
"Y  c #C39B00",
"T  c #CB9D00",
"R  c #D39402",
"E  c #D49C01",
"W  c #EA8306",
"Q  c #EB8C06",
"!  c #FF8200",
"~  c #FF8D00",
"^  c #EC9205",
"/  c #ED9A04",
"(  c #FF9600",
")  c #FF9F00",
"_  c #CCA200",
"`  c #D3A500",
"'  c #D4A900",
"]  c #DBAE00",
"[  c #DEB100",
"{  c #FEA400",
"}  c #F3AB00",
"|  c #FDAC00",
" . c #E3B500",
".. c #EBB500",
"X. c #E7B900",
"o. c #ECBA00",
"O. c #F3B400",
"+. c #FCB200",
"@. c #F2BC00",
"#. c #FFBC04",
"$. c #FFC103",
"%. c #FFCD02",
"&. c #FFD501",
"*. c #FFDC00",
"=. c #FFE000",
"-. c None",
/* pixels */
"-.-.-.-.-.-.-.-.-.-.-.-.-.-.-.-.-.-.-.-.-.-.-.-.-.-.-.-.-.-.-.-.-.-.-.-.-.-.-.-.-.-.-.-.-.-.-.-.-.-.",
"-.-.-.-.-.-.-.-.-.-.-.-.-.-.-.-.-.-.-.-.-.-.-.-.N O.-.-.-.-.-.-.-.-.-.-.-.-.-.-.-.-.-.-.-.-.-.-.-.-.",
"-.-.-.-.-.-.-.-.-.-.-.-.-.-.-.-.-.-.-.-.-.-.-.N . . 4 -.-.-.-.-.-.-.-.-.-.-.-.-.-.-.-.-.-.-.-.-.-.-.",
"-.-.-.-.-.-.-.-.-.-.-.-.-.-.-.-.-.-.-.-.-.N . . . . . = 4 -.-.-.-.-.-.-.-.-.-.-.-.-.-.-.-.-.-.-.-.-.",
"-.-.-.-.-.-.-.-.-.-.-.-.-.-.-.-.-.-.-.N . . . . . . ; = z ; 4 -.-.-.-.-.-.-.-.-.-.-.-.-.-.-.-.-.-.-.",
"-.-.-.-.-.-.-.-.-.-.-.-.-.-.-.-.-.-.N . . . . . . . . & a ; X X 4 -.-.-.-.-.-.-.-.-.-.-.-.-.-.-.-.-.",
"-.-.-.-.-.-.-.-.-.-.-.-.-.-.-.-.N = x x = ; . ; ; ; # a = . . . . 4 -.-.-.-.-.-.-.-.-.-.-.-.-.-.-.-.",
"-.-.-.-.-.-.-.-.-.-.-.-.-.-.N . . . ; x z z z a a p a a + . . . . X . 4 -.-.-.-.-.-.-.-.-.-.-.-.-.-.",
"-.-.-.-.-.-.-.-.-.-.-.-.N . . . . . . ; z = z = & & p * . . . . . . . X X 4 -.-.-.-.-.-.-.-.-.-.-.-.",
"-.-.-.-.-.-.-.-.-.-.-.N W O . . . . . * x ; . . . . = a = ; ; & = + ; X O b 4 4 -.-.-.-.-.-.-.-.-.-.",
"-.-.-.-.-.-.-.-.-.N . = W & . . . . + x = . . . . . . = z = ; # z z z : = * X . 4 -.-.-.-.-.-.-.-.-.",
"-.-.-.-.-.-.-.N . . . . = v : . . . : n ; . . . . ; z z = . # z & . . . = * & . . . 4 -.-.-.-.-.-.-.",
"-.-.-.-.-.N N . . . . . ; W + . . . & n x = * . . = x ; . = x x = . . . ; c ; . . . . . 4 -.-.-.-.-.",
"-.-.-.-.O.4 . . . . . . ; = W v = * * = * * = * n n * ; . & x n n n = . ; v = . . . . . . m -.-.-.-.",
"-.-.-.-.o o 4 . . . . . ; Q = = = ; ; . . . . . ; $ c ; . = c c c c v = ; v = . . . . ,     -.-.-.-.",
"-.-.-.-.o o o o 4 . . . : Q = . . . . . . . . . . = = ; . * v p v * . . . * = Q * ,         -.-.-.-.",
"-.-.-.-.o o o o o 1 4 / * . . . . . . . . . . . = W * . = W p W W = . . . . . , , +         -.-.-.-.",
"-.-.-.-.o o o o o o #.4 . . . . . . . . . . * = W W * = * W p W W = . . . . ,   L O         -.-.-.-.",
"-.-.-.-.o o o o o o #.o o 4 o . . . . : Q Q = ; = . = & Q Q Q Q Q & . . ,     $ %           -.-.-.-.",
"-.-.-.-.o o o o o 1 $.o o o o 4 .   = = & . . . . . . . ; . = ^ = . ,         L           . -.-.-.-.",
"-.-.-.-.o o o o o 7 3 o o o o o o 4 = / ; . . . . . . . . . . : / ,           P             -.-.-.-.",
"-.-.-.-.o o o o o 1 7 o o o o o o 7 4 . . . . . . . . . . .   , $ P         O $             -.-.-.-.",
"-.-.-.-.o o o o o o 2 , o o o o o 3 7 o 4 . . . . . . .   , . + $ P         P               -.-.-.-.",
"-.-.-.-.o o o o o o 7 3 o o o o o 7 7 o o o 4 . . .   , .     $ $ R       O $   .           -.-.-.-.",
"-.-.-.-.! o o o > 7 7 7 o o o o o 2 7 o o o o 4 4 . ,       O $ @ R .     $ $           .   -.-.-.-.",
"-.-.-.-.r o o o 7 7 *.3 o o o 1 1 7 %.1 o o o o o   .       $ $ $ E +   O R O .             -.-.-.-.",
"-.-.-.-.! o r 2 < 7 7 7 o o o 2 &.7 7 3 o o o o o           R   O O R   $ E E $ O           -.-.-.-.",
"-.-.-.-.! r ! , *.7 7 2 o o 7 7 &.1 2 7 o o o o o         O E       E   @ ` $ E $ O         -.-.-.-.",
"-.-.-.-.e e ! o ! 1 2 7 o o *.7 *.1 1 3 o o o o o         @ O       E   $ `   $ ` $         -.-.-.-.",
"-.-.-.-.e e ! o 2 7 7 2 ! o =.r r 7 o 7 *.7 o o o         $ O   . $ `   $ `   O ` $     6 5 -.-.-.-.",
"-.-.-.-.e e o e ! 3 7 7 ! o o o 7 7 o o 3 *.o o o       O ` O . ` $ E   + +     ` i 6 6 6 ` -.-.-.-.",
"-.-.-.-.! e o e ! < 7 2 o o r ! 7 7 o o o =.1 o o       O     O ` O `   . 6 .   ` 8   5 _ _ -.-.-.-.",
"-.-.-.-.~ e o o : 7 *.3 o o o o w 7 o o o 7 =.o o             + $   '         f ' H 5 ` _ _ -.-.-.-.",
"-.-.-.-.0 ( 0 ! o : *.: o o ! o w 3 o o ! o =.o o   f       O ' O   '   f i   d _ U _ _ _ Y -.-.-.-.",
"-.-.-.-.| | { ( 0 o &.w q o q o > 7 o o o o =.> o 6 f f     % %   O '   6 6 6 5 _ 6 T Y Y Y -.-.-.-.",
"-.-.-.-.O.| 9 0 0 ( - q q ! ! o o > ! o o o 7 3 o 6 . 8   $ $ O   8 8     L T 5 _ _ _ Y Y F -.-.-.-.",
"-.-.-.-...@.O.+.{ 0 ( q q o X o q ! o o o o > *.1 f   8 f ' O   $ ` 5     K _ Y Y Y Y F D Z -.-.-.-.",
"-.-.-.-.] X.o.O.} +.{ 0 X o X M o o o o o o o *.7 f 6   f '   f ` u h K T _ _ Y I F D Z Z V -.-.-.-.",
"-.-.-.-.-.-.[ X.@.O.| | ) { o ~ o M X o o o o 3 =.f     % '   8 d k K T T Y Y F D Z C C t -.-.-.-.-.",
"-.-.-.-.-.-.-.'  .X.@.O.| { X ( ~ X o o ! o o 7 =.f f   ` % 5 ` O K T Y Y F F D Z C B -.-.-.-.-.-.-.",
"-.-.-.-.-.-.-.-.-.'  ...O.O.+.{ X o X o M M o 2 *.  u   ` @ d _ U Y Y Y F D Z Z y -.-.-.-.-.-.-.-.-.",
"-.-.-.-.-.-.-.-.-.-.-.[  .X.O.+.{ o ) ( o o X < *.s u O _ h K Y Y F F D Z Z B -.-.-.-.-.-.-.-.-.-.-.",
"-.-.-.-.-.-.-.-.-.-.-.-.-. . .@.O.. X ) ( ( ~ : &.u u d d G I Y Y F S Z V y -.-.-.-.-.-.-.-.-.-.-.-.",
"-.-.-.-.-.-.-.-.-.-.-.-.-.-._ [ o...O.+.{ ) ( ~ ~ u s g K   F F D Z C B -.-.-.-.-.-.-.-.-.-.-.-.-.-.",
"-.-.-.-.-.-.-.-.-.-.-.-.-.-.-.-.[  .X.... +.| { (   G I F F S Z V y -.-.-.-.-.-.-.-.-.-.-.-.-.-.-.-.",
"-.-.-.-.-.-.-.-.-.-.-.-.-.-.-.-.-.-.]  .o.O.| { { j A F D D Z V -.-.-.-.-.-.-.-.-.-.-.-.-.-.-.-.-.-.",
"-.-.-.-.-.-.-.-.-.-.-.-.-.-.-.-.-.-.-._ [ $.@.+.| A S Z S C B -.-.-.-.-.-.-.-.-.-.-.-.-.-.-.-.-.-.-.",
"-.-.-.-.-.-.-.-.-.-.-.-.-.-.-.-.-.-.-.-.-._  . .o.D Z C B -.-.-.-.-.-.-.-.-.-.-.-.-.-.-.-.-.-.-.-.-.",
"-.-.-.-.-.-.-.-.-.-.-.-.-.-.-.-.-.-.-.-.-.-.-.[ X.C V -.-.-.-.-.-.-.-.-.-.-.-.-.-.-.-.-.-.-.-.-.-.-.",
"-.-.-.-.-.-.-.-.-.-.-.-.-.-.-.-.-.-.-.-.-.-.-.-.-.t -.-.-.-.-.-.-.-.-.-.-.-.-.-.-.-.-.-.-.-.-.-.-.-."
};
