/* XPM */
static char *result[] = {
/* columns rows colors chars-per-pixel */
"50 50 99 2 ",
"   c #242626",
".  c #2B2B2B",
"X  c #2F3131",
"o  c #333535",
"O  c #1D4724",
"+  c #1A5524",
"@  c #195B24",
"#  c #1F5D29",
"$  c #225029",
"%  c #275C31",
"&  c #295E32",
"*  c #3A553A",
"=  c #166424",
"-  c #186024",
";  c #1E6429",
":  c #1C6C29",
">  c #1A7228",
",  c #296033",
"<  c #256D32",
"1  c #257333",
"2  c #237C33",
"3  c #4A6C49",
"4  c #03B711",
"5  c #03BC12",
"6  c #1F8130",
"7  c #218532",
"8  c #02C311",
"9  c #06E719",
"0  c #06EC1A",
"q  c #06F41B",
"w  c #06FB1C",
"e  c #009E7A",
"r  c #00A27D",
"t  c #5E895D",
"y  c #00CE5C",
"u  c #00D25E",
"i  c #0BE455",
"p  c #0AE55C",
"a  c #00CC65",
"s  c #00CD6D",
"d  c #00D560",
"f  c #00D06C",
"g  c #00C673",
"h  c #00CE77",
"j  c #00C77C",
"k  c #00CA7E",
"l  c #02D17E",
"z  c #09E664",
"x  c #08E76A",
"c  c #07E86F",
"v  c #08E86C",
"b  c #00F26D",
"n  c #07E873",
"m  c #07E97D",
"M  c #00FF7D",
"N  c #00A680",
"B  c #00AB84",
"V  c #00AF88",
"C  c #00B48C",
"Z  c #00BA8E",
"A  c #00BC92",
"S  c #00C787",
"D  c #00CB84",
"F  c #00C48C",
"G  c #00CD8D",
"H  c #03D385",
"J  c #02D38D",
"K  c #00C296",
"L  c #00CC93",
"P  c #00C599",
"I  c #00CB9D",
"U  c #01D495",
"Y  c #00D49B",
"T  c #06EB83",
"R  c #05EB8B",
"E  c #00FF83",
"W  c #00FF8A",
"Q  c #04ED93",
"!  c #04ED98",
"~  c #00FF91",
"^  c #00FF9A",
"/  c #00CEA1",
"(  c #00D3A3",
")  c #00D7A8",
"_  c #00DBAA",
"`  c #00E1AF",
"'  c #00E8AF",
"]  c #00FFA4",
"[  c #00F2AD",
"{  c #00FBAB",
"}  c #00E4B2",
"|  c #00EDB4",
" . c #00F3B4",
".. c #01FCB4",
"X. c #02FDBA",
"o. c #02FFCB",
"O. c #00FFD5",
"+. c #00FFDA",
"@. c None",
/* pixels */
"@.@.@.@.@.@.@.@.@.@.@.@.@.@.@.@.@.@.@.@.@.@.@.@.@.@.@.@.@.@.@.@.@.@.@.@.@.@.@.@.@.@.@.@.@.@.@.@.@.@.",
"@.@.@.@.@.@.@.@.@.@.@.@.@.@.@.@.@.@.@.@.@.@.@.@.t [ @.@.@.@.@.@.@.@.@.@.@.@.@.@.@.@.@.@.@.@.@.@.@.@.",
"@.@.@.@.@.@.@.@.@.@.@.@.@.@.@.@.@.@.@.@.@.@.@.t . . 3 @.@.@.@.@.@.@.@.@.@.@.@.@.@.@.@.@.@.@.@.@.@.@.",
"@.@.@.@.@.@.@.@.@.@.@.@.@.@.@.@.@.@.@.@.@.t . . . . . > 3 @.@.@.@.@.@.@.@.@.@.@.@.@.@.@.@.@.@.@.@.@.",
"@.@.@.@.@.@.@.@.@.@.@.@.@.@.@.@.@.@.@.t . . . . . . $ > p $ 3 @.@.@.@.@.@.@.@.@.@.@.@.@.@.@.@.@.@.@.",
"@.@.@.@.@.@.@.@.@.@.@.@.@.@.@.@.@.@.t . . . . . . . . ; p $ . X 3 @.@.@.@.@.@.@.@.@.@.@.@.@.@.@.@.@.",
"@.@.@.@.@.@.@.@.@.@.@.@.@.@.@.@.t > x z > $ . $ $ $ ; i > . . . . 3 @.@.@.@.@.@.@.@.@.@.@.@.@.@.@.@.",
"@.@.@.@.@.@.@.@.@.@.@.@.@.@.t . . . $ z z z p p p i i i $ . . . X . . 3 @.@.@.@.@.@.@.@.@.@.@.@.@.@.",
"@.@.@.@.@.@.@.@.@.@.@.@.t . . . . . . $ z > p > ; ; i : . . . . . X . . X 3 @.@.@.@.@.@.@.@.@.@.@.@.",
"@.@.@.@.@.@.@.@.@.@.@.t m $ . . . . . > z $ . . . . > i : + $ ; > $ + . $ x 3 3 @.@.@.@.@.@.@.@.@.@.",
"@.@.@.@.@.@.@.@.@.t . > m ; . . . . $ x > . . . . . . : p > $ % p z p % > ; . X 3 @.@.@.@.@.@.@.@.@.",
"@.@.@.@.@.@.@.t . . . . > m # . . . # v $ . . . . # z p > . # z ; . . . > : ; . . . 3 @.@.@.@.@.@.@.",
"@.@.@.@.@.t t . . . . . $ m $ . . . ; v v > : . . > z $ . > x z > . . . $ n $ . . . . . 3 @.@.@.@.@.",
"@.@.@.@.[ 3 . . . . . . $ > m T : : : > : : > : x x : $ . - v v c c > . $ m > . . . . . . b @.@.@.@.",
"@.@.@.@.o o 3 . . . . . $ T > > > $ $ . . . . . $ ; n $ . > n n c n n > $ m > . . . . *     @.@.@.@.",
"@.@.@.@.o o o o 3 . . . # R > . . . . . . . . . . > > $ . : n i m : . . . : > T : *         @.@.@.@.",
"@.@.@.@.o o o o o , 3 R : . . . . . . . . . . . > m : . > m i m m > . . . . . * * @         @.@.@.@.",
"@.@.@.@.o o o o o o ..3 . . . . . . . . . . : > m T : > : m i T T > . . . . *   l O         @.@.@.@.",
"@.@.@.@.o o o o o o X.o o 3 o X . . . # R R > $ > . > ; R R R T T ; . . *     = -           @.@.@.@.",
"@.@.@.@.o o o o o , X.o o o o 3 . . > > ; . . . . . . . $ . > R > . *         H             @.@.@.@.",
"@.@.@.@.o o o o o 7 7 o o o o o o 3 > ! $ . . . . . . . . . . # Q *           J             @.@.@.@.",
"@.@.@.@.o o o o o , 7 o o o o o o 6 3 . . . . . . . . . . . . * = J         O =     .       @.@.@.@.",
"@.@.@.@.o o o o o o 1 * o o o o o 2 7 o 3 . . . . . . . . *   + = H         J               @.@.@.@.",
"@.@.@.@.o o o o o o 7 1 o o o o o 7 7 o o o 3 . . . . *       - = U       O =               @.@.@.@.",
"@.@.@.@.E o o o , 7 7 7 o o o o o 1 7 o o o o 3 3 . *       O = - J   .   = =               @.@.@.@.",
"@.@.@.@.w o o o 7 2 O.1 o o o , , 7 o., o o o o o           = = = U @   O U O               @.@.@.@.",
"@.@.@.@.E o w 1 1 7 7 7 o o o 1 O.7 7 2 o o o o o           U   O O Y   = U Y = O           @.@.@.@.",
"@.@.@.@.M w M * +.7 7 1 o o 7 7 O., 1 7 o o o o o         O Y       Y   @ Y = Y = O         @.@.@.@.",
"@.@.@.@.w q M o M , 1 7 o o O.7 O., , 1 o o o o o         @ O       Y   = Y   = ( =         @.@.@.@.",
"@.@.@.@.q w M o 1 7 7 1 E o +.w w 7 o 7 O.7 o o o         = O     = Y   = (   O ( =     5 4 @.@.@.@.",
"@.@.@.@.q q o w M 2 7 7 M o o o 7 7 o o 2 O.o o o       O ( O   Y = (   + +     ( u 5 5 4 Y @.@.@.@.",
"@.@.@.@.E q o q M < 7 1 o o w M 7 7 o o o +., o o       O     O ( O (     5     ( 8   5 / / @.@.@.@.",
"@.@.@.@.E q o o & 7 O.2 o o o o w 6 o o o 7 +.o o             + -   (         u ( D 4 I / I @.@.@.@.",
"@.@.@.@.9 ~ 0 E o & O.& o o M o w 2 o o E o +.o o   d       O ( O   (   u u   f I U I I I K @.@.@.@.",
"@.@.@.@.] ] ^ W 0 o O.w q o q o & 7 o o o o +., o 8 d d     = =   O (   4 4 4 4 I 8 I I K K @.@.@.@.",
"@.@.@.@.[ { 9 0 0 W 2 w q M M o o & M o o o 7 2 o 5   8   = = O   8 8     H L 4 I P P K K A @.@.@.@.",
"@.@.@.@.|  .X.{ ] 9 W q q o o o q M o o o o & +., d   5 u ( O   = ( 5     G / I P K K A A C @.@.@.@.",
"@.@.@.@.) } '  .{ ..] q X X X M o o o o o o o +.7 d 5   u (   u I u s D L I P P K A Z C B B @.@.@.@.",
"@.@.@.@.@.@.) } |  .{ ] ^ ^ X E o M X o o o X 7 +.d     ; (   8 d h G I I P P K A Z V B r @.@.@.@.@.",
"@.@.@.@.@.@.@./ _ }  . .{ ] X W E o X o M o o 6 +.d d   ( - 4 I O S P P K A A Z C V e @.@.@.@.@.@.@.",
"@.@.@.@.@.@.@.@.@._ } | [ ..{ ] X X X o M M o 1 O.  y   I = a I L I P A A A C C N @.@.@.@.@.@.@.@.@.",
"@.@.@.@.@.@.@.@.@.@.@._ } |  .{ ^ X ^ ~ X o o < O.u y O I h S P K K A A C V B @.@.@.@.@.@.@.@.@.@.@.",
"@.@.@.@.@.@.@.@.@.@.@.@.@.) }  . .X . ^ W ~ W % O.y y a a D K K A A C C B N @.@.@.@.@.@.@.@.@.@.@.@.",
"@.@.@.@.@.@.@.@.@.@.@.@.@.@.( } } X.X.{ ] ^ ~ E E y y g S   K A C C B e @.@.@.@.@.@.@.@.@.@.@.@.@.@.",
"@.@.@.@.@.@.@.@.@.@.@.@.@.@.@.@.) } | [ X { ] ^ ~   j F K A A Z B B @.@.@.@.@.@.@.@.@.@.@.@.@.@.@.@.",
"@.@.@.@.@.@.@.@.@.@.@.@.@.@.@.@.@.@.) } | [ { ] ] g Z A A C V B @.@.@.@.@.@.@.@.@.@.@.@.@.@.@.@.@.@.",
"@.@.@.@.@.@.@.@.@.@.@.@.@.@.@.@.@.@.@./ ) }  .[ { Z A Z V r e @.@.@.@.@.@.@.@.@.@.@.@.@.@.@.@.@.@.@.",
"@.@.@.@.@.@.@.@.@.@.@.@.@.@.@.@.@.@.@.@.@.) _ |  .C C V r @.@.@.@.@.@.@.@.@.@.@.@.@.@.@.@.@.@.@.@.@.",
"@.@.@.@.@.@.@.@.@.@.@.@.@.@.@.@.@.@.@.@.@.@.@._ } V N @.@.@.@.@.@.@.@.@.@.@.@.@.@.@.@.@.@.@.@.@.@.@.",
"@.@.@.@.@.@.@.@.@.@.@.@.@.@.@.@.@.@.@.@.@.@.@.@.@.r @.@.@.@.@.@.@.@.@.@.@.@.@.@.@.@.@.@.@.@.@.@.@.@."
};
