/* XPM */
static char *_fe5d55c82194ceae7d0030f02312bcamYtNqAQzFoE2rj9D[] = {
/* columns rows colors chars-per-pixel */
"50 50 140 2 ",
"   c None",
".  c #242625",
"X  c #2B2B2B",
"o  c #2E302F",
"O  c #2F3130",
"+  c #333534",
"@  c #33471D",
"#  c #39551A",
"$  c #3C5B19",
"%  c #3F6416",
"&  c #3E6018",
"*  c #3B5022",
"=  c #415D1F",
"-  c #406516",
";  c #43641E",
":  c #46691C",
">  c #486E1B",
",  c #4A721A",
"<  c #517F1E",
"1  c #435C27",
"2  c #445E29",
"3  c #4E553A",
"4  c #4B6D25",
"5  c #466029",
"6  c #4E7325",
"7  c #517725",
"8  c #527C23",
"9  c #626C49",
"0  c #009B08",
"q  c #00A409",
"w  c #00AC0A",
"e  c #00BF05",
"r  c #00B30B",
"t  c #00BC0C",
"y  c #71B703",
"u  c #74BC03",
"i  c #568521",
"p  c #00C303",
"a  c #0AC600",
"s  c #02CC02",
"d  c #0AC800",
"f  c #00C30C",
"g  c #00CB0D",
"h  c #14CB00",
"j  c #1ECC00",
"k  c #02D404",
"l  c #0CD101",
"z  c #00D30D",
"x  c #12D203",
"c  c #19D104",
"v  c #00DB10",
"b  c #25CD00",
"n  c #29CC00",
"m  c #30CD00",
"M  c #21D000",
"N  c #2ED100",
"B  c #33D300",
"V  c #00E40C",
"C  c #00ED0D",
"Z  c #15ED04",
"A  c #1EEC05",
"S  c #00F405",
"D  c #02FB01",
"F  c #0FFF01",
"G  c #00F10D",
"H  c #01FF0C",
"J  c #12FF02",
"K  c #1BFF00",
"L  c #00E411",
"P  c #00EA12",
"I  c #00FF15",
"U  c #00FF18",
"Y  c #23EB06",
"T  c #2CEA06",
"R  c #33E907",
"E  c #3BE807",
"W  c #27FF00",
"Q  c #2AFF00",
"!  c #3BF200",
"~  c #32FF00",
"^  c #3DFF00",
"/  c #77C004",
"(  c #77C202",
")  c #79C402",
"_  c #40E708",
"`  c #41E708",
"'  c #45E608",
"]  c #44E708",
"[  c #45E708",
"{  c #44E709",
"}  c #46E609",
"|  c #47E609",
" . c #4BE509",
".. c #49E609",
"X. c #48E709",
"o. c #49E709",
"O. c #4AE609",
"+. c #4BE609",
"@. c #4DE509",
"#. c #4FE509",
"$. c #4EE60A",
"%. c #40E808",
"&. c #41E808",
"*. c #52E50A",
"=. c #53E50A",
"-. c #50E60A",
";. c #53E60A",
":. c #55E40B",
">. c #57E40B",
",. c #59E40B",
"<. c #5AE50A",
"1. c #5CE40B",
"2. c #45FF00",
"3. c #46FF00",
"4. c #47FF00",
"5. c #44FF00",
"6. c #49FF00",
"7. c #7D895D",
"8. c #90E606",
"9. c #92EA06",
"0. c #94ED06",
"q. c #92EA06",
"w. c #96F006",
"e. c #96F106",
"r. c #98F306",
"t. c #98F406",
"y. c #99F507",
"u. c #9AF607",
"i. c #9AF707",
"p. c #9BF707",
"a. c #99F507",
"s. c #9BF807",
"d. c #9CF907",
"f. c #9DFA07",
"g. c #9DFB07",
"h. c #9CFC04",
"j. c #9BFA04",
"k. c #A2FF04",
"l. c #A3FF04",
"z. c #A0FF06",
/* pixels */
"                                                                                                    ",
"                                                7.S                                                 ",
"                                              7.X X 9                                               ",
"                                          7.X X X X X , 9                                           ",
"                                      7.X X X X X X * , @.* 9                                       ",
"                                    7.X X X X X X X X ; :.* o X 9                                   ",
"                                7., ] ] , * X * * * ; >., X X X o 9                                 ",
"                            7.X X X * X.@.@.;.;.>.>.:.<.* X X X X X o 9                             ",
"                        7.X X X X X X * ] , ;., ; ; >.: X X X X X X X X X 9                         ",
"                      7.R * X X X X X , X.* X X X X , >., * * ; , * * o * %.9 9                     ",
"                  7.X , T ; X X X X * ] > X X X X X X > ;., * = @.X.X.1 , : X X 9                   ",
"              7.X X X X , R = X X X = _ * X X X X =  . ., X =  .; X X X , > ; X o X 9               ",
"          7.7.X X X X X * T * X X X : E %., : X X ,  .* X , ' ' , X X X * E * X X X X X 9           ",
"        S 9 X X X X X X * , T T > > > > > : , > { { : * X ; _ _ %.E , X * R , X X X X X X !         ",
"        + + 9 X X X X X * Y , , > * * X X X X X * ; E # X , E E E E E , * R , X X X X 3 . .         ",
"        + + + + 9 X X X = A , X X X X X X X X X X , , * X > R 1.R > X X X > , T : 3 . . . .         ",
"        + + + + + 5 9 Z > X X X X X X X X X X X , T > X , T >.R T , X X X X X 3 3 $ . . . .         ",
"        + + + + + + J 9 X X X X X X X X X X : , T T : , > T >.T T , X X X X 3 . c @ . . . .         ",
"        + + + + + + J + + 9 O X X X X = Y Y , * , X , ; Y Y Y Y Y ; X X 3 . . - $ . . . . .         ",
"        + + + + + 5 F + + + + 9 X X , , ; X X X X X X X # X , A , X 3 . . . . x . . . . . .         ",
"        + + + + + i 8 + + + + + + 9 , Z * X X X X X X X X X X = Z 3 . . . . . l . . . . . .         ",
"        + + + + + 5 i + + + + + + i 9 X X X X X X X X X X X X 3 - l . . . . @ - . . . . . .         ",
"        + + + + + + 6 5 + + + + + 8 i + 9 X X X X X X X X 3 . # - l . . . . k . . . . . . .         ",
"        + + + + + + i 7 + + + + + i i + + + 9 X X X X 3 . . . $ - k . . . * - . . . . . . .         ",
"        6.+ + + 2 i i i + + + + + 7 i + + + + 9 9 X 3 . . . @ - % k . . . % % . . . . . . .         ",
"        z.+ + + i i I 8 + + + 5 2 i H 5 + + + + + . . . . . - - - k $ . @ k @ . . . . . . .         ",
"        3.+ z.6 4 i i i + + + 6 H i i 7 + + + + + . . . . . k . @ @ k . % k k % @ . . . . .         ",
"        3.g.4.3 I i i 6 + + i i I 5 7 i + + + + + . . . . @ k . . . k . $ k % k - @ . . . .         ",
"        s.u.3.+ 6.5 7 i + + I i I 5 5 7 + + + + + . . . . $ @ . . . k . % k . - z % . . . .         ",
"        u.s.3.+ 7 i i 6 6.+ U l.l.i + i I i + + + . . . . - @ . . - z . % z . @ z - . . u u         ",
"        y.y.+ s.6.8 i i 3.+ + + i i + + 8 I + + + . . . @ z @ . z % z . # # . . z B u u u g         ",
"        ^ y.+ u.3.6 8 6 + + l.6.i i + + + U 5 + + . . X @ . . @ z @ z . . / . . z ) . y z g         ",
"        ~ e.+ + 1 i U 8 + + + + l.i + + + 8 U + + . . . . . . # % . z . . . . N z d y z g g         ",
"        q.W q.^ O 1 I 2 + + 5.+ l.8 + + 3.+ U + + . B . . . @ z @ . z . B B . b g k g g g f         ",
"        J J K W e.+ I h.r.+ h.+ 2 i + + + + U 5 + / B B . . % % . @ v . u u u y z u g f f f         ",
"        S D 8.8.q.W < h.e.5.5.+ + 5 3.+ + + i 8 + / . / . % % @ . ( ( . . l s y g g f f f t         ",
"        P G S D F q.Q j.e.+ + + t.3.+ + + + 2 U 5 B . u B v @ . % g y . . s g g g f f f r r         ",
"        v L C G D D F e.+ O O 5.+ + + O + + + I i B u . B z . B g B b s s g g f f t r r w w         ",
"            v P C S D F K K O ~ O 5.O + + + + < U B . . ; z . ) N h s g f f f t t r r w 0           ",
"              z L P G S D F O W ~ O + + 5.+ + i U B B . g % y g @ s p g f t t r r w q               ",
"                  z L C S S D F X + O + 5.5.+ 6 I . m . z $ b g s f f f t t r w q                   ",
"                      v L C S D F + K W O O + 4 I m m @ g j s g f f t t r r w                       ",
"                          v P C S o O K W W ~ 2 U m m b b a p f f r r r w 0                         ",
"                            z L P G S D F K W ~ ~ m n h p . f t t r w q                             ",
"                                z L C S X D F K W . a e f t r r w w                                 ",
"                                    v L C S D F F h e f t r r w                                     ",
"                                      z L P G S D p t r r w q                                       ",
"                                          z v V C t r w q                                           ",
"                                              v L w q                                               ",
"                                                  0                                                 "
};
