/* XPM */
static char *fd941f03a66348f4e794f458c16cc64fuQENMcMninzt8fyP[] = {
/* columns rows colors chars-per-pixel */
"50 50 164 2 ",
"   c None",
".  c #22182D",
"X  c #281D34",
"o  c #2C153B",
"O  c #2D163D",
"+  c #2E173D",
"@  c #2E173E",
"#  c #2F173E",
"$  c #2F173F",
"%  c #301840",
"&  c #311841",
"*  c #311942",
"=  c #321942",
"-  c #331943",
";  c #331A43",
":  c #331944",
">  c #341A45",
",  c #351B46",
"<  c #351B47",
"1  c #361C46",
"2  c #361C47",
"3  c #371C47",
"4  c #381D49",
"5  c #391D49",
"6  c #381C4A",
"7  c #391D4B",
"8  c #391E4A",
"9  c #3A1E4B",
"0  c #3A1E4C",
"q  c #3B1F4C",
"w  c #3B1F4E",
"e  c #3B1F4F",
"r  c #3C1F4D",
"t  c #3C1F4F",
"y  c #3C1F50",
"u  c #3E1E55",
"i  c #3C204E",
"p  c #3D204E",
"a  c #3D2050",
"s  c #3D2051",
"d  c #3E2150",
"f  c #3E2051",
"g  c #3F2151",
"h  c #3E2052",
"j  c #3E2152",
"k  c #3F2152",
"l  c #3F2153",
"z  c #3D2B52",
"x  c #3E2C53",
"c  c #3F2C54",
"v  c #3F2D54",
"b  c #3F2D55",
"n  c #402252",
"m  c #412253",
"M  c #402154",
"N  c #402254",
"B  c #402255",
"V  c #422355",
"C  c #442457",
"Z  c #402D55",
"A  c #402D56",
"S  c #412E57",
"D  c #452558",
"F  c #452559",
"G  c #46265A",
"H  c #47265B",
"J  c #47275C",
"K  c #48275C",
"L  c #49275D",
"P  c #422E58",
"I  c #422F58",
"U  c #422F59",
"Y  c #432F59",
"T  c #49285E",
"R  c #4A285E",
"E  c #4A285F",
"W  c #43305A",
"Q  c #43315A",
"!  c #44305A",
"~  c #44305B",
"^  c #44315B",
"/  c #45315C",
"(  c #45315D",
")  c #45325C",
"_  c #46325D",
"`  c #46335D",
"'  c #46325E",
"]  c #47325E",
"[  c #46335E",
"{  c #47335E",
"}  c #47335F",
"|  c #47345F",
" . c #48335F",
".. c #4F266B",
"X. c #552467",
"o. c #483360",
"O. c #483460",
"+. c #483560",
"@. c #493461",
"#. c #493561",
"$. c #493462",
"%. c #493562",
"&. c #4A3562",
"*. c #4A3563",
"=. c #4B3563",
"-. c #493662",
";. c #4A3662",
":. c #4A3663",
">. c #4B3663",
",. c #4B3664",
"<. c #4B3764",
"1. c #4C3664",
"2. c #4C3665",
"3. c #4C3765",
"4. c #4D3766",
"5. c #4D3767",
"6. c #4C3865",
"7. c #4C3866",
"8. c #4D3866",
"9. c #4D3867",
"0. c #4D3967",
"q. c #4E3867",
"w. c #4E3967",
"e. c #4E3868",
"r. c #4E3968",
"t. c #4F3A69",
"y. c #4F3A6A",
"u. c #503A6A",
"i. c #503B6A",
"p. c #503B6B",
"a. c #513B6B",
"s. c #513B6C",
"d. c #513C6C",
"f. c #523C6D",
"g. c #533D6E",
"h. c #533D6F",
"j. c #543D6F",
"k. c #543E6F",
"l. c #5D2C7F",
"z. c #543E70",
"x. c #553E70",
"c. c #553E71",
"v. c #553F71",
"b. c #563F71",
"n. c #563F72",
"m. c #564072",
"M. c #564073",
"N. c #574073",
"B. c #574074",
"V. c #6C546A",
"C. c #622E84",
"Z. c #763490",
"A. c #7A3695",
"S. c #8E51B5",
"D. c #A156CE",
"F. c #BC66F2",
"G. c #BEB0C6",
"H. c #BEB1C7",
"J. c #CDBED6",
"K. c #D3C4DC",
"L. c #DDCEE6",
"P. c #E0D1EA",
"I. c #E2D2EB",
"U. c #E4CDF2",
/* pixels */
"                                                                                                    ",
"                                                S.S.                                                ",
"                                              S.X.X.D.                                              ",
"                                          S.X.A.A.A.A.X.D.                                          ",
"                                      S.u X.A.A.A.A.A.A.A.u D.                                      ",
"                                    S.u C.C.A.A.X.A.A.A.l.u u u D.                                  ",
"                                S.u C.C.C.C.C.C.A.A.C.C.C.C.C.u u D.                                ",
"                            S.X.C.C.C.C.C.C.C.C.A.A.C.C.C.C.C.C.C.u u D.                            ",
"                        S.X.X.A.A.C.C.C.C.C.C.A.A.A.A.A.C.C.C.C.C.X.X.X.X.D.                        ",
"                      S.X.A.A.A.A.A.A.C.C.A.A.A.A.A.A.A.A.C.C.A.A.A.X.A.Z.X.D.D.                    ",
"                  S.X.A.A.A.A.A.A.A.A.C.U.A.A.A.A.A.A.A.A.C.C.A.A.A.A.A.A.X.X.X.D.                  ",
"              S.u u C.A.A.A.A.A.A.C.C.C.C.C.C.A.X.A.A.A.C.C.C.C.C.A.A.A.A.A.A.C.u u D.              ",
"          S.S.u C.C.C...C.A.A.A.C.C.C.C.C.C.C.C.A.A.C.C.C.C.C.C.C.C.C.A.A.C.C.C.C.u u u D.          ",
"        S.D.u u C.C.U.C.C.C.A.C.C.C.C.C.C.C.C.C.A.A.C.C.C.C.C.C.C.C.C.C.C.C.C.C.C.C.C.C.M F.        ",
"        E X D.u u C.C.C.A.A.A.A.C.C.C.C.C.C.A.A.A.A.A.X.C.u C.C.C.C.A.A.A.A.C.C.C.C.u F.. B         ",
"        E E E X D.u A.A.A.A.A.A.A.A.C.C.C.A.A.A.A.A.A.V.A.C.C.C.A.A.A.A.A.A.A.A.u F.. B B B         ",
"        E E B.B.E X D.X.A.A.A.A.A.X.A.C.A.V.A.V.A.A.A.A.A.A.C.A.A.A.A.A.A.A.X.F.F.. B e.e.B         ",
"        E B.B.B.B.E X D.X.X.A.A.A.C.C.C.C.C.A.A.A.A.A.A.A.C.C.u C.A.A.A.A.X.F.. B e.e.e.e.e.        ",
"        E B.B.E B.B.E B.X D.X.C.C.C.C.C.C.C.C.A.A.A.A.C.C.C.C.C.C.C.C.X.F.. B e.e.e.e.e.3.B         ",
"        E B.B.B.B.B.B.E B.B.X D.u u u C.C.C.C.C.C.C.u C.C.C.C.C.C.u F.. B B B e.e.e.e.e.i.B         ",
"        E B.B.B.B.B.B.B.B.B.B.X X D.u u C.C.C.A.A.A.A.C.C.C.C.u M F.. M B B e.e.e.e.e.B e.B         ",
"        E B.B.B.B.B.B.B.B.B.B.B.B.X D.u u l.X.A.A.A.A.A.A.C.u F.. B M M e.e.e.e.e.e.e.e.B B         ",
"        E B.B.B.B.B.B.B.B.B.B.B.B.B.E X D.X.A.A.A.A.A.A.X.F.. B B B B e.e.e.e.e.e.e.e.e.B q.        ",
"        E E B.B.B.B.B.B.B.B.B.B.B.B.E E E X D.X.A.X.X.F.. . B B e.e.e.e.J.e.e.e.e.e.e.3.q.q.        ",
"        E E N.B.B.B.B.B.B.B.B.B.B.B.B.B.B.E X D.D.X.F.. B e.e.J.e.M e.e.e.e.q.q.q.q.e.3.q.e.        ",
"        E E N.B.B.B.B.B.B.B.B.B.B.B.B.B.B.B.B.E X . B e.e.e.e.e.e.e.e.e.e.e.q.q.q.q.q.i.q.e.        ",
"        E E N.N.B.B.B.B.B.E B.B.B.B.B.B.B.B.B.E E B e.e.e.e.e.e.e.e.e.q.q.e.q.q.q.q.e.3.q.3.        ",
"        E E N.N.N.B.N.N.B.B.B.B.B.B.B.B.B.I.B.E E B e.e.e.e.e.e.e.q.q.q.q.M q.q.q.q.e.e.3.3.        ",
"        K K N.N.N.N.N.N.E B.B.B.E B.B.I.B.I.B.E E B e.B e.e.e.q.q.q.M q.q.q.e.M q.e.e.3.e.3.        ",
"        K K n.N.N.N.P.N.N.B.B.B.B.B.B.B.B.B.B.E E B e.e.e.e.q.q.q.q.e.q.q.q.q.e.3.3.e.3.3.3.        ",
"        G E n.n.n.n.N.N.N.N.N.B.B.B.B.B.E B.B.E E B e.e.q.e.q.q.q.q.q.e.q.q.e.e.3.e.3.3.B d         ",
"        G G h.n.n.n.n.n.N.N.N.N.B.B.B.B.B.B.B.E E B q.q.q.q.q.q.q.q.q.5.e.3.=.q.3.3.3.=.y d         ",
"        G h.h.h.m.k.n.n.n.n.n.n.N.N.N.N.B.B.B.E E l e.e.q.q.q.q.q.q.q.=.3.3.3.3.3.=.=.=.d y         ",
"        C h.h.h.k.k.n.n.n.n.N.N.N.N.N.N.N.B.B.E E l q.e.q.q.q.q.q.q.e.e.e.3.=.e.=.=.=.=.$.y         ",
"        V e.i.h.h.k.k.k.h.N.n.n.n.N.N.N.N.B.N.B.o.l q.q.e.q.3.e.M =.=.e.3.3.3.3.=.=.=.o.o.0         ",
"        n q.e.i.i.C k.k.h.h.N.z.n.n.N.N.N.N.N.N...V l q.e.e.3.e.e.q.3.3.3.=.=.y =.o.o.) ) 8         ",
"        i -.3.e.t.h.i.h.h.m.h.h.N.L.n.n.N.N.N.N.K d B e.3.e.3.3.q.=.3.3.3.o.o.-.o.o.) Y Y <         ",
"        3 ) -.n q.e.i.y.i.h.i.m.k.n.k.N.z.N.N.N.n.n B 3.3.3.3.3.3.=.=.=.o.o.H.o.) Y Y Y : %         ",
"            8 | | <.q.q.i.i.h.k.k.k.h.m.N.n.n.E n.B B 3.e.3.3.3.=.=.=.o.o. .Y Y Y Y 1 * O           ",
"              v ) | -.<.q.i.i.i.i.h.h.h.N.G n.E n.B d 3.3.3.=.=.=.=.o.o. .) Y Y v & O               ",
"                  v Q -.-.q.e.e.h.h.h.h.k.k.n.k.K M y 3.=.3.=.o.-.o.) ) Y Y Y 1 O                   ",
"                      Q )  .-.q.e.e.e.h.G h.k.k.K M B =.=.-.y o.o.) Y Y b c %                       ",
"                          4 p d 3.q.i.i.G K.h.h.K M =.-.o.y o.) ) Y Y * & %                         ",
"                            3 i t -.3.3.q.i.i.h.G t -.o.G. .) ) Y Y % %                             ",
"                                3 8 -.3.q.B e.i.G t o. .) ) Z Z c %                                 ",
"                                    1 ) -.-.q.e.C 0 Y ) Q Z Z &                                     ",
"                                      * 8  .-.e.B 0 Y Y Z v $                                       ",
"                                          1 ) ) n < Y v +                                           ",
"                                              3 p * $                                               ",
"                                                  o                                                 "
};
