/* XPM */
static char *_25b62d4d343447d9862b2556c18b187le6xtYyAVjR9toOO[] = {
/* columns rows colors chars-per-pixel */
"50 50 173 2 ",
"   c None",
".  c #262D18",
"X  c #2B3C16",
"o  c #2B3D16",
"O  c #2C3D17",
"+  c #2C3E17",
"@  c #2D3E17",
"#  c #2D3F17",
"$  c #2E341D",
"%  c #2E4018",
"&  c #2F4118",
"*  c #2F4218",
"=  c #2F4219",
"-  c #304319",
";  c #31441A",
":  c #31451A",
">  c #31441B",
",  c #32451A",
"<  c #32461B",
"1  c #32461C",
"2  c #33461C",
"3  c #33471C",
"4  c #34491C",
"5  c #34481D",
"6  c #35491D",
"7  c #354A1C",
"8  c #364A1E",
"9  c #364B1E",
"0  c #374B1E",
"q  c #374C1F",
"w  c #384D1E",
"e  c #384D1F",
"r  c #394E1F",
"t  c #394F1F",
"y  c #3A4F1F",
"u  c #3E551E",
"i  c #394E20",
"p  c #3A4F20",
"a  c #3A5020",
"s  c #3B5120",
"d  c #3A5021",
"f  c #3B5220",
"g  c #3C5221",
"h  c #3C5321",
"j  c #3D5321",
"k  c #3D5322",
"l  c #3D5421",
"z  c #3D5422",
"x  c #3D5423",
"c  c #3E5422",
"v  c #3E5522",
"b  c #3E5523",
"n  c #3F5624",
"m  c #3F6724",
"M  c #405724",
"N  c #405825",
"B  c #415925",
"V  c #425A26",
"C  c #435B26",
"Z  c #435C27",
"A  c #445C27",
"S  c #445D27",
"D  c #455D27",
"F  c #46512B",
"G  c #47532B",
"H  c #47532C",
"J  c #49552D",
"K  c #49562D",
"L  c #4A562D",
"P  c #49552E",
"I  c #4A562E",
"U  c #4A572E",
"Y  c #4B572F",
"T  c #455E28",
"R  c #465F28",
"E  c #4B582E",
"W  c #4B582F",
"Q  c #4C582F",
"!  c #4C592F",
"~  c #4C5830",
"^  c #4D5930",
"/  c #4D5A30",
"(  c #4E5A30",
")  c #4E5B30",
"_  c #4E5B31",
"`  c #4F5B31",
"'  c #4F5C31",
"]  c #4F5C32",
"[  c #505D31",
"{  c #505C32",
"}  c #505D32",
"|  c #505D33",
" . c #515D33",
".. c #515E32",
"X. c #515E33",
"o. c #515F33",
"O. c #525E33",
"+. c #525F33",
"@. c #525F34",
"#. c #535F34",
"$. c #4D6B26",
"%. c #5A7F2C",
"&. c #526033",
"*. c #536034",
"=. c #536134",
"-. c #536035",
";. c #546134",
":. c #546135",
">. c #546234",
",. c #546235",
"<. c #556235",
"1. c #556335",
"2. c #556236",
"3. c #556336",
"4. c #566336",
"5. c #566436",
"6. c #566536",
"7. c #576536",
"8. c #566437",
"9. c #576437",
"0. c #576537",
"q. c #576637",
"w. c #586537",
"e. c #586637",
"r. c #586737",
"t. c #586538",
"y. c #586638",
"u. c #596638",
"i. c #586738",
"p. c #596738",
"a. c #596739",
"s. c #596838",
"d. c #5A6839",
"f. c #5B693A",
"g. c #5C6A3A",
"h. c #5C6A3B",
"j. c #5C6B3B",
"k. c #5D6B3B",
"l. c #5D6C3B",
"z. c #5D6C3C",
"x. c #5E6C3C",
"c. c #5E6D3C",
"v. c #5F6D3C",
"b. c #5F6E3D",
"n. c #606E3D",
"m. c #606F3D",
"M. c #606F3E",
"N. c #616F3E",
"B. c #61703E",
"V. c #62713E",
"C. c #62713F",
"Z. c #62723F",
"A. c #63723F",
"S. c #556C54",
"D. c #637240",
"F. c #637340",
"G. c #647340",
"H. c #647440",
"J. c #657440",
"K. c #5D842E",
"L. c #5D9034",
"P. c #609536",
"I. c #86B551",
"U. c #96CE56",
"Y. c #B0F266",
"T. c #BCC6B0",
"R. c #BDC7B1",
"E. c #CBD6BE",
"W. c #D2DEC6",
"Q. c #DAE6CD",
"!. c #DEEAD1",
"~. c #DFEBD2",
"^. c #E0F2CD",
/* pixels */
"                                                                                                    ",
"                                                I.I.                                                ",
"                                              I.m m U.                                              ",
"                                          I.m P.P.P.P.m U.                                          ",
"                                      I.u m P.P.P.P.P.P.P.u U.                                      ",
"                                    I.u K.K.P.P.m P.P.P.%.u u u U.                                  ",
"                                I.u K.K.K.K.K.K.P.P.K.K.K.K.K.u u U.                                ",
"                            I.m K.K.K.K.K.K.K.K.P.P.K.K.K.K.K.K.K.u u U.                            ",
"                        I.m m P.P.K.K.K.K.K.K.P.P.P.P.P.K.K.K.K.K.m m m m U.                        ",
"                      I.m P.P.P.P.P.P.K.K.P.P.P.P.P.P.P.P.K.K.P.P.P.m P.L.m U.U.                    ",
"                  I.m P.P.P.P.P.P.P.P.K.^.P.P.P.P.P.P.P.P.K.K.P.P.P.P.P.P.m m m U.                  ",
"              I.u u K.P.P.P.P.P.P.K.K.K.K.K.K.P.m P.P.P.K.K.K.K.K.P.P.P.P.P.P.K.u u U.              ",
"          I.I.u K.K.K.$.K.P.P.P.K.K.K.K.K.K.K.K.P.P.K.K.K.K.K.K.K.K.K.P.P.K.K.K.K.u u u U.          ",
"        I.U.u u K.K.^.K.K.K.P.K.K.K.K.K.K.K.K.K.P.P.K.K.K.K.K.K.K.K.K.K.K.K.K.K.K.K.K.K.u Y.        ",
"        R $ U.u u K.K.K.P.P.P.P.K.K.K.K.K.K.P.P.P.P.P.m K.u K.K.K.K.P.P.P.P.K.K.K.K.u Y.. v         ",
"        R R R $ U.u P.P.P.P.P.P.P.P.K.K.K.P.P.P.P.P.P.S.P.K.K.K.P.P.P.P.P.P.P.P.u Y.. v v v         ",
"        R R J.J.T . U.m L.L.P.P.P.m P.K.P.S.P.S.P.P.P.P.P.P.K.P.P.P.P.P.P.P.m Y.Y.. v s.s.v         ",
"        R J.J.J.D.$.$ U.m $.P.L.P.K.K.K.K.K.P.P.P.P.P.P.P.K.K.u K.L.P.P.L.$.Y.. x s.s.s.s.s.        ",
"        R J.J.R D.H.T H.$ U.m K.K.K.K.K.K.K.K.P.P.P.P.K.K.K.K.K.K.K.K.m Y.. x s.s.s.s.s.s.v         ",
"        R J.J.J.H.H.F.$.H.H.$ U.u u u K.K.K.K.K.K.K.u K.K.K.K.K.K.u Y.. x x x s.s.s.s.s.s.v         ",
"        T F.F.J.H.J.J.J.J.J.J.$ $ U.u u K.K.K.P.P.P.P.K.K.K.K.u u Y.. v v v s.s.s.s.s.v s.v         ",
"        Z D.G.J.H.H.J.J.J.J.J.J.J.$ U.u u %.m P.P.P.P.P.P.K.u Y.. v v v s.s.s.s.s.s.s.s.v v         ",
"        $.D.H.J.J.J.J.J.J.J.J.J.J.J.R $ U.m P.P.P.P.P.P.m Y.. v v v v s.s.s.s.s.s.s.s.s.v s.        ",
"        T &.H.H.J.J.J.J.J.J.J.J.J.J.R R R $ U.m P.m m Y.. . v v s.s.s.s.E.s.s.p.s.s.s.s.s.1.        ",
"        R R J.H.H.J.J.J.J.J.J.J.J.J.J.J.J.R $ U.U.m Y.. v s.s.E.s.v s.s.s.s.p.p.p.p.p.p.p.p.        ",
"        R R H.H.H.J.H.J.J.J.J.J.J.J.J.J.J.J.J.R $ . v s.s.s.s.s.s.s.s.s.p.p.p.p.p.p.p.p.p.s.        ",
"        R R F.G.G.G.J.G.J.R J.J.J.J.J.J.J.J.J.R R v s.s.s.s.s.s.s.s.s.p.p.p.p.p.p.p.p.p.p.r.        ",
"        T R G.G.G.F.H.G.H.H.J.J.J.J.J.J.J.~.J.R R v s.s.s.s.s.s.s.p.p.p.p.v p.p.p.p.p.p.r.r.        ",
"        Z R F.F.G.G.G.G.R H.H.H.R J.J.~.J.~.J.R R v s.v s.s.s.p.p.p.v p.p.p.s.v p.s.1.s.1.s.        ",
"        T Z D.F.F.F.~.A.F.H.H.H.J.J.J.J.J.J.J.R R v s.s.s.s.p.p.p.p.p.p.p.p.p.8.8.s.1.p.p.1.        ",
"        Z A D.D.A.F.F.G.G.G.J.H.H.H.H.J.R J.J.R R v s.p.p.p.p.p.p.p.p.p.p.p.s.p.p.1.s.8.v f         ",
"        V Z N.N.A.A.A.G.F.G.G.F.H.H.H.H.J.J.J.R R v p.p.p.p.p.p.p.p.p.s.s.8.p.1.p.p.r.1.f f         ",
"        V N.x.A.N.A.H.A.A.H.F.F.G.G.G.G.J.H.H.R R v p.p.p.p.p.p.p.s.s.s.r.r.1.p.1.1.1.1.u i         ",
"        V h.A.x.A.x.x.A.A.A.F.F.G.G.G.G.H.H.H.R R v p.p.p.p.p.p.p.1.p.p.r.r.p.2.2.r.1.1.-.u         ",
"        b h.h.N.x.x.A.A.A.A.A.A.A.G.F.F.F.J.H.J.R v p.p.p.p.s.s.k p.1.p.1.r.2.2.1.2.2.&.{ r         ",
"        x p.p.x.l.V x.m.x.N.A.A.A.A.F.F.G.G.F.G.R v v p.p.p.p.1.r.8.r.1.1.1.2.u 2.&.{ { ' 6         ",
"        p 2.p.s.h.x.x.N.x.F.m.F.x.Q.A.F.G.F.F.F.R v v 8.s.1.p.p.1.r.1.r.2.2.1.>.&.&.{ ! ! :         ",
"        3  . .v p.s.s.h.x.x.x.x.A.A.A.A.A.A.F.F.F.k v s.p.s.8.p.1.2.1.1.2.>.R.{ { ! ' P : o         ",
"            6  .2.2.8.f.s.x.N.x.A.N.x.A.N.F.A.T G.k v 8.r.p.p.1.r.1.2.>.&.>.{ { ! ! : - O           ",
"              P (  .8.p.s.s.z.x.x.x.A.A.N.A A.T A.v u 2.1.1.1.1.2.2.&.&.{ ! ! ! P : O               ",
"                  Y  .-.8.p.p.s.h.x.x.x.F.F.F.A.Z v v 1.2.2.1.2.&.&.{ { ! ! P : %                   ",
"                      ( {  .8.8.8.f.x.x.V x.m.A.Z h f 1.1.-.u &.{ ' ' ( ! P O                       ",
"                          6 6 p 8.p.f.h.n W.N.x.Z u 1.-.2.u { &.{ ' ! - - X                         ",
"                            > i i 8.p.a.s.x.x.x.V p -.-.T.' ' ' ! P : o                             ",
"                                2 i  . .p.b s.x.V r  .-.{ ' ! P G &                                 ",
"                                    i _  .8.p.s.b p ' ' ( P H &                                     ",
"                                      2 p ] -.8.v 7 ( ! P F +                                       ",
"                                          2 '  .f 4 P H &                                           ",
"                                              6 i & +                                               ",
"                                                  +                                                 "
};
