/* XPM */
static char *dda5c0de91f5430087b509ed2d606c9dPmM5skHWBY8w8mfi[] = {
/* columns rows colors chars-per-pixel */
"64 64 177 2 ",
"   c None",
".  c #030203",
"X  c #0A0505",
"o  c #060609",
"O  c #090609",
"+  c #0B0B0C",
"@  c #110607",
"#  c #110708",
"$  c #130C0D",
"%  c #1A0C0E",
"&  c #0E100F",
"*  c #11100F",
"=  c #0D0D12",
"-  c #120E11",
";  c #1C0E10",
":  c #0F1013",
">  c #0F1118",
",  c #131313",
"<  c #1B1414",
"1  c #171817",
"2  c #191817",
"3  c #13141B",
"4  c #1D151B",
"5  c #171A18",
"6  c #1C1B1B",
"7  c #220F0F",
"8  c #241315",
"9  c #2B1415",
"0  c #23161A",
"q  c #2B1718",
"w  c #231A1B",
"e  c #2C1A1D",
"r  c #341A1C",
"t  c #38191B",
"y  c #1F201F",
"u  c #22201F",
"i  c #161621",
"p  c #1D1720",
"a  c #161922",
"s  c #1A1B25",
"d  c #1C1E2A",
"f  c #251C22",
"g  c #2C1D22",
"h  c #291F28",
"j  c #331E23",
"k  c #391D21",
"l  c #1F2120",
"z  c #1E212D",
"x  c #1F2330",
"c  c #232322",
"v  c #2B2323",
"b  c #22222C",
"n  c #2C242B",
"m  c #2A2A2A",
"M  c #342324",
"N  c #3B2225",
"B  c #33242C",
"V  c #3D242B",
"C  c #37292C",
"Z  c #232533",
"A  c #2D2632",
"S  c #252935",
"D  c #2A2B34",
"F  c #262A3B",
"G  c #2B2C3C",
"H  c #342631",
"J  c #3B2731",
"K  c #342A34",
"L  c #3D2A34",
"P  c #342D3B",
"I  c #3D2E3B",
"U  c #2E3037",
"Y  c #2E313C",
"T  c #31353E",
"R  c #3E313F",
"E  c #432225",
"W  c #492527",
"Q  c #44262B",
"!  c #49262A",
"~  c #462A2F",
"^  c #4B2A2E",
"/  c #442C33",
"(  c #4A2C33",
")  c #472F39",
"_  c #492F3A",
"`  c #413136",
"'  c #44313C",
"]  c #4A313A",
"[  c #2A2E41",
"{  c #2D3144",
"}  c #2F3448",
"|  c #343344",
" . c #3D3342",
".. c #3A3946",
"X. c #33364A",
"o. c #3D3649",
"O. c #34394E",
"+. c #3D394D",
"@. c #363C53",
"#. c #3B3D54",
"$. c #3A3F58",
"%. c #433543",
"&. c #4B3642",
"*. c #4F3A46",
"=. c #423C4D",
"-. c #4A3C4C",
";. c #503A45",
":. c #413E53",
">. c #483E51",
",. c #3E4157",
"<. c #3E4059",
"1. c #3C415A",
"2. c #3C415B",
"3. c #3D415B",
"4. c #3E415A",
"5. c #3C425B",
"6. c #3E425B",
"7. c #3C425C",
"8. c #3D425C",
"9. c #3D435D",
"0. c #3E425C",
"q. c #3E435C",
"w. c #3E435D",
"e. c #3E435E",
"r. c #3E445E",
"t. c #3F445E",
"y. c #3E445F",
"u. c #3F445F",
"i. c #3F455E",
"p. c #3D435C",
"a. c #3E4560",
"s. c #3F4661",
"d. c #3E4560",
"f. c #4C404C",
"g. c #444256",
"h. c #4A4052",
"j. c #4C4255",
"k. c #4A4256",
"l. c #464258",
"z. c #44465D",
"x. c #4A455C",
"c. c #43485F",
"v. c #56495A",
"b. c #404560",
"n. c #414661",
"m. c #414762",
"M. c #444761",
"N. c #424864",
"B. c #454A65",
"V. c #464A65",
"C. c #444B66",
"Z. c #474C67",
"A. c #444A65",
"S. c #484A64",
"D. c #4A4A64",
"F. c #444C68",
"G. c #454D6A",
"H. c #474F6B",
"J. c #474E6B",
"K. c #494D68",
"L. c #4B4D68",
"P. c #494E6A",
"I. c #494F6B",
"U. c #484F6B",
"Y. c #484F6C",
"T. c #494E6B",
"R. c #504D64",
"E. c #49506D",
"W. c #49506E",
"Q. c #4A516E",
"!. c #4B526F",
"~. c #49516E",
"^. c #4B5370",
"/. c #4C5371",
"(. c #4D5472",
"). c #4D5574",
"_. c #4B5371",
/* pixels */
"                                                                                                                                ",
"                                                              $.E                                                               ",
"                                                            z.$. .o.                                                            ",
"                                                          w.w.w.w.w.w.                                                          ",
"                                                      E #.w.w.w.w.w.w.w.w.                                                      ",
"                                                w.w.3.#.3.w.w.w.w.w.w.w.w.w.w.w.                                                ",
"                                                w.w.w.a.w.w.w.w.w.w.w.#.I :.i.w.w.a.                                            ",
"                                              w.w.w.w.w.w.w.w.w.w.w.z.#.I $.d.w.w.o.L                                           ",
"                                        w.w.w.w.w.w.w.w.w.w.w.w.w.w.w.w.w.w.w.w.$.Q V L                                         ",
"                                    w.w.w.w.w.w.w.w.w.w.w.w.w.w.w.w.w.w.w.w.w.w.z.$.:.#.z.b.                                    ",
"                                I e.b.$.w.w.w.w.w.w.w.w.w.w.w.w.w.w.w.w.w.w.w.w.z.b.d.o.I $.w.w.                                ",
"                              V / $.b.b.w.w.w.w.w.w.w.w.w.w.w.w.w.w.w.w.w.w.w.w.$.$.d.+.%.$.w.w.w.                              ",
"                            w. .%.e.e.b.b.b.w.d.w.w.w.w.w.w.w.w.w.w.w.w.w.w.w.w.d.d.d.$.b.b.w.w.w.w.w.                          ",
"                      w.w.w.w.w.$.d.e.$.$.$.w.$.w.w.w.w.w.w.w.w.w.w.w.w.w.w.w.w.b.$.b.$.b.$.w.w.w.w.w.w.$.                      ",
"                  w.w.w.w.w.w.w.z.$.b.$.%.I b.z.w.w.w.w.w.w.w.w.w.w.w.w.w.w.w.w.b.b.:.d.b.b.$.w.w.w.w.i.) L w.                  ",
"              w.w.w.w.w.w.w.w.w.b.$.b.b.I V $.w.w.w.w.w.w.w.w.w.w.w.w.w.w.w.w.w.d.$.s.d.$.b.b.b.d.w.w.w.#.o.w.w.w.              ",
"            #.w.w.w.w.w.w.w.w.w.w.w.w.w.o. .$.d.w.w.w.w.w.w.w.w.b.b.b.$.b.$.$.#.=.$.w.w.w.w.z.@.+.w.w.w.w.d.w.w.w.w.            ",
"          Q =.b.w.w.d.w.w.w.w.w.w.w.w.w.z.w.w.w.w.w.w.w.w.w.w.w.$.$.b.e.b.b.b.=.L $.w.w.w.w.w.) I z.w.w.w.w.w.w.w.$.:.          ",
"          S.V.V.w.$.w.w.w.w.w.w.w.w.w.w.w.w.w.w.w.w.w.w.w.w.w.w.b.z.$.b.$.b.$.b.:.w.w.w.w.w.w.$.$.w.w.w.w.w.w.w.#.P k           ",
"          ] ] _ / 3 g %.w.w.w.w.w.w.w.w.w.w.w.w.w.w.w.w.w.w.w.w.d.$.z.b.$.b.e.e.w.d.w.w.w.w.w.w.d.w.w.w.w.1.#.#.+.D 2           ",
"          M N N g o n l.N.i.w.w.w.w.w.w.w.w.w.w.w.w.w.w.w.w.w.w.d.b.$.b.d.$.b.d.$.$.b.b.w.w.w.w.w.w.w.w.w.$.@.P A f 5           ",
"          5 w m 6 + @.).H.b.w.w.w.w.w.w.w.w.w.w.w.w.w.w.w.w.w.w.$.b.$.z.b.$.z.$.b.d.:.#.w.w.w.b.b.w.$.w.O.| P g w 1 1           ",
"          o , y p O { V.I.I.b.i.b.w.w.w.w.w.w.w.w.w.w.w.w.w.w.w.b.$.d.d.b.z.$.b.d.$.L  .w.w.:.$.$.3.@.O.H t r 5 1 , 1           ",
"          5.z + 5 o o e &.I.I.I.A.w.w.w.w.w.w.w.w.w.w.w.w.w.w.w.z.b.b.$.$.b.b.b.$.z.$.:.d.w.L ; s @.@.B t e 4 , o a X.          ",
"          ^.1.X.| . . 8 ^ &.L.h.>.T.G.b.d.d.w.b.w.w.w.w.w.w.d.b.$.d.b.$.b.d.d.$.w.w.i.i.w.@.w . 3 O.H e w * + Z S { $.          ",
"          E.E.(.C.Z z w q M ..) ( >.R.>.P G  .$.w.w.w.w.d.+. . .$.d.b.$.z.$.b.b.w.w.w.3.#.| , . 3 K 0 $ + . o } 1.X.P           ",
"          E.E.E.W.W.^.{ = , c M E / -./ % # / $.d.w.w.w.w. .V L :.d.e.b.$.e.$.b.3.3.w.@.| P < . % q + X X . > } O.K r           ",
"          I.I.I.W.W.W.W.O.+ 2 2 w c c w O i V.N.w.w.w.w.w.w.:.w.b.e.$.b.b.d.$.z.3.@.@.K e 6 , o % q X 8 < 5 X.O.B r r           ",
"          ] _ -.E.W.E.^.V.%.Q < : 6 c 6 + i J.J.J.A.3.w.w.w.w.w.b.$.e.w.b.b.$.@.$.@.K j e 2 + . 3 | G j 7 a O.B e < <           ",
"          7 9 n ..-.D._.!.v.M @ 3 Y : , O i T.^._.T.G.G.w.w.d.w.d.d.+.J d d [ #.+.K e w < + z z F @.$.n * , a 8 = + o           ",
"          . . , u M ..l.j.*.6 . x N.d b , , l.l.l.l.x.T.G.:.o.+.$.b. .9 . = Z | G e 2 : + 1 } 1.X.| G s , + . . . . #           ",
"          + = = 1 1 u M W E 2 o z ^.J.E.F - k M N E ( D.S.%.E V #.d. .8 o S H q , * , o 3 O.@.+.P r w 2 & o . o + % r           ",
"          m.N.G . o , u v v 6 O d E.E.E.G.| O , w u m ~ ~ *.;.~ +.$.D , . o 8 q , . . a X.@.@.K t r 4 , + . o F | n 5           ",
"          Y i.g.9 X o o : y 6 O d ^.^.E.E.V.O.@.5 + u v W ~ U B B B h , . . . 4 Z + . s @.@.K e 0 < + . 3 F F @.I e 5           ",
"          y Y  .M X . . . + = o p >.-.I.^.^./.^.D 9 e 1 u M c c t q 0 : . 3 a Z | , . d O.G w * + o . > [ O.P D f < +           ",
"          , 6 c 6 . . o 3 3 . . ; ! E :.M.x.S.T.&.E r . & 2 6 c e 4 , + = { $.+.H $ . a Y , & o . = = { O.P e 2 : o .           ",
"          O , 6 1 . . b I.z.> . ; E c c C ! ( x.&.r , o o o + 5 , , + > } @.@.P e , X % q , X . 3 @.O.O.Z 5 5 : O o o           ",
"          $.d . o . . 0 ` U O.3.G X + 4 c M W ( C 2 6 #.1.9.G . . z { { @.@.P g < , o . X . 8 # i @.@.b 6 + . . d [ G           ",
"          ^.@.[ S . . # u v T V.m.G F 3 + < v M v 6 d I._._.b.G Z } #.$.@.P g 2 , + . . o d 2 X - H b = o . . s } X.K           ",
"          J.J._.F.z . . + 1 y | ,.z.D.h X . - 1 l 5 b H.^.^.^.E.1.@.| T G e 8 , o . = 3 d P , . O % X . X $ a X.| B 9           ",
"          c.S.x.z.x.d + = . , l c m f./ 7 o = . - 1 b 3.S.D.D.z.,.O.D e 1 , + + + + F @.P e , X . . O o % j { | B 0 5           ",
"          Q Q Q Q ^ :.N.X.. . , l c m c + 3 #.= . + & + N ^ ^ / X.b 6 < * o . 3 } } O.F 6 2 + o . + [ M 8 + O q w , ,           ",
"          E N M v E ( k.V. .k ; o & 6 6 + a H.$.O.z . . < e M W N 4 + O . . a { @.$.D 6 + O . a S [ O.b , O . q 0 + X           ",
"          E e 6 c M M L -.] M # . . + + o ; =.+.H.5.d . . + 6 M ; X . . . . Z O.S Z 3 o o . 3 { O.K D p , + . % + + %           ",
"          / 0 - y c c v N N < o o 3 3 o . $ E g ..i.,.5 i O . , . o = X . . s Z , + . o = > G | A q 4 2 , o . > = < e           ",
"          i.d + 2 6 l c c c 5 + s G.z.i . - k < l c D i.V.Z . O o S K 9 . . o + & O . a @.| j r 0 5 1 < , O o F P v ,           ",
"          w.$.| r + , 6 u u 6 O d A.) +.w.[ # o , y c m D  .' N [ H g , . . . . X 8 X s | j r w 2 1 , o i [ G g r 0 ,           ",
"          J K L t . o + - 6 3 O 4 _ ! _ x.N.{ [ 3 + , y u U ` ! J g 2 & . . > Z z < X s { w 4 < + = b z [ [ B q 8 , +           ",
"            t r e X . = 3 + , o % E N k ` >.k.E.n @ . $ , 6 v N q - + o . > G @.K + . 3 A 1 , + + s } [ A n 8 8 * +             ",
"                , . . x X.> 3 o % N c c M N Q g.' w . . . + 5 l : . o O = G X.K q , o % 9 + , X 3 X.P g 9 8 * + +               ",
"                  . . d $.#.3.a % N f c c c c n m 6 + . . o = 5 o . a X.{ M r e 1 , . % 8 O 8 # 3 G e 9 4 * +                   ",
"                      g N K #.@.O.| + , 6 c c u c 6 + . G @.F o Z F } | B r q 2 , + . 3 P n , . 3 G 4 - $                       ",
"                          k P I =.1.Z = , 6 y p c 6 : o 1._.i.G @.@.| B w w 4 & + o 3 S | B $ . - h 4                           ",
"                            t t L o.+.3 O : , 6 u c , . | l.l.l.@.{ n 0 5 , $ + = > Z [ n 8 $ . X 8                             ",
"                                  k r , o . + 6 y 6 , X r W E Q | b 4 , 3 - O 3 [ [ j 9 8 , + o .                               ",
"                                    2 & X > O.#.a + + . r M c v j w < & . . s A j g 9 8 * +                                     ",
"                                        . 3 3.a.X.[ Z . % u y c r $ $ ; . . d G 9 < $ *                                         ",
"                                          3 #.|  .:.$.d + * y 6 % , 0 8 . . 4 h % , +                                           ",
"                                              t t J @.#.a 5 s , = Z H 8 . . $ % +                                               ",
"                                                r t k M o.9.G + F g 8 = . . . O                                                 ",
"                                                      t M %.%.r j w < + .                                                       ",
"                                                          B n e < * *                                                           ",
"                                                            2 2 + +                                                             ",
"                                                                +                                                               "
};
