/* XPM */
static char *_df0ab98be7c4963be68ffde0042b31a5BEu2I3onbN3szHk[] = {
/* columns rows colors chars-per-pixel */
"64 64 180 2 ",
"   c None",
".  c #030202",
"X  c #090606",
"o  c #0B0A05",
"O  c #070508",
"+  c #0A0609",
"@  c #0C0B0C",
"#  c #110F06",
"$  c #100E0E",
"%  c #0F100F",
"&  c #14120C",
"*  c #1A170C",
"=  c #1D1B0E",
"-  c #0F0D10",
";  c #130E13",
":  c #170F18",
">  c #180F18",
",  c #0F1010",
"<  c #141313",
"1  c #1A1514",
"2  c #171816",
"3  c #1C1B14",
"4  c #171119",
"5  c #1B131C",
"6  c #171819",
"7  c #1C1C1B",
"8  c #201E0E",
"9  c #201E14",
"0  c #221A1B",
"q  c #1E201E",
"w  c #21200D",
"e  c #252214",
"r  c #292714",
"t  c #2C2915",
"y  c #24221A",
"u  c #29251C",
"i  c #2D2A1B",
"p  c #312D1B",
"a  c #363317",
"s  c #383517",
"d  c #36311B",
"f  c #39341D",
"g  c #3C381F",
"h  c #1E1620",
"j  c #211622",
"k  c #241A25",
"l  c #281D27",
"z  c #261B29",
"x  c #291D2C",
"c  c #2C1E30",
"v  c #1F2020",
"b  c #232323",
"n  c #2A2423",
"m  c #272824",
"M  c #2C2A23",
"N  c #2B222A",
"B  c #2E2C2B",
"V  c #302727",
"C  c #322C24",
"Z  c #382F25",
"A  c #352C2B",
"S  c #382E2C",
"D  c #343223",
"F  c #3A3523",
"G  c #3D3A23",
"H  c #33302E",
"J  c #3D332C",
"K  c #2E2231",
"L  c #2F2C32",
"P  c #312434",
"I  c #352B34",
"U  c #3B2D35",
"Y  c #36263B",
"T  c #39273E",
"R  c #362B39",
"E  c #3B2B3C",
"W  c #3E3233",
"Q  c #3E323C",
"!  c #403A1F",
"~  c #423D24",
"^  c #42372F",
"/  c #443C2C",
"(  c #413534",
")  c #453B33",
"_  c #483E31",
"`  c #42333C",
"'  c #46393B",
"]  c #493C3C",
"[  c #464124",
"{  c #494426",
"}  c #4A422C",
"|  c #4F482B",
" . c #4C4333",
".. c #4D423C",
"X. c #514636",
"o. c #52463B",
"O. c #3D2B42",
"+. c #3D3340",
"@. c #412E45",
"#. c #432F49",
"$. c #443244",
"%. c #483547",
"&. c #463A44",
"*. c #4C3C43",
"=. c #45314A",
"-. c #4A354D",
";. c #473948",
":. c #4E3B4A",
">. c #513D4E",
",. c #4D3653",
"<. c #4E3853",
"1. c #503756",
"2. c #523C55",
"3. c #553D5C",
"4. c #563D5D",
"5. c #553E5C",
"6. c #563E5C",
"7. c #563E5D",
"8. c #563E5E",
"9. c #573E5E",
"0. c #573F5E",
"q. c #573E5F",
"w. c #573F5F",
"e. c #553D5B",
"r. c #583F5E",
"t. c #583F5F",
"y. c #573E61",
"u. c #573E60",
"i. c #593F61",
"p. c #583E60",
"a. c #4D4142",
"s. c #554740",
"d. c #564742",
"f. c #554543",
"g. c #57454E",
"h. c #52414D",
"j. c #58464D",
"k. c #5A474C",
"l. c #5B494D",
"z. c #574256",
"x. c #5B4557",
"c. c #5B4655",
"v. c #5C4851",
"b. c #5D4953",
"n. c #5E4954",
"m. c #57425D",
"M. c #5C445D",
"N. c #624A5E",
"B. c #60485D",
"V. c #594061",
"C. c #5A4161",
"Z. c #5B4162",
"A. c #5C4264",
"S. c #5F4565",
"D. c #5D4363",
"F. c #604466",
"G. c #624767",
"H. c #614664",
"J. c #624864",
"K. c #634963",
"L. c #614568",
"P. c #61456A",
"I. c #64476B",
"U. c #63476A",
"Y. c #634868",
"T. c #644968",
"R. c #654A68",
"E. c #64486B",
"W. c #64486C",
"Q. c #66496D",
"!. c #66496E",
"~. c #674A6E",
"^. c #66496D",
"/. c #684B6F",
"(. c #684A6F",
"). c #694B70",
"_. c #6A4C71",
"`. c #6B4D72",
"'. c #6C4D75",
"]. c #694B71",
/* pixels */
"                                                                                                                                ",
"                                                              2.~                                                               ",
"                                                            m.2.] :.                                                            ",
"                                                          7.7.7.y.7.7.                                                          ",
"                                                      ~ >.y.7.7.7.7.7.7.7.                                                      ",
"                                                7.7.e.2.e.7.7.7.7.7.7.7.7.7.7.7.                                                ",
"                                                7.7.7.7.7.7.7.7.7.7.7.2.] 2.7.7.r.i.                                            ",
"                                              7.7.7.7.7.7.7.7.7.7.7.r.2.) 2.7.y.7.*.)                                           ",
"                                        7.7.7.7.7.7.7.7.7.7.7.7.7.7.7.7.7.7.7.r.2./ ~ /                                         ",
"                                    7.7.7.7.7.7.7.7.7.7.7.7.7.7.7.7.7.7.7.7.7.7.7.e.2.e.e.e.                                    ",
"                                ] e.7.7.7.7.7.7.7.7.7.7.7.7.7.7.7.7.7.7.7.7.7.7.7.7.y.*.] e.7.7.                                ",
"                              / ) y.7.7.7.7.7.7.7.7.7.7.7.7.7.7.7.7.7.7.7.7.7.7.7.7.7.>.*.7.7.7.7.                              ",
"                            7.] ] 7.7.7.7.7.7.7.7.7.7.7.7.7.7.7.7.7.7.7.7.7.7.7.7.7.7.7.7.7.7.7.7.7.7.                          ",
"                      7.7.7.7.7.7.7.7.7.e.e.7.7.7.7.7.7.7.7.7.7.7.7.7.7.7.7.7.7.7.7.7.7.7.7.7.7.7.7.7.7.e.                      ",
"                  7.7.7.7.7.7.7.7.7.7.r.] ] 7.7.7.7.7.7.7.7.7.7.7.7.7.7.7.7.7.7.7.7.7.7.7.7.7.7.7.7.7.r.] / e.                  ",
"              7.7.7.7.7.7.7.7.7.7.7.7.7.) / 7.7.7.7.7.7.7.7.7.7.7.7.7.7.7.7.7.7.y.7.7.7.7.7.7.y.7.7.7.7.>.:.7.7.7.              ",
"            >.7.7.7.7.7.7.7.7.7.7.7.7.7.:.*.e.e.7.7.7.7.7.7.7.7.7.7.7.7.7.7.m.2.*.e.7.7.7.7.m.:.>.7.7.7.7.7.7.7.7.r.            ",
"          / >.i.7.7.7.7.7.7.7.7.7.7.7.7.7.7.7.r.7.7.7.7.7.7.7.7.7.7.7.7.7.7.r.:.) e.7.7.7.7.7.] ] 7.7.7.7.7.7.7.7.2.2.          ",
"          K.Y.S.r.e.e.m.7.7.7.7.7.7.7.7.7.7.7.7.7.7.7.7.7.7.7.7.7.7.7.7.7.7.7.e.e.e.7.7.7.7.7.e.e.7.7.7.7.7.7.7.2.` d           ",
"          o.o.X./ 5 C *.7.7.7.7.7.7.7.7.7.7.7.7.7.7.7.7.7.7.7.7.7.7.7.7.7.7.7.7.7.e.7.7.7.7.7.7.7.7.7.7.7.7.,.,.-.A 7           ",
"          F F G i X U x.S.7.7.7.7.7.7.7.7.7.7.7.7.7.7.7.7.7.7.7.7.7.7.7.7.7.7.7.7.7.r.7.7.7.7.7.7.7.7.y.3.,.,.` A k 6           ",
"          6 q m 0 X -.'.U.C.7.7.7.7.7.7.7.7.7.7.7.7.7.7.7.7.7.7.7.7.7.7.7.7.7.7.7.7.>.2.7.7.7.V.r.7.2.3.-.$.` p e 2 2           ",
"          @ < 7 7 + @.U.Y.Q.C.y.m.7.7.7.7.7.7.7.7.7.7.7.7.7.7.7.7.7.7.7.7.7.7.7.7.e.] ] r.7.e.<.2.3.,.-.( a p 7 2 2 6           ",
"          m.z @ 6 X + u s.T.W.Y.S.7.7.7.7.7.7.7.7.7.7.7.7.7.7.7.7.7.7.7.7.7.7.7.7.m.2.2.7.e./ = k ,.-.W d p 3 < O h =.          ",
"          ].2.=.$.. . 8 | d.R.v.j.U.F.C.7.i.y.7.7.7.7.7.7.7.i.i.7.7.7.7.7.7.7.7.7.7.7.7.3.,.0 o 5 -.W i q 1 @ P P O.1.          ",
"          Q.].`.S.P x n r D ;. .X.v.N.g.` U *.e.7.7.7.7.7.:.] *.e.7.7.7.7.7.7.7.7.7.7.3.2.$.4 . 5 W e & X X . @.1.-.`           ",
"          Q.Q.Q.Q.Q.].O.- 2 v D ~ / ../ * $ ) 2.7.7.7.7.7.*./ / 2.7.7.7.7.7.7.7.7.3.7.,.` A 4 . * t @ X . . < #.-.( a           ",
"          T.T.T.Q.Q.Q.Q.-.@ 6 7 y m m 7 X 0 F.C.7.7.7.7.e.e.e.e.r.7.7.7.7.7.7.7.3.,.,.( p 7 < . & t o e = 7 =.-.J p p           ",
"          o.X.k./.!.~.].D.' ~ 3 @ h b h @ h U.U.U.S.7.7.7.7.7.y.7.7.7.r.r.7.2.,.2.,.W F i 6 @ . 1 #.E Z = h -.J u 3 3           ",
"          8 r A &.k.K.].K.l.D # 5 Q < , X 5 W.`.!.U.S.S.V.7.7.7.7.7.>.( x k O.1.-.( u e 3 @ N x T 1.1.V 2 < h q & @ X           ",
"          . . ; b F *.M.b...7 . N A.z N < 2 x.z.x.n.M.Q.S.2.:.>.e.i.*.t . ; P $.R u 3 < @ 6 =.1.-.Q ` k < + . . . . #           ",
"          @ @ ; 2 2 h D { ~ 3 . z !.Q.!.Y 1 g C F [  .K.J.f.g ~ 2.7.' e . Y J t 2 < - + 5 -.,.,.( d 0 3 < . . + X * p           ",
"          V.D.E X X < b m M 7 X z Q.Q./.U.$.@ 2 q q B } | o...} -.1.R 1 . . 9 i < X . h =.,.,.W d t 7 1 @ . O Y E M 7           ",
"          Q V.x.r . . + < 7 7 @ z /./.Q./.D.=.-.7 % v D { J H C J J M < . . . 0 P @ . k ,.,.W u q = @ . 5 R Y ,.` i 6           ",
"          q R &.D . . . . @ @ . 0 l.v.R./.].`.].U e i < M M b m a t y @ . 5 j P ` ; . k -.I y 1 @ . . < O.-.' R n 2 @           ",
"          2 7 b 7 . . + 4 : . . 8 { ~ >.M.M.K.T.o.[ p . % 6 q b t 7 < @ ; @.1.%.H @ . k E 6 - X O ; ; O.-.E t 2 & X .           ",
"          + 4 6 2 . . x S.V.4 . 9 ~ n b F {  .N.o.p % + O O - 6 1 4 @ ; =.,.-.` t 1 . * i & . . 5 -.=.-.K 7 6 , + . X           ",
"          2.k . X . . u  .R <.m.Y o X 2 b D {  .J q 7 <.2.e.T . . N @.@.,.,.( C 7 < . X X . e # h ,.,.K 6 - X . z O.O.          ",
"          !.,.T P . . & u m +.S.D.E T 4 @ 2 M D M 6 b Q.'.`.D.R K @.1.<.,.` C 3 < + . . @ z 3 X 4 J x $ + . . k #.-.(           ",
"          U.Q.].S.x . . @ 6 v +.2.m.K.n X . & 2 v 7 x U.!.Q.].~.2.,.-.` E u 3 < X . - 5 l ` 2 . o = X . X & h =.%.A r           ",
"          M.M.D.D.M.k @ + . < 0 b B a.} 3 . $ . - 6 b e.H.K.K.S.,.-.W r 6 < @ @ + - T ,.` i 1 X . . @ X = C O.=.D e 6           ",
"          } } } } { z.D.#.X . < h b m b @ 5 1.; . @ ; @ F | }  .-.P q 6 , X . 6 =.#.=.Y 6 6 @ X . @ E C 8 @ @ i y 6 2           ",
"          ~ f C D [  .c.C.W d * + % 7 7 @ j I.2.,.x . . 3 u F { J 3 @ X . . h O.<.1.R 7 $ @ . j P O.,.N 1 X . r 9 @ X           ",
"          ~ i q v D D ) d.o.D & . . X % . 4 k.:.Y.7.b . . @ 7 p = o . . . . K ,.P K < + . . 5 @.-.W I 7 < @ . * $ o *           ",
"           .y $ 7 v v C G F 3 X + 5 > X . & ~ i ;.V.<.h 4 @ X & . @ ; o . . k K 6 @ . O ; 4 E %.U r 3 7 < + . < ; 1 t           ",
"          m.x @ 7 q v b b b 7 X z F.i.h . * G 3 h m L V.S.K . . X P W e . . + @ @ X . k ,.$.D p u 6 6 6 ; + @ Y W n <           ",
"          3.,.' d o < 7 b h 5 o z H.X.>.3.@.o X < v b L L Q ] F O.S p 1 . . . . X e o k =.Z a e 6 2 % . 0 O.R C p y <           ",
"          ( ) / d . X @ % q 6 X 0 X.~ X.B.i.O.O.5 + < q b H ) { ^ M 3 ; . . 4 c N 3 . z +.y 9 2 @ $ K N T =.A r e & @           ",
"            s d u . . ; 5 @ < . = ! g f ' l.n.~.I o . & 4 7 m F r 2 @ X . 4 O.<.U ; . 0 S 6 < @ ; j #.$.U A e 9 & @             ",
"                2 . . K -.; 5 + * G b b D G ~ z...e . . . @ 7 q , . . + @ E -.W r < . * r % < X 5 @.E p r 9 & @ @               ",
"                  . . x e.1.e.j = F y k v m m B M q @ . . . @ 6 + . j =.@.C d i 3 - . * e X e o 4 O.p t 3 < @                   ",
"                      M / ( 2.,.-.;.@ 2 v v v b b 7 @ . E ,.Y @ P Y @.-.J a e 7 6 @ . 0 E n * . 5 E 0 & &                       ",
"                          f ( ] >.2.P ; < 7 q k b h , + <.'.m.E =.,.%.S y y 3 , X . 5 Y $.C $ . ; V 3                           ",
"                            a s ) :.:.4 + & < 7 v v < X &.x.M.x.,.@.S e 6 < % @ ; : P O.S e < . o r                             ",
"                                  f d 1 O . + 7 v 7 , . d [ G ~ %.N 6 6 < - + 5 @.O.C t e , @ X .                               ",
"                                    7 < X ; -.1.k o , . d F m m d y 3 @ X . j U p p t w < @                                     ",
"                                        . 4 2.r.=.@.P . 2 y b b i * * 8 . . z E r 3 * <                                         ",
"                                          > 1.*.*.2.1.z @ < 7 7 = 2 0 e . . 0 V = < +                                           ",
"                                              d a ^ >.<.j 6 0 < - P S 8 . . & = @                                               ",
"                                                d d F ~ %.3.E @ Y C 9 ; . . . X                                                 ",
"                                                      f J ] ' p p y 2 @ .                                                       ",
"                                                          C M i 3 & &                                                           ",
"                                                            6 6 < @                                                             ",
"                                                                @                                                               "
};
