/* XPM */
static char *result[] = {
/* columns rows colors chars-per-pixel */
"64 61 82 1 ",
"  c #2F2416",
". c #312616",
"X c #342C15",
"o c #312618",
"O c #352A1B",
"+ c #3A2E1E",
"@ c #363016",
"# c #3A3416",
"$ c #3E3A17",
"% c #3C331D",
"& c #3E381B",
"* c #3A2F20",
"= c #3E3322",
"- c #413C1B",
"; c #413624",
": c #453926",
"> c #463B28",
", c #493D29",
"< c #44421A",
"1 c #49471D",
"2 c #4C4D1B",
"3 c #52551E",
"4 c #55591E",
"5 c #5B621F",
"6 c #4D422C",
"7 c #51452E",
"8 c #524730",
"9 c #554932",
"0 c #594D34",
"q c #5D5137",
"w c #5F5238",
"e c #63553A",
"r c #67583D",
"t c #6A5B3F",
"y c #5D6320",
"u c #646B22",
"i c #677022",
"p c #6B7624",
"a c #6E7A25",
"s c #727F26",
"d c #6B5C41",
"f c #736345",
"g c #758227",
"h c #788727",
"j c #7C8D29",
"k c #81932A",
"l c #869A2B",
"z c #899D2C",
"x c #8DA32D",
"c c #91A72E",
"v c #94AC2F",
"b c #8EA430",
"n c #91A731",
"m c #96AE30",
"M c #9BB433",
"N c #9FB933",
"B c #A2BC36",
"V c #A4BD38",
"C c #AABF3F",
"Z c #AFCE2B",
"A c #B2D22E",
"S c #A5C035",
"D c #ACC637",
"F c #ADCA33",
"G c #A6C038",
"H c #ABC53B",
"J c #ADC83B",
"K c #B1CE36",
"L c #B1CD3A",
"P c #B5D335",
"I c #B8D736",
"U c #BEDE36",
"Y c #B5D239",
"T c #B8D739",
"R c #BBDA38",
"E c #BFE037",
"W c #C0DF37",
"Q c #C0DF38",
"! c #C2E436",
"~ c #C6E936",
"^ c #C9EC35",
"/ c None",
/* pixels */
"////////////////////////////////////////////////////////////////",
"////////////////////////////////JJJ/////////////////////////////",
"//////////////////////////////CJJJJY!///////////////////////////",
"////////////////////////////CJLJJJJL!L/^////////////////////////",
"//////////////////////////CJJJJJJJJL!YJ!////////////////////////",
"/////////////////////////JJJJJJJJJJL^TY!JT^/////////////////////",
"////////////////Z//////HJJJJJJJJJJJJ~RT!LUY/////////////////////",
"////////////Z///Z////CJJJJJJLYTYLLJJR~!RUTJJJ///////////////////",
"////////////Z///Z//CJLJJJJJJLLYRE!RLT^~!RHJJJJ//////////////////",
"////////////ZZ//ZDHJRLJJJJJJJJJJJLT!E^^FMVHJJJJJ////////////////",
"/////////////Z/WAFJUQJJJJJJJJJJJHHGNSFBnbbnVHJJJJ///////////////",
"/////////////ZFRUFY~YJJJJJJJJJJJJHLHGGGGVVVVGHJJJJJ/////////////",
"/////////^^/HFZI!K!UJJJJJJJJJJJJJJTJJJJJJJJJJJJJJJJJJ///////////",
"//////////!~QYZA!U~YJJJJJJJJJJJJJLTJJJJJJJJJJJJJJJJJJJ//////////",
"/////////HJY!~~U!^RJJJJJJJJJJJJJJJTJJJJJJJHJJJJJJJJJJJJJ////////",
"///////CJJJJJFKU!PMMNVGHJJJJJJJJJYTJJJJJJJJJJJJJJJJJJJJJJ////^//",
"/////CHJJJJJJHVVHGVVVGGJJJJJJJJJJYTLLJJJJJJJJJJJJJJJJJJJJJJ/////",
"////CJJJJJJJJHJJJJJJJJJJJJJJJJJJJLRTLJTJJJJJJJJJJJJJJJJJJJJY!///",
"////mNHJJJJJJJJJJJJJJJJJJJJJJJJJJLRTLTYJJJJJJJJJJJJJJJJJJJJR!///",
"////vvMVJJJJJJJJJJJJJJJJJJJLJJJJJLURYTJJJJJJJJJJJJJJJJJJJJJLT///",
"////vmnvMDJJJJJJJJJJJJJJJJJTTJJJJLUURYHJJHJJHJJJJJJJJJJJJJHNM///",
"////5kvvvvBDJJJJJJJJJJJJJJJJRRJLLJQ!RJJJJJJJJJJJJJJJJJJJHBvvc///",
"////:-ixvvvMVJJJJJJJJJJJJJJJJREREYY!HGGHHJJJJJJJJJJJJJJBMvvj4///",
"////q9;1gcvvvMDJJJJJJHJJJJJJJHJJFFNNmMNBGJJJJJJJJJJJJVMvvl5XO///",
"////qqq6%4kvvvmBHJJJJJJJJJJJJHNMNVGGHJJJJJJJJJJJJHJDMvvxi# O;///",
"////qqqq0>-uxmvvMSJJJJJJJJJJJJJJJJJJJJJJJJJJJJJJJDBmvcs< O++-///",
"////qqqqqq8;<scvvmNGJJJJJJJJJJJJJJJJJJJJJJJJJJJHBmvvj2..++++;///",
"////qqqqqqe06%3kvvmmBHJJJJJJJJJJJJJJJJJJJJJJJJSMvvl4X.++++++=///",
"////qqqqqqqqq0>-yxmmvMGJJJJJJJJJJJJJJJJJJJJJSNmvxu# O+++++++;///",
"////qqqqqqqqqqq8=$acvvmNHJJJJJJJJJJJJJJJJJHNmvca<.o+++++++++;///",
"////eqqqqqqqqqqqq+@3jmvvmSJJJJJJJJJJJJJJJBmvvh1 ;:++++++++++;///",
"////8eqqqqqqqqqqq>6>&yxvvvMGJJJJJJJJJJHGMvvk3Xo*6>++++++++++;///",
"////O%9qqqqqqqqqq69q9=<pxvvmNHJJJJJJJGNmmzy@o===>>++++++++++=///",
"////96@%7qqqqqqqq67qqq6%2jvvmmSJJJJHNmvcp% +====6:++++++++++;///",
"////qqq7=67qqqqqq99qqqq0>#yzmvvNVGNmvcj2o*======6:++++++++++;///",
"////qqqqq76>0qqqq09qqqqqq0=<pxvmmmmvj4XO========6:++++++++++;///",
"////qqqqqqq9660qqq9qqqqqqqq6%2hcmmly#o==;=======,:++++++++++;///",
"////qqqqqqqqqq09qqqqqqqqqqqq0:%yli# +======;====9:++++++++++;///",
"////qqqqqqqqqqqqqqqqqqqqqqqqqq8=#X+=====;======6q:++++++++++;///",
"////qqqqqqqqqqqqqqqqqqqqqqqqqqqq:=============,08=++++++++++;///",
"////wqwqqqqqqqqqqqqqqqqqqqqqqqqq6=======>===>9e9;+++++++++++;///",
"////wwqqqqqqqqqqqqqqqqweqqqqqqqq6========*>8e096*+++++++++++;///",
"////qqqqqqqqqqqqqqqqqqqweq0qqqqq8=====**=8d06;67;+++++++++++;///",
"////qqqqqqwqqqqqqqqqqqqqwrw00qqq7==;=**,dd,===,6;++++++++++;7///",
"//////qqqqqqqqqqqqqqqqqqqqed060q7==**,dd,>===>,8;++++++++=,9////",
"////////qqqqqqqqqqqqqqqqqqqwdd696**>wd0,=;>;==,8++++++++;7//////",
"/////////qqqqqqqqqqqqqqqqqqqqdf0=*0dq,==>>=;>>,9;+++++;70///////",
"///////////qqqqqqqqqqqqqqqqqqqefdde,==>===;;==>9;+++->9/////////",
"/////////////qqqqqqqqqqqqqqqqqqqe8==;;;;;;;;;;>0;;O:9///////////",
"//////////////qqqqqqqqqqqqqqqqqq0=:::;;;;;;;;;>0;;,0////////////",
"////////////////qqqqqqqqqqqqqqqq0::==:;;;:;;;;;97q//////////////",
"/////////////////qqqqqqqqqqqqqqq0==:==;;;;;;;;,0////////////////",
"///////////////////qqqqqqqqqqqqq0:=:;;;;;;;;:79/////////////////",
"/////////////////////qqqqqqqqqqq0=:=;;;;;;;,9///////////////////",
"//////////////////////qqqqqqqqqq0===;:;;;:70////////////////////",
"////////////////////////qqqqqqqq06=:;;;;,9//////////////////////",
"//////////////////////////qqqqqq0==6&=66////////////////////////",
"///////////////////////////qqqqq96===60/////////////////////////",
"/////////////////////////////qqq9==69///////////////////////////",
"///////////////////////////////q967/////////////////////////////",
"////////////////////////////////00//////////////////////////////"
};
