/* XPM */
static char *result[] = {
/* columns rows colors chars-per-pixel */
"59 64 126 2 ",
"   c #362C1D",
".  c #3A2E1E",
"X  c #3A311F",
"o  c #3A2F20",
"O  c #3F3323",
"+  c #3F3822",
"@  c #413624",
"#  c #443926",
"$  c #483F27",
"%  c #463B28",
"&  c #4A3E2A",
"*  c #4B511E",
"=  c #4B4625",
"-  c #4D422B",
";  c #51452E",
":  c #53482F",
">  c #555925",
",  c #5A5A2D",
"<  c #4F4331",
"1  c #534731",
"2  c #554932",
"3  c #594D35",
"4  c #5B4E39",
"5  c #575030",
"6  c #5D5137",
"7  c #5E5A32",
"8  c #5F5338",
"9  c #615437",
"0  c #615F32",
"q  c #62553A",
"w  c #655A3B",
"e  c #6B5C3D",
"r  c #5B602A",
"t  c #60632F",
"y  c #647A21",
"u  c #6A7B2A",
"i  c #626231",
"p  c #676A35",
"a  c #6B6E36",
"s  c #6A643C",
"d  c #6E6B3C",
"f  c #706E3D",
"g  c #6A7133",
"h  c #6F7834",
"j  c #72753B",
"k  c #777C3D",
"l  c #787F3D",
"z  c #645642",
"x  c #6C5D42",
"c  c #6C5E49",
"v  c #6F6145",
"b  c #6E6944",
"n  c #6F604D",
"m  c #746444",
"M  c #786746",
"N  c #7B6946",
"B  c #72644B",
"V  c #7C6C4B",
"C  c #7B7342",
"Z  c #7E7B44",
"A  c #776751",
"S  c #7F6E52",
"D  c #7F7150",
"F  c #816F4A",
"G  c #847E46",
"H  c #85724C",
"J  c #88754D",
"K  c #8B7A4E",
"L  c #867454",
"P  c #897653",
"I  c #8C7952",
"U  c #8C7A5C",
"Y  c #917E54",
"T  c #907F61",
"R  c #6B8029",
"E  c #748A2E",
"W  c #7D952E",
"Q  c #778534",
"!  c #788537",
"~  c #778933",
"^  c #7B8D35",
"/  c #77813B",
"(  c #79843B",
")  c #7B883B",
"_  c #7C9333",
"`  c #7F9A33",
"'  c #7F9338",
"]  c #7C8240",
"[  c #828F3A",
"{  c #809636",
"}  c #839A36",
"|  c #87A332",
" . c #8BA537",
".. c #8DAA37",
"X. c #87A03A",
"o. c #8DA938",
"O. c #898247",
"+. c #848F42",
"@. c #8C8E45",
"#. c #89844A",
"$. c #878D4B",
"%. c #849042",
"&. c #8A9341",
"*. c #929A46",
"=. c #95924D",
"-. c #959C4A",
";. c #8C8454",
":. c #978255",
">. c #988356",
",. c #958C51",
"<. c #998955",
"1. c #95815A",
"2. c #9A845A",
"3. c #9E895F",
"4. c #9A9253",
"5. c #9C9B52",
"6. c #9C9258",
"7. c #9DA44F",
"8. c #9FA352",
"9. c #938162",
"0. c #9C8963",
"q. c #A28D65",
"w. c #A38F69",
"e. c #A59269",
"r. c #A9956E",
"t. c None",
/* pixels */
"t.t.t.t.t.t.t.t.t.t.t.t.t.t.t.t.t.t.t.t.t.t.t.t.t.t.t.t.t.t.t.t.t.t.t.t.t.t.t.t.t.t.t.t.t.t.t.t.t.t.t.t.t.t.t.t.t.t.t.",
"t.t.t.t.t.t.t.t.t.t.t.t.t.t.t.t.t.t.t.t.t.t.t.t.t.t.t.t.t.t.t.t.t.t.t.t.t.t.t.t.t.t.t.t.t.t.t.t.t.t.t.t.t.t.t.t.t.t.t.",
"t.t.t.t.t.t.t.t.t.t.t.t.t.t.t.t.t.t.t.t.t.t.t.t.t.t.t.t.Y Y 3.t.t.t.t.t.t.t.t.t.t.t.t.t.t.t.t.t.t.t.t.t.t.t.t.t.t.t.t.",
"t.t.t.t.t.t.t.t.t.t.t.t.t.t.t.t.t.t.t.t.t.t.t.t.t.t.2.2.3.Y Y 4.8.t.t.t.t.t.t.t.t.t.t.t.t.t.t.t.t.t.t.t.t.t.t.t.t.t.t.",
"t.t.t.t.t.t.t.t.t.t.t.t.t.t.t.t.t.t.t.t.t.t.t.t.2.2.>.>.>.Y Y 4.8.Y t.t.t.t.t.t.t.t.t.t.t.t.t.t.t.t.t.t.t.t.t.t.t.t.t.",
"t.t.t.t.t.t.t.t.t.t.t.t.t.t.t.t...t.t.t.t.t.q.Y Y >.Y >.Y <.Y 4.8.Y q.<.t.t.t.t.t.t.t.t.t.t.t.t.t.t.t.t.t.t.t.t.t.t.t.",
"t.t.t.t.t.t.t.t.t.t.t.t.t.t.t.t.....t.t.t.3.<.Y >.>.Y >.<.<.Y 8.5.Y Y <.Y q.t.t.t.t.t.t.t.t.t.t.t.t.t.t.t.t.t.t.t.t.t.",
"t.t.t.t.t.t.t.t.t.t.t.t.o.t.t.t.|  .7.<.3.Y Y <.>.>.>.>.Y Y Y 8.*.Y 3.Y Y Y q.t.t.t.t.t.t.t.t.t.t.t.t.t.t.t.t.t.t.t.t.",
"t.t.t.t.t.t.t.t.t.t.t.t.t.t...t.u } *.>.Y >.Y Y :.:.:.:.:.:.>.7.&.:.:.:.>.>.Y >.>.t.t.t.t.t.t.t.t.t.t.t.t.t.t.t.t.t.t.",
"t.t.t.t.t.t.t.t.t.t.t.t.t.t.t.&.y { X.Y >.>.<.>.:.:.:.:.:.:.>.7.[ :.:.:.>.>.>.>.>.2.t.t.t.t.t.t.t.t.t.t.t.t.t.t.t.t.t.",
"t.t.t.t.t.t.t.t.t.t.t.t.t.:.:.:.O.Q > e Y Y >.Y :.:.:.:.>.:.:.7.[ =.<.:.>.Y Y Y Y P t.t.t.t.t.t.t.t.t.t.t.t.t.t.t.t.t.",
"t.t.t.t.t.t.t.t.t.t.t.t.:.:.:.:.:.Y w . : K >.>.:.:.>.>.:.:.:.7.| *.:.:.>.2.3.L A n t.F J I t.t.t.t.t.t.t.t.t.t.t.t.t.",
"t.t.t.t.t.t.t.t.t.t.:.:.:.:.:.:.:.>.>.J : # N :.>.:.,.<.:.:.:.8.{ &.Y <.5.Y A n n x M H J J J P t.t.t.t.t.t.t.t.t.t.t.",
"t.t.t.t.t.t.t.t.:.:.:.:.:.:.:.:.:.:.:.>.:.N ; e =.5.<.:.:.:.:.8.| @.Y [ O.F c q x F J J J J J J K t.t.t.t.t.t.t.t.t.t.",
"t.t.t.t.t.t.:.:.:.:.:.:.:.:.:.:.:.:.:.:.:.>.Y e j -.4.<.:.:.2.6.} C C [ N z q F J J J J J J J J J J K t.t.t.t.t.t.t.t.",
"t.t.t.t.:.:.:.:.:.:.:.:.:.:.:.:.:.:.:.:.:.:.:.>.:.C O.>.2.2.2.6.[ u [ m 4 e J J J J J J J J J J J J J J K t.t.t.t.t.t.",
"t.t.t.:.:.:.:.:.:.:.:.:.:.:.:.:.:.:.:.>.:.:.:.:.:.2.J I 2.2.P F Q u p 9 F J J J H J J J J J J J J J J J J J t.t.t.t.t.",
"t.:.:.:.:.:.:.:.:.:.:.:.:.:.:.:.:.:.:.:.:.:.:.:.:.2.3.e.0.F S F C a M J J J J J J J J J J J J J J J J J J J J K t.t.t.",
":.:.:.:.:.:.:.>.>.:.:.:.:.:.:.:.:.:.:.:.:.:.:.:.2.q.r.9.S F P J J H F H J J J J J J J J J J J J J J J J J J J J J I t.",
"J I >.:.:.:.:.:.>.:.:.:.:.:.:.:.:.:.:.:.:.>.>.3.w.9.A N L H J J J J J J J J J J J J J J J J J J J J J J J J J J K F v ",
"8 q V :.>.:.:.:.:.:.:.2.>.:.:.>.:.:.>.Y :.3.q.U M m H J J J J J J J J J H M F J J J J J J J J J J J J J J J J J M ; # ",
"6 6 6 x P :.:.:.:.:.:.:.1.:.:.:.:.:.:.2.3.U B v F J H J J J J J J J J J J H e m H J J J J J J J J J J J J P F 4 @ . @ ",
"6 6 6 6 8 B Y 2.>.:.:.:.:.:.>.:.:.2.2.U c w N J J J J J J J J J J J J J J J J e 9 N J J J J J J J J J J I e # . . . @ ",
"6 6 6 6 6 6 z F 1.>.:.:.:.:.>.>.2.P x 9 m H J J H J J J J J J J J J J J J J J J d 5 e H J J J J J J J H e o . . . . @ ",
"6 6 6 6 6 6 6 6 v P 2.:.>.>.1.L c 3 e F J J J J J J J J J J J J J J J J J J J J J F 2 2 N J K K I J e & . . . . . . @ ",
"6 6 6 6 6 6 6 6 6 q V 1.2.L z 2 9 F J J J J J J J J J J J J J H J J J J J J J J J J H 9 & e O.F e & . . . . . . . . O ",
"6 6 6 6 4 6 6 4 6 6 5 s v < 3 M J J J J J J J J J J J J J J J J J J J H J J J J J J J J e 5 f # . . . . . . . . . . @ ",
"6 6 8 7 i i i t 0 w i , O O N J J J J J J J J J J J J J J J J J J J J J J J J J J J I U M a 3 $ = . . . . . . . . . @ ",
"6 7 7 t h ! ' ` _ E ^ E * + 8 m F I J J J J J J H J J J J J J J J J J J J J J J J Y H 2 $ j 0 t @ . . . . . . . . . @ ",
"6 6 6 6 8 8 w s j k ! E y r 6 6 q N P J J J J J J J J J J J J J J J J J J J J K L 8 @ @ = ( j @ . . . . . . . . . . @ ",
"6 6 6 6 6 6 6 6 4 6 g E E , 3 6 4 6 x H I J J J J J J J J H J J J J J J J I Y M & @ o @ = [ 5 . . . . . . . . . . . @ ",
"6 6 6 6 6 6 6 6 6 l X._ ! = 5 6 9 6 4 q M P I J J J J J J J J J H J H I q.P ; @ o @ @ @ @ & ; . . . . . . . . . . . @ ",
"6 6 6 6 6 6 6 6 7 d / %.7 O 3 6 6 6 6 6 6 e L I I J J J J J J J J J 2.0.n @ @ @ O O @ O O @ 1 . . . . . . . . . . . @ ",
"q 8 6 6 6 6 6 6 6 s %.w 3 + 3 6 6 6 6 6 6 3 9 M I Y P H J J J I 3.q.S & @ @ @ o O O O O @ @ & . . . . . . . . . . . @ ",
"X ; 8 8 6 6 6 4 w +.s 4 4 # 3 6 6 6 6 6 6 6 6 4 q F 0.Y J J Y r.U 1 o o @ o @ o O O O O O @ & . . . . . . . . . . . % ",
"# X O ; 6 6 7 8 ] d 6 6 6 $ 3 6 6 6 6 6 6 6 6 6 9 4 x Y e.r.T 4 @ @ @ @ @ @ @ @ O O O O O @ 1 . . . . . . . . . . . @ ",
"8 3 - O O ; 7 b Z 6 6 6 6 - 3 6 6 6 6 6 6 6 6 6 4 9 4 9 A q @ @ O @ @ . o o @ @ . @ @ @ O # ; . . . . . . . . . . . @ ",
"7 6 8 8 : - % p 8 6 6 6 6 ; 3 6 6 6 6 6 6 6 6 6 9 4 6 6 2 @ @ @ O o @ @ @ @ o @ @ . . @ O & & . . . . . . . . . . . @ ",
"6 6 6 6 6 6 6 2 - 2 6 6 6 3 3 6 6 6 6 6 6 6 6 6 6 6 6 6 2 @ @ o O O @ . @ . @ @ @ @ @ O O # & . . . . . . . . . . . @ ",
"6 6 6 6 6 6 8 7 6 : : 6 6 6 3 6 6 6 6 6 6 6 6 6 6 6 6 6 2 @ @ @ O @ @ . @ @ @ o @ @ . @ O & ; . . . . . . . . . . . % ",
"6 6 6 6 6 6 6 6 6 6 4 4 6 q q 6 6 6 6 6 6 6 6 6 6 6 6 6 3 # @ @ O O O O O O O O O @ O O @ 3 & . . . . . . . . . . . @ ",
"6 6 6 6 6 6 6 6 6 6 6 6 6 6 6 6 6 6 6 6 6 6 6 6 6 6 6 6 2 # o @ O O O O O O O O O O O O ; 9 & . . . . . . . . . . . @ ",
"6 6 6 6 6 6 6 6 6 6 6 6 6 6 6 6 6 6 6 6 6 6 6 6 6 6 6 6 4 # @ @ O O O O @ O @ @ @ . % 4 9 & . . . . . . . . . . . . & ",
"6 6 6 6 6 6 6 6 6 6 6 8 6 6 6 6 6 6 q 6 6 6 6 6 6 6 6 6 2 # @ o O @ O O O @ . . @ 4 q 4 ; O . . . . . . . . . . . . & ",
"6 6 6 6 6 6 6 6 6 6 6 6 6 6 6 6 6 6 6 q q 4 6 6 6 6 6 6 3 @ @ O O O @ O O o @ 4 z 4 & & & @ . . . . . . . . . . . . & ",
"t.6 6 6 6 6 6 6 6 6 6 6 6 6 6 6 6 6 6 6 q q 3 3 4 9 6 6 3 # o O O O @ @ @ & z q & @ @ & ; @ . . . . . . . . . . . . & ",
"t.t.6 6 6 6 6 6 6 6 6 6 6 6 6 6 6 6 6 6 6 9 e 9 2 2 4 4 3 # O O O o o & z z & @ @ @ @ & ; @ . . . . . . . . . . O & 9 ",
"t.t.t.t.6 6 6 6 6 6 6 6 6 6 6 6 6 6 6 6 6 6 6 q e 2 ; 4 4 @ @ o o & z z 4 @ @ % @ @ @ & 1 & . . . . . . . . . & 3 t.t.",
"t.t.t.t.t.6 6 6 6 6 6 6 6 6 6 6 6 6 6 6 6 6 6 6 q m z & & O o @ q x 2 # @ @ @ @ @ @ @ @ 1 # . . . . . . @ @ ; t.t.t.t.",
"t.t.t.t.t.t.t.6 6 6 6 6 6 6 6 6 6 6 6 6 6 6 8 6 6 6 x m 3 @ 3 c 4 $ @ @ @ @ @ @ @ @ @ & 2 # . . . . . @ & 9 t.t.t.t.t.",
"t.t.t.t.t.t.t.t.t.6 6 6 6 6 6 6 6 6 6 6 6 6 6 6 6 6 6 q m v q & @ @ @ @ @ @ @ @ @ @ @ @ 2 & . . . O & 3 t.t.t.t.t.t.t.",
"t.t.t.t.t.t.t.t.t.t.6 6 6 6 6 6 6 6 6 6 6 6 6 6 6 6 6 6 6 1 @ @ @ @ @ @ @ @ @ @ @ @ @ @ 3 # @ . # 3 t.t.t.t.t.t.t.t.t.",
"t.t.t.t.t.t.t.t.t.t.t.t.6 6 6 6 6 6 6 6 6 6 6 6 6 6 6 6 6 - @ @ @ @ @ @ @ @ @ @ @ @ @ @ 2 & & : 6 t.t.t.t.t.t.t.t.t.t.",
"t.t.t.t.t.t.t.t.t.t.t.t.t.6 6 8 6 6 6 6 6 6 6 6 6 6 6 6 6 - @ @ @ @ @ @ @ @ @ @ @ @ @ @ 2 : 2 t.t.t.t.t.t.t.t.t.t.t.t.",
"t.t.t.t.t.t.t.t.t.t.t.t.t.t.t.6 6 6 6 6 6 6 6 6 6 6 6 6 4 & @ @ @ @ @ @ @ @ @ @ @ @ @ & 3 t.t.t.t.t.t.t.t.t.t.t.t.t.t.",
"t.t.t.t.t.t.t.t.t.t.t.t.t.t.t.t.t.6 6 6 6 6 6 6 6 6 6 6 6 - @ @ @ @ @ @ @ @ @ @ @ @ ; 2 t.t.t.t.t.t.t.t.t.t.t.t.t.t.t.",
"t.t.t.t.t.t.t.t.t.t.t.t.t.t.t.t.t.t.6 6 6 6 6 6 6 6 6 6 6 - @ @ @ @ @ @ @ @ @ @ & 2 t.t.t.t.t.t.t.t.t.t.t.t.t.t.t.t.t.",
"t.t.t.t.t.t.t.t.t.t.t.t.t.t.t.t.t.t.t.t.6 6 6 6 6 6 6 6 6 - @ @ @ @ @ @ @ @ # ; t.t.t.t.t.t.t.t.t.t.t.t.t.t.t.t.t.t.t.",
"t.t.t.t.t.t.t.t.t.t.t.t.t.t.t.t.t.t.t.t.t.6 6 6 6 6 6 6 6 - @ @ @ @ @ @ # - 2 t.t.t.t.t.t.t.t.t.t.t.t.t.t.t.t.t.t.t.t.",
"t.t.t.t.t.t.t.t.t.t.t.t.t.t.t.t.t.t.t.t.t.t.t.6 6 6 6 6 3 - @ @ @ @ @ # 1 t.t.t.t.t.t.t.t.t.t.t.t.t.t.t.t.t.t.t.t.t.t.",
"t.t.t.t.t.t.t.t.t.t.t.t.t.t.t.t.t.t.t.t.t.t.t.t.t.6 6 6 6 - O @ @ # - 3 t.t.t.t.t.t.t.t.t.t.t.t.t.t.t.t.t.t.t.t.t.t.t.",
"t.t.t.t.t.t.t.t.t.t.t.t.t.t.t.t.t.t.t.t.t.t.t.t.t.t.6 6 6 - @ @ & 2 t.t.t.t.t.t.t.t.t.t.t.t.t.t.t.t.t.t.t.t.t.t.t.t.t.",
"t.t.t.t.t.t.t.t.t.t.t.t.t.t.t.t.t.t.t.t.t.t.t.t.t.t.t.t.6 - % ; t.t.t.t.t.t.t.t.t.t.t.t.t.t.t.t.t.t.t.t.t.t.t.t.t.t.t.",
"t.t.t.t.t.t.t.t.t.t.t.t.t.t.t.t.t.t.t.t.t.t.t.t.t.t.t.t.t.; 2 t.t.t.t.t.t.t.t.t.t.t.t.t.t.t.t.t.t.t.t.t.t.t.t.t.t.t.t."
};
