/* XPM */
static char *result[] = {
/* columns rows colors chars-per-pixel */
"60 64 66 1 ",
"  c #2E2617",
". c #352D1C",
"X c #3A2E1E",
"o c #3B301F",
"O c #3A2F20",
"+ c #3F3323",
"@ c #413624",
"# c #443926",
"$ c #483D26",
"% c #463B28",
"& c #493E29",
"* c #4D422C",
"= c #52462F",
"- c #54482F",
"; c #4E4331",
": c #524731",
"> c #564A32",
", c #594D34",
"< c #574B38",
"1 c #5A4D38",
"2 c #5D5137",
"3 c #5F5238",
"4 c #605237",
"5 c #62553A",
"6 c #66583D",
"7 c #6B5C3D",
"8 c #70603F",
"9 c #645642",
"0 c #675944",
"q c #6C5D43",
"w c #6C5E49",
"e c #6F6044",
"r c #6F604C",
"t c #736444",
"y c #786744",
"u c #7B6A46",
"i c #73634B",
"p c #77684D",
"a c #7E6C4A",
"s c #766650",
"d c #7C6B51",
"f c #816F4A",
"g c #85724C",
"h c #88754D",
"j c #8C784F",
"k c #816F53",
"l c #857454",
"z c #897752",
"x c #8D7A53",
"c c #897758",
"v c #8C7A5B",
"b c #927E55",
"n c #927F59",
"m c #8F7E61",
"M c #978255",
"N c #988356",
"B c #958159",
"V c #9A8459",
"C c #9E895F",
"Z c #938161",
"A c #9E8A63",
"S c #A18D65",
"D c #A38F69",
"F c #A6936D",
"G c #A9956C",
"H c None",
/* pixels */
"HHHHHHHHHHHHHHHHHHHHHHHHHHHHHNNHHHHHHHHHHHHHHHHHHHHHHHHHHHHH",
"HHHHHHHHHHHHHHHHHHHHHHHHHHHNMMMNVHHHHHHHHHHHHHHHHHHHHHHHHHHH",
"HHHHHHHHHHHHHHHHHHHHHHHHHNNNMMMMMNHHHHHHHHHHHHHHHHHHHHHHHHHH",
"HHHHHHHHHHHHHHHHHHHHHHHHNNNNMMMMMMNNHHHHHHHHHHHHHHHHHHHHHHHH",
"HHHHHHHHHHHHHHHHHHHHHHNMMMMMMMMNMMMMNVHHHHHHHHHHHHHHHHHHHHHH",
"HHHHHHHHHHHHHHHHHHHHVNMMMMMMMMMMMMMMMMNHHHHHHHHHHHHHHHHHHHHH",
"HHHHHHHHHHHHHHHHHHVNNNMMMMMMMMMMMMMMMMMVVHHHHHHHHHHHHHHHHHHH",
"HHHHHHHHHHHHHHHH.,bNMNMMMMMMMMMMMMMMMMMMMNHHHHHHHHHHHHHHHHHH",
"HHHHHHHHHHHHHHHh= $fNMMMMMMMMMMMMMMMMMMNMVndHHHHHHHHHHHHHHHH",
"HHHHHHHHHHHHHMNNb8@o8MNMMMMMMMMMMMMMNNMNnlswigHHHHHHHHHHHHHH",
"HHHHHHHHHHHMMMMMMNx5o,jNMMMMMMMMMMMMnNnlsrwqfhhHHHHHHHHHHHHH",
"HHHHHHHHHMMMMMMMMMNNg-*uNMMMMMMMMMMNNcsiw0tghhhhhHHHHHHHHHHH",
"HHHHHHHMMMMMMMMMMMMMNMy-8MMMMMMMMNNndiw9qahhghhhhhxHHHHHHHHH",
"HHHHHHMMMMMMMMMMMMMMNNVb86hMMMMNVnkiw95tghhhhhhhhhhhHHHHHHHH",
"HHHHMMMMNMMMMMMMMMMMMMMNNj8hVVCVlpr017fhhhhhhhhhhhhhhxHHHHHH",
"HHMMMMMMMMMMMMMMMMMMMMNNNNNbBVvdi9<1uzhhhhhhhhhhhhhhhhhhHHHH",
"MMMMMMMNMMMMMMMMMMMMMMMMMNCGFdaag77ghhhhhghhhhhhhhhhhhhhhHHH",
"MNMMMMMNMMMMMMMMMMMMMMMMNSFZdghhhhhfhhhhhhhhhhhhhhhhhhhhhhjH",
"uhNNMMMMMMMMMMMMMMMMMMMCSZpughhhhhhhhghhhhhhhhhhhhhhhhhhhhy5",
"22txNMMMMMMMVMMMMMMMMCAZptfhhhhhhhhhhfyfhhhhhhhhhhhhhhhhh7%#",
"2223abVNMMMMMMMMNNNVCZreahhhhhhhhhhhhhf7thhhhhhhhhhhhhhy=XX@",
"222220lVMBMMMMMMNVVce3yahghhhhhhhhhhhhhf74fhhhhhhhhhhz,+XXX@",
"2222223yBBMMMMNBBce28ghhhhhhhhhhhhhhhhhhh7-7ghhhhhhza1XXXXX@",
"22222222eaVVMMBl0<7ajhhhhhhhhhhhhhhhhhhhhhf->fhhhha5@XXXXXX@",
"2222222223evCle>3ujhhhghhhhhhhhhhhhhhhhhhhhf1&qfy4@XXXXXXXX@",
"222222222226e;:thhhhhhjghhhhhhhghhhhhhhhhhhhh4&1@XXXXXXXXXX@",
"222222222222#.ezhhhhhhhhhhhhhhhhhhhhhhhhhhhbx4&&XXXXXXXXXXX@",
"222222222222*.,7ahhhhhhghhhhhhhhhghhhhhghjbi&@%&XXXXXXXXXXX@",
"222222222222=.,23thjhhhhghhhhhhhhhhhhhhhnk&@@O&&XXXXXXXXXXX#",
"222222222222>.>2326axhhghhhhhhhhhhhhhhbj5@@@@@&&XXXXXXXXXXX@",
"222222222222,.>22222ezxhhgghghhhhhhhxSu&@O@O@X&&XXXXXXXXXXX#",
"2222222222222+>2222223aBMghhhhhhhhxSm5@@O@@@@O$$XXXXXXXXXXX@",
"5222222222222+>22222222egBzhhhhgjSSw@@@O++++++&&XXX+XXXXXXX@",
"o-55222222222*-2222222,23pBVjgzSDk%O@@@@++++++&&XXXXXXXXXXX@",
"$.o-222222222*-222222222226lSSFc>O@@X@O@+@+++X&&XXXXXXXXXXX@",
"2,*o@,2222222->2222222222212tl,@@@@O@@X@++++++&&XXXXXXXXXXX@",
"2222=@$-22222>-22222222222222*+++@++@@O@++++++&&XXXXXXXXXXX#",
"222222>**>222,>22222222222221*++++++X@@O++@+++&&XXXXXXXXXXX@",
"22222222,>>232,22222222222221=++++++@OO@++++@X=&XXXXXXXXXXX#",
"22222222222>23322222222222225&+@++@@O@O@++@+@@>&XXXXXXXXXXX#",
"22222222222223322222222222222*+++@++++++++++@=4&XXXXXXXXXXX#",
"22222222222222222233222222222;+++++++@+++++#>4&XXXXXXXXXXXX#",
"22222222222222222223222222222*@++@++++++X@:94=XXXXXXXXXXXXX#",
"22222222222222222223322222222*+@+++++@X@:55&=&+XXXXXXXXXXXX&",
"2222222222222222222236,,22222*++++++O+&59=#@&=@XXXXXXXXXXXX&",
"222222222222222222223363>,222*++++++&101#@@@&=XXXXXXXXXXXX#1",
"H222222222222232222222366::12*+++O%1w1&@@@@@&=@XXXXXXXXX@&4H",
"HHH2222222222222222222226t2*>*+.+1w1&@@@@@@@&1@XXXXXXXX&4HHH",
"HHHHH332222222222222222223tq:+.:q6;@+@@@@@@@$>@XXXXXX#-HHHHH",
"HHHHHH2222222222222222222227i66q:@@@@@@@@@@@$>@XXXX#=4HHHHHH",
"HHHHHHHH2332222222222222222257>#@@@@@@@@@@@@$,@oXX&,HHHHHHHH",
"HHHHHHHHHH2222222222222222222>##@@@@@@@@@@@@$,@@$4HHHHHHHHHH",
"HHHHHHHHHHH322222222222222222,#+@@@@@@@@@@@@#,$>,HHHHHHHHHHH",
"HHHHHHHHHHHHH3222222222222222>#+@@@@@@@@@@@@#1,HHHHHHHHHHHHH",
"HHHHHHHHHHHHHH222222222222222>##@@@@@@@@@#@%:HHHHHHHHHHHHHHH",
"HHHHHHHHHHHHHHHH2222222222222>#++@@@@@@@@#&,HHHHHHHHHHHHHHHH",
"HHHHHHHHHHHHHHHHHH22222222222>#+@@@@@@@@&>HHHHHHHHHHHHHHHHHH",
"HHHHHHHHHHHHHHHHHHH2222222222,##@@@@@@#;1HHHHHHHHHHHHHHHHHHH",
"HHHHHHHHHHHHHHHHHHHHH22222222,#+@@@@@*>HHHHHHHHHHHHHHHHHHHHH",
"HHHHHHHHHHHHHHHHHHHHHHH222222,#@@@@%:HHHHHHHHHHHHHHHHHHHHHHH",
"HHHHHHHHHHHHHHHHHHHHHHHH22222,#@@#*,HHHHHHHHHHHHHHHHHHHHHHHH",
"HHHHHHHHHHHHHHHHHHHHHHHHHH222>@@&:HHHHHHHHHHHHHHHHHHHHHHHHHH",
"HHHHHHHHHHHHHHHHHHHHHHHHHHHH2,%=HHHHHHHHHHHHHHHHHHHHHHHHHHHH",
"HHHHHHHHHHHHHHHHHHHHHHHHHHHHH,>HHHHHHHHHHHHHHHHHHHHHHHHHHHHH"
};
