/* XPM */
static char *result[] = {
/* columns rows colors chars-per-pixel */
"53 64 57 1 ",
"  c #473626",
". c #483726",
"X c #493827",
"o c #4C3B29",
"O c #503F2D",
"+ c #54422D",
"@ c #58462F",
"# c #544130",
"$ c #594730",
"% c #5D4B32",
"& c #614E34",
"* c #645136",
"= c #67543F",
"- c #68543F",
"; c #6D5A3B",
": c #725E3E",
"> c #74613F",
", c #6A5640",
"< c #6E5A42",
"1 c #715D44",
"2 c #766244",
"3 c #7A6642",
"4 c #7E6A44",
"5 c #796549",
"6 c #7D694E",
"7 c #806C46",
"8 c #836E49",
"9 c #86714B",
"0 c #89754E",
"q c #877254",
"w c #8B7651",
"e c #8E7953",
"r c #917C56",
"t c #937F58",
"y c #96815B",
"u c #9B855D",
"i c #9E885F",
"p c #9B8762",
"a c #9E8962",
"s c #A18C65",
"d c #A38F68",
"f c #A6916B",
"g c #A9946D",
"h c #A79271",
"j c #AB9670",
"k c #AE9972",
"l c #B29D76",
"z c #B49F78",
"x c #B6A17A",
"c c #B9A47E",
"v c #BCA780",
"b c #BEA982",
"n c #C2AD86",
"m c #C4AF88",
"M c #C6B18A",
"N c #C9B48D",
"B c None",
/* pixels */
"BBBBBBBBBBBBBBBBBBBBBBBBBBBBBBBBBNBBBBBBBBBBBBBBBBBBB",
"BBBBBBBBBBBBBBBBBBBBBBBBBBBBBBBNNNNBBBBBBBBBBBBBBBBBB",
"BBBBBBBBBBBBBBBBBBBBBBBBBBBBBBNNNNNNNBBBBBBBBBBBBBBBB",
"BBBBBBBBBBBBBBBBBBBBBBBBBBBBNNNNNNNNNNBBBBBBBBBBBBBBB",
"BBBBBBBBBBBBBBBBBBBBBBBBBBNNNNNNNNNNNmjBBBBBBBBBBBBBB",
"BBBBBBBBBBBBBBBBBBBBBBBBBNNNNNNNNNNNxt8BBBBBBBBBBBBBB",
"BBBBBBBBBBBBBBBBBBBBBBBNNNNNNNMNNNba844BBBBBBBBBBBBBB",
"BBBBBBBBBBBBBBBBBBBBBNNNNNNNNNNNmg04444BBBBBBBBBBBBBB",
"BBBBBBBBBBBBBBBBBBBBNNNNNNNNNNMlr7448tBBBBBBBBBBBBBBB",
"BBBBBBBBBBBBBBBBBBNNNNNNNNNNNbp9444ekMNBBBBBBBBBBBBBB",
"BBBBBBBBBBBBBBBBNNNNNNNNNNNnf04449sbNNNNBBBBBBBBBBBBB",
"BBBBBBBBBBBBBBBNNNNNNNNNNMxe4449ycNNNNNNNNBBBBBBBBBBB",
"BBBBBBBBBBBBBNNNNNNNNNNNbu4444wkMNNNNNNNNnfBBBBBBBBBB",
"BBBBBBBBBBBNNNNNNNNNNNMf94449fnNNNNNNNNNle7BBBBBBBBBB",
"BBBBBBBBBBNNNNNNNNNNMke4449ybNNNNNNNNNcy844BBBBBBBBBB",
"BBBBBBBBNNNNNNNNNNNcp4444ekNNNNNNNNNnd94444BBBBBBBBBB",
"BBBBBBNNNNNNNNNNNns877>0fnNNNNNNNNMke44474BBBBBBBBBBB",
"BBBBBNNNMNNNNNNMke7477ivNNNNNNNNNcy4444elMBBBBBBBBBBB",
"BBBNNNNNNNNNNNxt7447rlMNNNNNNNNbs94440fnNNNBBBBBBBBBB",
"BNNNNNNNNNNNns87779gmNNNNNNNNMjw4448pvNNNNNNBBBBBBBBB",
"lmNNNNNNNNMkw7779icNNNNNNNNNxy4444rzMNNNNNNNNBBBBBBBB",
"ifnNNNNNNxt77>7rzNNNNNNNNNbs94440fmNNNNNNNNnfwBBBBBBB",
"uuixMNNbs87740gMNNNNNNNNMgw4448ibNNNNNNNNMlr74BBBBBBB",
"ruuugbg0>778ivNNNNNNNNNzy4444rxMNNNNNNNNvu8444BBBBBBB",
":8uuut8737tzNNNNNNNNNba84440gMNNNNNNNNMf94444BBBBBBBB",
"==5rur770jMNNNNNNNNmg04749abNNNNNNNNMke4448yxBBBBBBBB",
"---1qe8snNNNNNNNNNzr7447txNNNNNNNNNvy9444ekMNNBBBBBBB",
"----7fcNNNNNNNNNca7744wgMNNNNNNNNnf94449dnNNNNNNBBBBB",
"--=1hNNNNNNNNNng07448snNNNNNNNNNke4444pcNNNNNNNNNBBBB",
"--=1uknNNNNNMle7477yxNNNNNNNNNcy4444ekMNNMNNNNNNNNBBB",
"=-=1tuscMNNvi8774wkMNNNNNNNNnf94449fmNNNNNNNNNNNNNNNB",
"=--<riiikbf077>9snNNNNNNNNMke4449pbNNNNNNNNNNNNNNNNnf",
"====1etsir4447ycNNNNNNNNNcy8444rkNNNNNNNNNNNNNNNNMke8",
"=,=,,,8tiw47wlMNNNNNNNNns94440fnNNNNNNNNNNNNNNNNbu944",
",===,,,1w09fnNNNNNNNNMke4448uvNMNNNNNNNNNNNNNNbf04444",
"==,,,,,,qgcNNNNNNNNNcy7444rzMNNNNNNNNNNNNNNNMxy4444>B",
",=,=--;pmNNNNNNNNNnd9444wfMNNNNNNNNNNNNNNNNbi9444>%XB",
"====--1snNNNNNNNMjw4448pbNNNNNNNNNNNNNNNNbj04443*o  B",
"=,=,--1tilmNNNNcu4444yxNNNNNNNNNNNNNNNNMxy4444;+    B",
"====--1tuidnNNg9444wjnNNNNNNNNNNNNNNNNba9444:@X     B",
"=,,===,7yuusfr7749abNNNNNNNNNNNNNNNNMjw4442&o       B",
"=====,,,2ruuw777yxNNNNNNNNNNNNNNNNNxy4444;+         B",
"====,,,,=1iir70gMNNNNNNNNNNNNNNNNba9444;+       X   B",
",==,,,&,1fNxusnNMNNNNNNNNNNNNNNMke4442%X            B",
"====,,,=1gmNMNNNMNNNNNNNNNNNNNbu4443*+              B",
"=,==&,==1yscMNNNNNNNNNNNNNNNmj0444;+              BBB",
"=,=,====<yuukMNNNNNNNNNNNNNzt7742$               BBBB",
"====,==,-5ruufbNNNNNNNNNNva8473&+              BBBBBB",
"====,==,==,qtpslMNNNNNNmg0474;O              BBBBBBBB",
",==,====,==,8titfnNNNMzu874:@               BBBBBBBBB",
"====,=,==,=,,1rtuizmxu7743&X        X     BBBBBBBBBBB",
"B=,====,====--<wuuuu9773*o              BBBBBBBBBBBBB",
"BBB,,,,,-------,5tuw44;+           X  BBBBBBBBBBBBBBB",
"BBBB,,,,--------,1ew2%X       X     XBBBBBBBBBBBBBBBB",
"BBBBBB,,---------=,*o              BBBBBBBBBBBBBBBBBB",
"BBBBBBB,-------,-=,O             BBBBBBBBBBBBBBBBBBBB",
"BBBBBBBB-,---------O            BBBBBBBBBBBBBBBBBBBBB",
"BBBBBBBBBB--------=O       X  BBBBBBBBBBBBBBBBBBBBBBB",
"BBBBBBBBBBB--,----=O        BBBBBBBBBBBBBBBBBBBBBBBBB",
"BBBBBBBBBBBBB-----=O       BBBBBBBBBBBBBBBBBBBBBBBBBB",
"BBBBBBBBBBBBBB----=O     BBBBBBBBBBBBBBBBBBBBBBBBBBBB",
"BBBBBBBBBBBBBBBB--=O   BBBBBBBBBBBBBBBBBBBBBBBBBBBBBB",
"BBBBBBBBBBBBBBBBB-=+  BBBBBBBBBBBBBBBBBBBBBBBBBBBBBBB",
"BBBBBBBBBBBBBBBBBB=#BBBBBBBBBBBBBBBBBBBBBBBBBBBBBBBBB"
};
