/* XPM */
static char *result[] = {
/* columns rows colors chars-per-pixel */
"59 64 77 1 ",
"  c #352C1C",
". c #392F1E",
"X c #3A301F",
"o c #3D3321",
"O c #433724",
"+ c #453926",
"@ c #483C27",
"# c #463C28",
"$ c #493D29",
"% c #4D422C",
"& c #51452E",
"* c #534730",
"= c #554931",
"- c #5A4E35",
"; c #5D5137",
": c #5E5239",
"> c #605237",
", c #62553A",
"< c #66593D",
"1 c #695B3E",
"2 c #6B5D41",
"3 c #705F41",
"4 c #6F6144",
"5 c #736445",
"6 c #786747",
"7 c #796847",
"8 c #746549",
"9 c #77694C",
"0 c #7C6C4B",
"q c #7D6F51",
"w c #7E7051",
"e c #816F4C",
"r c #85724E",
"t c #837454",
"y c #897652",
"u c #8D7954",
"i c #867758",
"p c #877858",
"a c #8B7C5C",
"s c #917D56",
"d c #937E58",
"f c #96815A",
"g c #9B855C",
"h c #9E885F",
"j c #948362",
"k c #988766",
"l c #978865",
"z c #9D8963",
"x c #9E8D6A",
"c c #A28C63",
"v c #A28E6B",
"b c #A59066",
"n c #A5916B",
"m c #AB956B",
"M c #A89772",
"N c #AC9A75",
"B c #AF9E78",
"V c #B29C72",
"C c #B7A176",
"Z c #B5A37D",
"A c #B8A67F",
"S c #BDAB83",
"D c #C2AC81",
"F c #C7B185",
"G c #CAB68C",
"H c #CEB88C",
"J c #CFBB90",
"K c #D3BE93",
"L c #D4C095",
"P c #DBC69B",
"I c #DFC99B",
"U c #E4CFA1",
"Y c #E5D0A3",
"T c #EBD4A6",
"R c #EED7A9",
"E c #F2DCAD",
"W c None",
/* pixels */
"WWWWWWWWWWWWWWWWWWWWWWWWWWWWggWWWWWWWWWWWWWWWWWWWWWWWWWWWWW",
"WWWWWWWWWWWWWWWWWWWWWWWWWWggggggWWWWWWWWWWWWWWWWWWWWWWWWWWW",
"WWWWWWWWWWWWWWWWWWWWWWWWgggggggggWWWWWWWWWWWWWWWWWWWWWWWWWW",
"WWWWWWWWWWWWWWWWWWWWWWhggggggggggggWWWWWWWWWWWWWWWWWWWWWWWW",
"WWWWWWWWWWWWWWWWWWWWWggggggggggggggggWWWWWWWWWWWWWWWWWWWWWW",
"WWWWWWWWWWWWWWWWWWWW&yggggggggggggggggWWWWWWWWWWWWWWWWWWWWW",
"WWWWWWWWWWWWWWWWWggr%O0gggggggggggggggggWWWWWWWWWWWWWWWWWWW",
"WWWWWWWWWWWWWWWWggggf>X3ggggggggggggggggf0WWWWWWWWWWWWWWWWW",
"WWWWWWWWWWWWWWWWgggggg7%>fgggggggggggggp<OXWWWWWWWWWWWWWWWW",
"WWWWWWWWWWWWgggggggggggu--uggggggggggs6%X&6fgWWWWWWWWWWWWWW",
"WWWWWWWWWWggggggggggggggg6-rgggggghfe-@-rggggggWWWWWWWWWWWW",
"WWWWWWWWggggggggggggggggggy17fggggu1-1ygggggggggWWWWWWWWWWW",
"WWWWWWgggggggggggggggggggggg77fgf047sgggggggggggggWWWWWWWWW",
"WWWWWgggggggggggggggggggggggguey6rfgggggggggggggggggWWWWWWW",
"WWWggggggggggggggggggggggggggfresggggggggggggggggggggWWWWWW",
"WgggggggggggggggggggggggggggfyugggfggggggggggggggggggggWWWW",
"gggggggggggggggggggggggggggfufggggsygggggggggggggggggggggWW",
"fggggggggggggggggggggggggfufgggggggyesggggggggggggggggggggW",
"1rgggggggggggggggggggggguufgggggggggs6edggggggggggggggggd6-",
";:5sggggggggggggggggggfffggggggggggggge3uggggggggggggggt-@$",
";;;,0ggggggggggggggge7fggggggggggggggggr26sggggggggggd2$OO@",
";;;;;1yggggggggggg0>3fggggggggggggggggghu3<eggggggzg6*OOOO@",
";;;;;;,6fggggggge--rgggggggggggggggggggggd6>3uggzzp-+OOOOO@",
";;;;;;;;1rfgggr;%6gggggggggggggggggggggggggy,>0zf2$OOOOOOO@",
";;;;;;;;;;5ut-X,uggggggggggggggggggggggggggdd3;a,OOOOOOOOO@",
";;;;;;;;;;;,o%rggggggggggggggggggggggggggggccr-t-OOOO+OOOO@",
";;;;;;;;;;;-X4zhggggggggggggggggggggggggdcna2O$t-OOOOOOOOO@",
";;;;;;;;;;;-o-0ncgggggggggggggggggggggggcv8$OO$t-OOOOOOOOO@",
";;;;;;;;;;;-X-;4mChggggggggggggggggggghbi*OOOO+q-OOOOOOOOO@",
";;;;;;;;;;;=o;;;1bGVhggggggggggggggggbj,+OOOOOO9-OOOOOOOOO@",
";;;;;;;;;;;-+;;;;;pHHbgggggggggggggbv3$OOOOOOOO8=OOOOOOOOO$",
";;;;;;;;;;;*+;;;;;;4SUDcgggggggggcnt*OOOOOOOOOo3-OOOOOOOOO$",
";;;;;;;;;;;&%;;;;;:-<xUIVggggggzmd:OOOOOOOOOOOX2-OOO+OOO+#=",
";;;;;;;;;;:=%;;;;;;;;;tLEKmzggmv3$OOOOOOOOOOOO 2-oOO+++#$$=",
";;;;;;;;;;:=%;;;;;;;;;-4SRTFmDi&OOOOOOOOOOOOOOX:-OOO##$$$+$",
";;;;;;;;;;;*&;;;;;;;;;;-,kUERP=OOOOOOOOOOOOOOO -=OOO$$$+$#$",
";;;;;;;;;;:==;;;;;;;;;;;::tKEK&OOOOOOOOOOOOOOOX=-o+$$#OO++$",
";;;;;;;;;;;==;;;;;;;:;;;:--5KG$OOOOOOOOOOOOOOOXo##$#++OOO+$",
";;;;;;;;;;;=-;;;;;;;;;;;;;::SS+OOOOOOOOOOOOOOO X$$+O+OOOOO$",
";;;;;;;;;;;--;;;;;;;;;;;;;:-SBOOOOOOOOOOOOOO  X+#++OOOOOOO$",
";;;;;;;;;;;-;;;;;;;;;;;;;;;;ZvOOOOOOOOO+O+X oOOOOOOOOOOOOO+",
";;;;;;;;;;;;;;;;;;;;;;;;;;;;ZvoOO+OOO+++OXoOOOOOOOOOOOOOOO+",
";;;;;;;;;;;;;;;;;;;;;;;;;;;-Bxo+OOOO#$#Oo+OOOOOOOOOOO+OOOO+",
";;;;;;;;;;;;;;;;;;;;:;;;;;;;Mxo+O$$$$+OOOOOOOOOOOOOOOOOOOO+",
";;;;;;;;;:;;;;;;;;;;;;;;;;;-nloO$=*+OOOOOOOOO+OOOOO+OOOOOO$",
";;;;;;;;;;;;;;;;;;;;;;;;;;;;xl%-=$OOOOOOOOOOOOOOOOOOOOOO$*:",
";;;;;;;;;;;;;;;;;;;;;;;;;;;-lx=%$OOO+OOOOOOOOOOOOOOOOO+$=:W",
"WW;;;;;;;;;;;;;;;;;;;;;;;;;-jkOOOOOOOOOOOOOOOOOOOOOO+@*:WWW",
"WWWW::;;:;;:;;;;;;;;;;;;;;;-jjOOOOOOOOOOOOOOOOOOOOO+%-WWWWW",
"WWWWW:;;;;;;;;;;;;;;;;;;;;;;ijOOO+OOOOOOOOOOOOOOOO@*:WWWWWW",
"WWWWWWW:;;;;;;;;;;;;;;;;;;;-ijOOOOOOOOOOOOOOOOOO+%-WWWWWWWW",
"WWWWWWWWW:;;;;;;;;;;;;;;;;;;wjOOOOOOOOOO+OOOOOO$=WWWWWWWWWW",
"WWWWWWWWWW;;;;;;;;;;;;;;;;;-qpOOOOOOOOOOOOOOO+&-WWWWWWWWWWW",
"WWWWWWWWWWWW;;;;;;;;;;;;;;;;0pOOOOOOOO+OOOOO$=WWWWWWWWWWWWW",
"WWWWWWWWWWWWW:;;;:;;;;;;;;;-9wOOOOOOOOOO+O+&WWWWWWWWWWWWWWW",
"WWWWWWWWWWWWWWW;;;;;;;;;;;;;8wOOOOOOOOOOO$=WWWWWWWWWWWWWWWW",
"WWWWWWWWWWWWWWWWW:::;;;;;;:-4qOOOOOOOOO@&WWWWWWWWWWWWWWWWWW",
"WWWWWWWWWWWWWWWWWW:-;;;;;;;;28OO+OOOO@$*WWWWWWWWWWWWWWWWWWW",
"WWWWWWWWWWWWWWWWWWWW;;;;;;;-24OOOOOO@&WWWWWWWWWWWWWWWWWWWWW",
"WWWWWWWWWWWWWWWWWWWWWW;;;;;-22OOOO@$WWWWWWWWWWWWWWWWWWWWWWW",
"WWWWWWWWWWWWWWWWWWWWWWW:;;;;<<OOO@&WWWWWWWWWWWWWWWWWWWWWWWW",
"WWWWWWWWWWWWWWWWWWWWWWWWW;;;<>OO$WWWWWWWWWWWWWWWWWWWWWWWWWW",
"WWWWWWWWWWWWWWWWWWWWWWWWWWW:,-$WWWWWWWWWWWWWWWWWWWWWWWWWWWW",
"WWWWWWWWWWWWWWWWWWWWWWWWWWWW>-WWWWWWWWWWWWWWWWWWWWWWWWWWWWW"
};
