/* XPM */
static char *result[] = {
/* columns rows colors chars-per-pixel */
"61 64 86 1 ",
"  c #2E2415",
". c #2F2818",
"X c #302517",
"o c #322A15",
"O c #322619",
"+ c #362C1B",
"@ c #3A2E1E",
"# c #373115",
"$ c #3A3516",
"% c #3E3B17",
"& c #3B331C",
"* c #3F3A1A",
"= c #3B2F20",
"- c #3E3323",
"; c #413F17",
": c #433E1B",
"> c #413624",
", c #443926",
"< c #473B28",
"1 c #493E29",
"2 c #46451A",
"3 c #48471C",
"4 c #4C4D1B",
"5 c #4F501D",
"6 c #52541D",
"7 c #55581D",
"8 c #5B611F",
"9 c #494421",
"0 c #4D422C",
"q c #51462F",
"w c #595D20",
"e c #534731",
"r c #554A32",
"t c #594D34",
"y c #5D4F39",
"u c #5D5137",
"i c #5E5238",
"p c #62543A",
"a c #66583C",
"s c #695B3E",
"d c #5E6521",
"f c #606721",
"g c #636B22",
"h c #677123",
"j c #6B7624",
"k c #6E7A24",
"l c #727E26",
"z c #6B5C41",
"x c #6F6042",
"c c #736345",
"v c #758427",
"b c #788727",
"n c #798927",
"m c #7D8D29",
"M c #7F9029",
"N c #82942A",
"B c #869A2B",
"V c #899D2D",
"C c #8DA32D",
"Z c #90A72E",
"A c #94AC2F",
"S c #8FA531",
"D c #95AD30",
"F c #97B031",
"G c #9BB433",
"H c #9FB835",
"J c #A2BC36",
"K c #A4BD38",
"L c #A6C135",
"P c #AAC634",
"I c #AFCC35",
"U c #A7C138",
"Y c #ABC53B",
"T c #ADC83B",
"R c #B2CF36",
"E c #B1CD3A",
"W c #B8D733",
"Q c #BEDE37",
"! c #B5D339",
"~ c #B9D739",
"^ c #BBDA38",
"/ c #BFE036",
"( c #C2E336",
") c #C7E935",
"_ c #C9EB35",
"` c None",
/* pixels */
"``````````````````````````````TTT````````````````````````````",
"`````````````````````````````TTTTT```````````````````````````",
"```````````````````````````TTTTTTTTT`````````````````````````",
"`````````````````````````TTTTTTTTTTTT````````````````````````",
"```````````````````````TEETTTTTTTTTTTTT``````````````````````",
"``````````````````````TT^!TTTTTTTTTTTTTT`````````````````````",
"````````````````````TTTT(!TTTTTTTTTTTTTTTT```````````````````",
"``````````````````TTTTT!)ETTTTTTTTTTTTTTTTTT`````````````````",
"````````````````YYTTTTT~)TTTTTTTTTTTTTTTTTTTT````````````````",
"``````````````YTETTTTTYQ(TTTTTTTTTTTTTTTTTTTTTT``````````````",
"`````````````YTE!TTT~ET(/TTTTTTTTTTTTTTTTTTTTTTT`````````````",
"```````````YETYY!ETT(!T)QTTTTTTTTTTTTTTTTTTTTTTTTT``````T````",
"`````````YTTYTYTE!TT(^E)~TTTTTTTTTTTTTTTTTTYTTTTTTTT````T````",
"```````YTTTTTTTTT~ET(Q!)!YT!ITTTTTTTTTTYTTTTTTTTTTTTT```TT```",
"`````YYTTTTTTTTTT!!T/(^)ETT)!TTTTTTTTTTTTTTTTTTTTTTTTTT`TT```",
"````YTTTTTTTTTTTTT^E^)((!^!)~TTTTTTTTTTTTTTTTTTTTTTTTTTTTT```",
"``YTTTTTTTTTTTTTTTI~~_)/QII)(~TTTTTTTTTTTTTTTTYTTTTTTTTTTTT``",
"TTYYTTTTTTTTTTTTTTYYR(_(WDH)_~TTTTTTYTTTTTTTTTTTTTTTTTTTTTTY`",
"KKYYTTTTTTTTTTTUJYKGGLILGSZPPHYTTTTTTTTTTTTTTTTTTTTTTTTTTTTTY",
"DDJYTTTTTTTTTTTYYTTTTTYPUULJJHKYTTTTTTTTTTTTTTTTTTTTTTTTTTYUH",
"AAAFKYYTTTTTTTTTTTTTTTTTTTTTTTTTTTTTTTTTTTTTTTTTTTTTTTTTTYGDD",
"NAADDHUTTTTTTTTTTTTTTTTTTTTTTTTTTTTTTTTTTTTTTTTTTTTTTTYYHDDDD",
"$gCDAAFJYTTTTTTTTTTTTTTTTTTTTTTTTTTTTTTTTTTTTTTTTTTTTYKGDADDB",
"q>2lZAADGJTTTTTTTTTTTTTTTTTTTTTTTTTTTTTTTTTTTTTTTYTTYGDDAAVf9",
"uy0&7NAAAAGUTTTTTTTTTTTTTTTTTTTTTTTTTTTTTTTTTTTTTEPJAAAACk; -",
"uuur<$fVAAAFHPTTTTTTTTTTTTTTTTTTTTTTTTTTTTTTTTTYTKFAAAAv3 O@>",
"uuuuuq>2kZAAAGJTTTTTTTTTTTTTTTTTTTTTTTTTTTTTTYTYGAAAAN6X +@@>",
"uuuuuuy0&6mAAAAHUTTTTTTTTTTTTTTTTTTTTTTTTTTYEYKDAAAV7oX+&@@@>",
"uuuuuuuut,$dVDAAFHYTTTTTYTTTTTTTTTTTYTTTTTTYJGAAACg$X+@@@@@@>",
"uuuuuuuuuur&:jCAAAGJTTTTTTTTTTTTTTTTTTTTTTYGAADZl;XO@@@@@@@@>",
"uuuuuuuuuupy1@3bAAADGYTTTTTTTTTTTTTTYYTTTJDAAAn4oX@@@@@@@@@@>",
"uuuuuuuuuuyupt++wBAAAFJYTTTTTTTTTTTTTEYKDAAAN7o@,@@@@@@@@@@@>",
"eiiiuuuuuuuuuu>0>*hCDAZGLTTTTTTTEYTTTUGDDDVf+X+10=@@@@@@@@@@>",
".-uiiuuuuuuuuu9qy0&3bZADDGYTTTTTTYTYKSDDSh$X+>-11=@@@@@@@@@@>",
"q-+-tiuuuuuuuu0quut<&7NDAAFJTTTTTYKFDDSv2 +=--&11=@@@@@@@@@@,",
"uur<=<tiiuuuuuqquuuur-$gCAAAGUTTYHDDANwOO=>>->=1<+@@@@@@@@@@>",
"uuuut9-9yiiuuurquuuuuu0&2vCDAJYJTKDVd#O=-->----01@@@@@@@@@@@,",
"uuuuuiue<0uiuutruuuuuuiu<+6MAHHALUl$ @----=>---1<@@@@@@@@@@@,",
"uuuuuuuiur0quuuruuuuuuuuur>$dVFCk6++----->>---=01@@@@@@@@@@@,",
"uuuuuuuuuuuuruppuuuuuuuuuuu0@2g3 O------------>r<@@@@@@@@@@@,",
"uuuuuuuuuuuuuuupuuuuuuuuuuuuy<..=->---<----->>qy,@@@@@+>@@@@,",
"uuuuuuuuuuuuuuuuuuuuuuuuuuuuuu0------------->qyq>@@@@@@@@@@@,",
"uuuuuuuuuuuuuuuuuuupuuuuuuuuuu0--------->--eppq&+>@@@@@@@@@@<",
"uuuuuuuuuuuuuuuuuuuupptuuuuuuu0->-->---=-1yyqe1->O@@@@@@@@@@<",
"uuuuuuuuuuuuuuuuuuuuuppttiuuuiq-------=<yzt<-00-O>O>@@@@@@@@,",
"`uuuuuuuuuuuuuuuuuuuuupatryuui0-----=<yzy1>>-0q->O>O@@@@@@@,q",
"``iuuuuuuuuuuuuuuuuuuuuizaerti0->==-tzy0->>>>0e>>OO>@@@@>>1t`",
"````uuuuuuuuuuuuuuuuuuuuuaxy0r1-==ezz1--->>>>1e-O>X>@@@@,q```",
"`````iiiuuuuuuuuuuuuuuuuuuicxq-+1zze>>>>>>>>,<e@>>X>>+>q`````",
"```````iuuuuuuuuuuuuuuuuuuuuzcizzt>>>>>>>>>>><t>>X>X>qt``````",
"`````````iiuuuuuuuuuuuuuuuuuupzt<>>>>>>>>>>>><t>>>>>u````````",
"``````````uuuuuuuuiuuuuuuuuuuuy>>>>>>>>>>>>:,<t,>,1r`````````",
"````````````uiiuuuuuuuuuuuuuuut>>>>>>>>>>>>>><t<1t```````````",
"``````````````uuuuuuuuuuuuuuuut>>>>>>>>>>>>>>>tt`````````````",
"```````````````iuuuuuuuuuuuuuut,>>>>>>>>>>>><qu``````````````",
"`````````````````uuuuuuuuuuuuut>>>>>>>>>>>>1t````````````````",
"```````````````````uuuuuuuuuuut,>>>>>>>>><e``````````````````",
"````````````````````uuuuuuuuuyt,>>>>>>>>qu```````````````````",
"``````````````````````uuuuuuuut>>>>>>>1r`````````````````````",
"````````````````````````uuuuuut>>>>><e```````````````````````",
"`````````````````````````uuuuut,>-,0t````````````````````````",
"```````````````````````````uuut>,1e``````````````````````````",
"`````````````````````````````ut<0````````````````````````````",
"``````````````````````````````tt`````````````````````````````"
};
