/* XPM */
static char *result[] = {
/* columns rows colors chars-per-pixel */
"50 50 98 2 ",
"   c #262524",
".  c #2B2B2B",
"X  c #302F2E",
"o  c #31302F",
"O  c #353433",
"+  c #451927",
"@  c #461A28",
"#  c #491B29",
"$  c #5C162D",
"%  c #53182C",
"&  c #5F1C33",
"*  c #65132E",
"=  c #68132F",
"-  c #641B35",
";  c #6B1936",
":  c #761737",
">  c #711837",
",  c #741838",
"<  c #7E1F3F",
"1  c #522031",
"2  c #5E2537",
"3  c #5F2638",
"4  c #62273A",
"5  c #6E213A",
"6  c #74223D",
"7  c #7B213E",
"8  c #563948",
"9  c #6D475B",
"0  c #9C2800",
"q  c #A52B00",
"w  c #AB2D00",
"e  c #B12F00",
"r  c #B73100",
"t  c #BB3200",
"y  c #831D3E",
"u  c #891C3F",
"i  c #CD0203",
"p  c #CB0E00",
"a  c #D20006",
"s  c #D40008",
"d  c #C31100",
"f  c #CF1600",
"g  c #CA1C00",
"h  c #D61200",
"j  c #D41C00",
"k  c #F10202",
"l  c #FF0202",
"z  c #F20B00",
"x  c #FF0D00",
"c  c #F1000B",
"v  c #FF000E",
"b  c #F11300",
"n  c #F21B00",
"m  c #FF1800",
"M  c #EF0015",
"N  c #EF011B",
"B  c #F00012",
"V  c #FF0010",
"C  c #C22500",
"Z  c #CA2400",
"A  c #C42B00",
"S  c #CE2A00",
"D  c #D62400",
"F  c #D62C00",
"G  c #C43400",
"H  c #CA3600",
"J  c #CE3800",
"K  c #D53400",
"L  c #D33900",
"P  c #DD3D00",
"I  c #F22000",
"U  c #FE2300",
"Y  c #F72D00",
"T  c #FC2E00",
"R  c #EF3400",
"E  c #E33F00",
"W  c #ED3C00",
"Q  c #F53600",
"!  c #FC3400",
"~  c #F33E00",
"^  c #FF3E00",
"/  c #ED0224",
"(  c #ED0229",
")  c #E64000",
"_  c #E84000",
"`  c OrangeRed",
"'  c #FF4D00",
"]  c #FF5000",
"[  c #8B1C40",
"{  c #BD004C",
"}  c #C2004E",
"|  c #C60050",
" . c #ED0062",
".. c #F30064",
"X. c #F90067",
"o. c #FE006A",
"O. c #8B5B74",
"+. c None",
/* pixels */
"+.+.+.+.+.+.+.+.+.+.+.+.+.+.+.+.+.+.+.+.+.+.+.+.+.+.+.+.+.+.+.+.+.+.+.+.+.+.+.+.+.+.+.+.+.+.+.+.+.+.",
"+.+.+.+.+.+.+.+.+.+.+.+.+.+.+.+.+.+.+.+.+.+.+.+.O.Q +.+.+.+.+.+.+.+.+.+.+.+.+.+.+.+.+.+.+.+.+.+.+.+.",
"+.+.+.+.+.+.+.+.+.+.+.+.+.+.+.+.+.+.+.+.+.+.+.O.. . 9 +.+.+.+.+.+.+.+.+.+.+.+.+.+.+.+.+.+.+.+.+.+.+.",
"+.+.+.+.+.+.+.+.+.+.+.+.+.+.+.+.+.+.+.+.+.O.. . . . . : 9 +.+.+.+.+.+.+.+.+.+.+.+.+.+.+.+.+.+.+.+.+.",
"+.+.+.+.+.+.+.+.+.+.+.+.+.+.+.+.+.+.+.O.. . . . . . 1 , N 1 9 +.+.+.+.+.+.+.+.+.+.+.+.+.+.+.+.+.+.+.",
"+.+.+.+.+.+.+.+.+.+.+.+.+.+.+.+.+.+.O.. . . . . . . . - / % . X 9 +.+.+.+.+.+.+.+.+.+.+.+.+.+.+.+.+.",
"+.+.+.+.+.+.+.+.+.+.+.+.+.+.+.+.O., B B : 1 . 1 1 1 - / : . . . . 9 +.+.+.+.+.+.+.+.+.+.+.+.+.+.+.+.",
"+.+.+.+.+.+.+.+.+.+.+.+.+.+.O.. . . 1 B N N N / / / ( / 1 . . . . . X 9 +.+.+.+.+.+.+.+.+.+.+.+.+.+.",
"+.+.+.+.+.+.+.+.+.+.+.+.O.. . . . . . 1 B : N : - - / ; . . . . . . . X . 9 +.+.+.+.+.+.+.+.+.+.+.+.",
"+.+.+.+.+.+.+.+.+.+.+.O.k 1 . . . . . : N 1 . . . . , / : 1 1 ; , 1 1 . 1 c 9 9 +.+.+.+.+.+.+.+.+.+.",
"+.+.+.+.+.+.+.+.+.O.. : z - . . . . 1 B : . . . . . . > N , 1 & M M B - : ; . . 9 +.+.+.+.+.+.+.+.+.",
"+.+.+.+.+.+.+.O.. . . . , k - . . . & c 1 . . . . - N N : . & M - . . . : ; ; . . . 9 +.+.+.+.+.+.+.",
"+.+.+.+.+.O.O.. . . . . % z % . . . ; c c : ; . . , B 1 . : M B : . . . % k 1 . . . . X 9 +.+.+.+.+.",
"+.+.+.+.Q 9 . . . . . . 1 , z k , ; ; : > ; : ; c c > 1 . - c c c c : . 1 k : . . . . . . c +.+.+.+.",
"+.+.+.+.O O 9 . . . . . 1 b : : , 1 % . . . . . 1 ; c 1 . , k c c c k , 1 k : . . . . 8     +.+.+.+.",
"+.+.+.+.O O O O 9 . . . & b : . . . . . . . . . . : : # . , k ( k > . . . > , z ; 8         +.+.+.+.",
"+.+.+.+.O O O O O 4 9 n ; . . . . . . . . . . . : k > . , k ( k k : . . . . . 8 8 &         +.+.+.+.",
"+.+.+.+.O O O O O O U 9 X . . . . . . . . . ; : z z > : > z ( z z : . . . . 8   h #         +.+.+.+.",
"+.+.+.+.O O O O O O T O O 9 o . . . . & b b , 1 : . : - z z b z b - . . 8     = *           +.+.+.+.",
"+.+.+.+.O O O O O 4 ! O O O O 9 . . , , - . . . . . . . 1 . : n : . 8         h             +.+.+.+.",
"+.+.+.+.O O O O O [ y O O O O O O 9 , I 1 . . . . . . . . . . & n 8           j             +.+.+.+.",
"+.+.+.+.O O O O O 4 y O O O O O O u 9 . . . . . . . . . . . . 8 = j         # =             +.+.+.+.",
"+.+.+.+.O O O O O O 7 4 O O O O O y u O 9 . . . . . . . . 8   $ = D         D               +.+.+.+.",
"+.+.+.+.O O O O O O [ 7 O O O O O u [ O O O 9 . . . . 8       * = D       # =               +.+.+.+.",
"+.+.+.+.V O O O 3 [ [ [ O O O O O 6 [ O O O O 9 9 . 8       # * * D       * =               +.+.+.+.",
"+.+.+.+.o.O O O [ [ ' 7 O O O 4 4 [ ` 4 O O O O O           * * = F $   # F #               +.+.+.+.",
"+.+.+.+.V O o.6 ; [ [ [ O O O 6 ` [ [ 7 O O O O O           F   # # F   = F F = #           +.+.+.+.",
"+.+.+.+.V o.V 8 ' [ [ < O O [ [ ` 4 7 y O O O O O         # K       F   $ K = K = #         +.+.+.+.",
"+.+.+.+.o.o.V O V 8 < [ O O ' [ ' 4 4 < O O O O O         * #       K   = K   = K =         +.+.+.+.",
"+.+.+.+.o.o.V O 6 [ [ 6 V O ' o.o.[ O [ ' [ O O O         = #     = K   = K   # L =     } { +.+.+.+.",
"+.+.+.+.X.X.O o.V [ [ [ V O O O [ [ O O 7 ' O O O       # L #   K = K   % $     L s } } } K +.+.+.+.",
"+.+.+.+.l X.O o.V 6 < 7 O O o.V [ [ O O O ] 4 O O       #     # K # L     }     L }   { J H +.+.+.+.",
"+.+.+.+.l X.O o 3 [ ' y O O O O o.[ O O O y ] O O             $ *   L         a L f { J H J +.+.+.+.",
"+.+.+.+. .x X.l O 3 ' 3 O O v O o.y O O V O ] O O   s       @ L #   L   s a   i J S J J H G +.+.+.+.",
"+.+.+.+.U U m x ..O ' o.X.O o.O 4 u O O O O ] 4 O | s s     = *   # L   } { { { J } H G G G +.+.+.+.",
"+.+.+.+.Q T  ... .x y o.X.v v O O 4 v O O O [ 7 O |   |   = = #   | |     f S { H G G G G t +.+.+.+.",
"+.+.+.+._ ` Q T U ..x X.X.O o O X.v O O O O 4 ' 4 s   | s L #   = L }     S H H G H t G t r +.+.+.+.",
"+.+.+.+.P E W Q Y T U  .o o O v O O O O O O O ' [ s }   s L   a J a i g H H H G G t t r e q +.+.+.+.",
"+.+.+.+.+.+.P ) W Q T U m m o l o v o O O O O y ] s     * J   | i f Z H G G G t t t e q 0 +.+.+.+.+.",
"+.+.+.+.+.+.+.L P _ W Q ! U o x l o O o v O O y ] s s   J * { J + g A H G G t r r w q +.+.+.+.+.+.+.",
"+.+.+.+.+.+.+.+.+.L E W Q Q ! U o O o O v v O < '   i   J * i J A G G G t t r w q +.+.+.+.+.+.+.+.+.",
"+.+.+.+.+.+.+.+.+.+.+.E P W Q Y U o m x O O O 5 ' a a + J i Z G H G t t t e q +.+.+.+.+.+.+.+.+.+.+.",
"+.+.+.+.+.+.+.+.+.+.+.+.+.P _ ~ Q o o m x x l 2 ' i i i i g A G t t t e q 0 +.+.+.+.+.+.+.+.+.+.+.+.",
"+.+.+.+.+.+.+.+.+.+.+.+.+.+.L E E W Q T U m x l l i i p C   G t r t w q +.+.+.+.+.+.+.+.+.+.+.+.+.+.",
"+.+.+.+.+.+.+.+.+.+.+.+.+.+.+.+.P ) W R X T U m x   d A G t t t w w +.+.+.+.+.+.+.+.+.+.+.+.+.+.+.+.",
"+.+.+.+.+.+.+.+.+.+.+.+.+.+.+.+.+.+.P E W Q Y U U d C t t e w w +.+.+.+.+.+.+.+.+.+.+.+.+.+.+.+.+.+.",
"+.+.+.+.+.+.+.+.+.+.+.+.+.+.+.+.+.+.+.L P E W Q T t t t e w 0 +.+.+.+.+.+.+.+.+.+.+.+.+.+.+.+.+.+.+.",
"+.+.+.+.+.+.+.+.+.+.+.+.+.+.+.+.+.+.+.+.+.L E W ~ t r q w +.+.+.+.+.+.+.+.+.+.+.+.+.+.+.+.+.+.+.+.+.",
"+.+.+.+.+.+.+.+.+.+.+.+.+.+.+.+.+.+.+.+.+.+.+.L ) w w +.+.+.+.+.+.+.+.+.+.+.+.+.+.+.+.+.+.+.+.+.+.+.",
"+.+.+.+.+.+.+.+.+.+.+.+.+.+.+.+.+.+.+.+.+.+.+.+.+.0 +.+.+.+.+.+.+.+.+.+.+.+.+.+.+.+.+.+.+.+.+.+.+.+."
};
