/* XPM */
static char *result[] = {
/* columns rows colors chars-per-pixel */
"50 50 111 2 ",
"   c #252624",
".  c #2B2B2B",
"X  c #2F302E",
"o  c #30312F",
"O  c #343533",
"+  c #443F1B",
"@  c #47421D",
"#  c #554E1A",
"$  c #584F19",
"%  c #5D541D",
"&  c #615715",
"*  c #645A16",
"=  c #61571D",
"-  c #655A1D",
";  c #695E1C",
":  c #6E621B",
">  c #72651A",
",  c #73681A",
"<  c #504922",
"1  c #5C5627",
"2  c #5D5728",
"3  c #5F5929",
"4  c #554D3A",
"5  c #605A29",
"6  c #6E6426",
"7  c #716726",
"8  c #756A25",
"9  c #796E24",
"0  c #7E7223",
"q  c #6C6149",
"w  c #82751F",
"e  c #827522",
"r  c #867921",
"t  c #897B5D",
"y  c #4F9E00",
"u  c #52A400",
"i  c #56AB00",
"p  c #58AF00",
"a  c #5AB400",
"s  c #5EBB00",
"d  c #61BE00",
"f  c #68BF00",
"g  c #63C400",
"h  c #6DC500",
"j  c #66C900",
"k  c #69CC00",
"l  c #74C400",
"z  c #75CB00",
"x  c #7CCB00",
"c  c #6CD300",
"v  c #6FDA00",
"b  c #73D400",
"n  c #7BD401",
"m  c #71DD00",
"M  c #75E500",
"N  c #76E800",
"B  c #7DEC00",
"V  c #B78F03",
"C  c #BC9303",
"Z  c #C29702",
"A  c #C49A02",
"S  c #E7B606",
"D  c #E9B706",
"F  c #EEBB06",
"G  c #F3BF06",
"H  c #85C600",
"J  c #84CB00",
"K  c #97C700",
"L  c #91CB00",
"P  c #9CCD00",
"I  c #85D302",
"U  c #8BD101",
"Y  c #94D104",
"T  c #A2CB00",
"R  c #ADCD00",
"E  c #A6D000",
"W  c #AED100",
"Q  c #B2D300",
"!  c #88EF00",
"~  c #9EED04",
"^  c #82F100",
"/  c #8BF400",
"(  c #8DFE00",
")  c #97F700",
"_  c #93FF00",
"`  c #9AFC00",
"'  c #A5EC04",
"]  c #ACEB05",
"[  c #B4EA06",
"{  c #BBE907",
"}  c #A5FE00",
"|  c #AAFF00",
" . c #B5FF01",
".. c #B8FF00",
"X. c #F6C107",
"o. c #FAC506",
"O. c #FFCD05",
"+. c #C1E807",
"@. c #C6E708",
"#. c #CCE609",
"$. c #C7E808",
"%. c #D3E50A",
"&. c #DBE40B",
"*. c #CCF200",
"=. c #C4FF00",
"-. c #CFFF00",
";. c #D1FF00",
":. c #DDFF00",
">. c #E5FF00",
",. c #EBFF00",
"<. c None",
/* pixels */
"<.<.<.<.<.<.<.<.<.<.<.<.<.<.<.<.<.<.<.<.<.<.<.<.<.<.<.<.<.<.<.<.<.<.<.<.<.<.<.<.<.<.<.<.<.<.<.<.<.<.",
"<.<.<.<.<.<.<.<.<.<.<.<.<.<.<.<.<.<.<.<.<.<.<.<.t / <.<.<.<.<.<.<.<.<.<.<.<.<.<.<.<.<.<.<.<.<.<.<.<.",
"<.<.<.<.<.<.<.<.<.<.<.<.<.<.<.<.<.<.<.<.<.<.<.t . . q <.<.<.<.<.<.<.<.<.<.<.<.<.<.<.<.<.<.<.<.<.<.<.",
"<.<.<.<.<.<.<.<.<.<.<.<.<.<.<.<.<.<.<.<.<.t . . . . . , q <.<.<.<.<.<.<.<.<.<.<.<.<.<.<.<.<.<.<.<.<.",
"<.<.<.<.<.<.<.<.<.<.<.<.<.<.<.<.<.<.<.t . . . . . . < : %.< q <.<.<.<.<.<.<.<.<.<.<.<.<.<.<.<.<.<.<.",
"<.<.<.<.<.<.<.<.<.<.<.<.<.<.<.<.<.<.t . . . . . . . . ; &.< . X q <.<.<.<.<.<.<.<.<.<.<.<.<.<.<.<.<.",
"<.<.<.<.<.<.<.<.<.<.<.<.<.<.<.<.t > #.#.> < . < < < % &., . . . o q <.<.<.<.<.<.<.<.<.<.<.<.<.<.<.<.",
"<.<.<.<.<.<.<.<.<.<.<.<.<.<.t . . . < #.#.%.%.%.%.&.&.&.< . . . . . . q <.<.<.<.<.<.<.<.<.<.<.<.<.<.",
"<.<.<.<.<.<.<.<.<.<.<.<.t . . . . . . < #.> %.> - - &.; . . . . . . . . . q <.<.<.<.<.<.<.<.<.<.<.<.",
"<.<.<.<.<.<.<.<.<.<.<.t { < . . . . . > #.< . . . . > &.> < < - > # < . < $.q q <.<.<.<.<.<.<.<.<.<.",
"<.<.<.<.<.<.<.<.<.t . > [ = . . . . < #.> . . . . . . : %.> < % %.#.#.% , ; . . q <.<.<.<.<.<.<.<.<.",
"<.<.<.<.<.<.<.t . . . . > [ 1 . . . % @.< . . . . % #.%.> . 1 #.5 . . . , ; - . . X q <.<.<.<.<.<.<.",
"<.<.<.<.<.t t . . . . . < [ # . . . ; +.@.> - . . > #.< . > #.#.> . . . < +.< . . . . . q <.<.<.<.<.",
"<.<.<.<./ q . . . . . . < > [ [ : ; ; > > ; > : @.#.; < . = @.@.@.+.> . < { > . . . . . . *.<.<.<.<.",
"<.<.<.<.O O q . . . . . < [ > > > < < . . . . . < - +.< . > +.+.+.+.{ : < { > . . . . 4     <.<.<.<.",
"<.<.<.<.O O O O q . . . 1 ' > . . . . . . . . . . > ; # . > { &.{ > . . . : > ] : 4         <.<.<.<.",
"<.<.<.<.O O O O O 3 q ' 5 . . . . . . . . . . . > { : . > [ &.{ [ : . . . . . 4 4 $         <.<.<.<.",
"<.<.<.<.O O O O O O  .q X . . . . . . . . . ; > [ [ ; > : [ &.[ [ : . . . . 4 . Y @         <.<.<.<.",
"<.<.<.<.O O O O O O  .O O q O X . . . % ' ] > < > . > = ] ] ' [ ] * . . 4     * %           <.<.<.<.",
"<.<.<.<.O O O O O 3  .O O O O q . . > > 5 . . . . . . . # . > ' > . 4         U           . <.<.<.<.",
"<.<.<.<.O O O O O r 9 O O O O O O q > ' < . . . . . . . . . . 1 ' 4           I             <.<.<.<.",
"<.<.<.<.O O O O O 5 e O O O O O O r q . . . . . . . . . . . . 4 : I         @ &             <.<.<.<.",
"<.<.<.<.O O O O O O 7 5 O O O O O 0 r O q . . . . . . . . 4   # & I         I               <.<.<.<.",
"<.<.<.<.O O O O O O r 9 O O O O O e e O O O q . . . . 4       & : I       @ &               <.<.<.<.",
"<.<.<.<.,.O O O 3 r r r O O O O O 7 r O O O O q q . 4       + * = I       * :               <.<.<.<.",
"<.<.<.<.o.O O O r 0 _ 9 O O O 5 5 r } 5 O O O O O           * * * n #   @ n @               <.<.<.<.",
"<.<.<.<.,.O o.8 7 r r r O O O 7 ` r r 9 O O O O O           I   @ @ n   * n n % @           <.<.<.<.",
"<.<.<.<.,.o.,.5 _ r r 8 O O r r ` 5 8 e O O O O O         @ n       n   % n * n * @         <.<.<.<.",
"<.<.<.<.X.o.,.O ,.5 8 r O O _ r ` 5 5 9 O O O O O         % @       n   * b   * b *         <.<.<.<.",
"<.<.<.<.X.X.,.O 9 e r 7 ,.O _ O.O.r O r ` r O O O         * @     * b   * b   + v *     C C <.<.<.<.",
"<.<.<.<.X.X.O X.,.e r r ,.O O O r r O O 9 _ O O O       @ b @   b * b   # #     c Q C C C b <.<.<.<.",
"<.<.<.<.:.G O X.,.7 e 7 O O o.,.r r O O O _ 5 O O       @     @ b + c     Z     c Z   V k k <.<.<.<.",
"<.<.<.<.;.F O O 4 r ( 0 O O O O O.e O O O e ( O O             # *   v         W c J V c k j <.<.<.<.",
"<.<.<.<.D =.F :.O 3 ( 2 O O ,.O O.0 O O ,.O _ O O   Q       @ c @   c   Q W   P c z k k j g <.<.<.<.",
"<.<.<.<.| |  .=.F O ( o.X.O X.O 3 r O O O O _ 3 O C Q Q     * *   @ c   C C C V k Z j j g g <.<.<.<.",
"<.<.<.<./ ` S S D =.0 o.X.>.>.O O 2 ,.O O O r 9 O A   A   * * @   A A     U z V k j g g g s <.<.<.<.",
"<.<.<.<.^ B / ` } D =.X.F O O o X.>.O O O O 3 _ 5 Q   C Q c @   % c C     z j j j g g s s p <.<.<.<.",
"<.<.<.<.m M B / ) ` | G o o O >.O O O O O O O _ r Q C   Q c   Q k W P J k j j g f d s a p u <.<.<.<.",
"<.<.<.<.<.<.v M ^ / ` }  . .o ;.O >.O O O O O 9 _ Q     * c   C E L x k j g g g s a a u y <.<.<.<.<.",
"<.<.<.<.<.<.<.c m N ^ / ` | . =.;.O . O >.O O r ( Q Q   c * V k @ x j g g f s a a u y <.<.<.<.<.<.<.",
"<.<.<.<.<.<.<.<.<.v M B / / ` | X o O O >.>.O w _   R   c & P j z g g g d a a a u <.<.<.<.<.<.<.<.<.",
"<.<.<.<.<.<.<.<.<.<.<.m M B / ` | X  .=.O X o 5 ( R R + k K J j g g s a a p u <.<.<.<.<.<.<.<.<.<.<.",
"<.<.<.<.<.<.<.<.<.<.<.<.<.m N ^ / X X  .=.=.;.1 ( W R T K J h g d d s a p y <.<.<.<.<.<.<.<.<.<.<.<.",
"<.<.<.<.<.<.<.<.<.<.<.<.<.<.v M N ^ / ` }  .=.-.;.R P L l   d s a p u y <.<.<.<.<.<.<.<.<.<.<.<.<.<.",
"<.<.<.<.<.<.<.<.<.<.<.<.<.<.<.<.c M B / . ` |  .=.  J h s s a a i i <.<.<.<.<.<.<.<.<.<.<.<.<.<.<.<.",
"<.<.<.<.<.<.<.<.<.<.<.<.<.<.<.<.<.<.v N B ! ) } | H l s s a p u <.<.<.<.<.<.<.<.<.<.<.<.<.<.<.<.<.<.",
"<.<.<.<.<.<.<.<.<.<.<.<.<.<.<.<.<.<.<.c m N ^ ( ` f s a a i y <.<.<.<.<.<.<.<.<.<.<.<.<.<.<.<.<.<.<.",
"<.<.<.<.<.<.<.<.<.<.<.<.<.<.<.<.<.<.<.<.<.v N B ^ s p p u <.<.<.<.<.<.<.<.<.<.<.<.<.<.<.<.<.<.<.<.<.",
"<.<.<.<.<.<.<.<.<.<.<.<.<.<.<.<.<.<.<.<.<.<.<.v N p u <.<.<.<.<.<.<.<.<.<.<.<.<.<.<.<.<.<.<.<.<.<.<.",
"<.<.<.<.<.<.<.<.<.<.<.<.<.<.<.<.<.<.<.<.<.<.<.<.<.y <.<.<.<.<.<.<.<.<.<.<.<.<.<.<.<.<.<.<.<.<.<.<.<."
};
