/* XPM */
static char *_cf6ada47b72419fbf59de0330599674skZG0m9z9ajnHLLT[] = {
/* columns rows colors chars-per-pixel */
"50 50 136 2 ",
"   c None",
".  c #262426",
"X  c #2B2B2B",
"o  c #312F31",
"O  c #353335",
"+  c #1E1D47",
"@  c #1B1A55",
"#  c #1D1D5C",
"$  c #222250",
"%  c #29275C",
"&  c #2A285E",
"*  c #3A3F55",
"=  c #171562",
"-  c #191665",
";  c #1E1D63",
":  c #1C1C6C",
">  c #1B1A72",
",  c #2C2960",
"<  c #27256C",
"1  c #28266E",
"2  c #272575",
"3  c #282671",
"4  c #25237B",
"5  c #494F6C",
"6  c #231F82",
"7  c #242185",
"8  c #030DB7",
"9  c #030EBC",
"0  c #60009C",
"q  c #6600A4",
"w  c #6B00AD",
"e  c #6E00B1",
"r  c #7100B5",
"t  c #7500BC",
"y  c #5D6589",
"u  c #020DC3",
"i  c #3D00CE",
"p  c #3E00D3",
"a  c #0614E6",
"s  c #0614EA",
"d  c #0615F3",
"f  c #0616FB",
"g  c #340BE4",
"h  c #3C0AE5",
"j  c #4500CB",
"k  c #4B00CB",
"l  c #5700C4",
"z  c #5F00C7",
"x  c #5100CC",
"c  c #5800CD",
"v  c #4400D1",
"b  c #4D00D0",
"n  c #5E04D1",
"m  c #6A00C4",
"M  c #6500CC",
"N  c #6E00CC",
"B  c #7300C4",
"V  c #7A00C4",
"C  c #7300CC",
"Z  c #7D00CA",
"A  c #6402D1",
"S  c #6B02D3",
"D  c #7501D3",
"F  c #7B00D4",
"G  c #4309E6",
"H  c #4A08E7",
"J  c #4F07E8",
"K  c #4C08E8",
"L  c #5207E9",
"P  c #5C07EA",
"I  c #4900F2",
"U  c #5400FF",
"Y  c #5900FF",
"T  c #6705EC",
"R  c #6306EB",
"E  c #6905EB",
"W  c #6A05EB",
"Q  c #6905EC",
"!  c #6B04EC",
"~  c #7004EC",
"^  c #7104ED",
"/  c #7604ED",
"(  c #6100FF",
")  c #6200FF",
"_  c #6A00FF",
"`  c #6B00FF",
"'  c #6A00FF",
"]  c #7400FF",
"[  c #7500FF",
"{  c #7C00FE",
"}  c #7D00FF",
"|  c #7D00FE",
" . c #8100CD",
".. c #8100CE",
"X. c #8200CF",
"o. c #8200CF",
"O. c #8300D1",
"+. c #8300D3",
"@. c #8400D3",
"#. c #8100D4",
"$. c #8100D5",
"%. c #8300D4",
"&. c #8400D4",
"*. c #8500D4",
"=. c #8700D8",
"-. c #8A00DC",
";. c #8D00E2",
":. c #8E00EB",
">. c #9100E6",
",. c #9200EB",
"<. c #8200F4",
"1. c #8800F2",
"2. c #8D00F7",
"3. c #8C00F4",
"4. c #8500FA",
"5. c #8500FC",
"6. c #8B04FF",
"7. c #8A00FD",
"8. c #9100F1",
"9. c #9303FF",
"0. c #9104FF",
"q. c #A002FF",
"w. c #A501FF",
"e. c #A701FF",
"r. c #AB00FF",
"t. c #AB01FF",
"y. c #AD00FF",
"u. c #AC01FF",
"i. c #AD01FF",
"p. c #AE00FF",
"a. c #AE00FF",
"s. c #B000FF",
"d. c #B100FF",
"f. c #B001FF",
"g. c #B101FF",
"h. c #B100FF",
/* pixels */
"                                                                                                    ",
"                                                y 1.                                                ",
"                                              y X X 5                                               ",
"                                          y X X X X X > 5                                           ",
"                                      y X X X X X X $ > h $ 5                                       ",
"                                    y X X X X X X X X - h $ X o 5                                   ",
"                                y > G H > $ X $ $ $ , g > X X X X 5                                 ",
"                            y X X X $ G G h h h g g g g $ X X X X o X 5                             ",
"                        y X X X X X X $ G > h > ; ; g - X X X X X o X o X 5                         ",
"                      y P $ X X X X X > G $ X X X X > h > $ $ ; > $ $ X $ H 5 5                     ",
"                  y X > P ; X X X X $ H > X X X X X X > h > $ # h G G # > : X X 5                   ",
"              y X X X X > P # X X X # H $ X X X X % h h > X # G ; X X X > : ; X X X 5               ",
"          y y X X X X X $ P $ X X X - J J > ; X X > G $ X > G G > X X X $ L $ X X X X X 5           ",
"        1.5 X X X X X X $ > R P : : : > > : > : H H > $ X , H H J J > X $ L > X X X X X X I         ",
"        O O 5 X X X X X $ R > > > $ $ X X X X X $ ; J $ X > J J L L L > $ P > X X X X * . X         ",
"        O O O O 5 X X X # W > X X X X X X X X X X > > $ X > L g L : X X X : > R - * . X . .         ",
"        O O O O O , 5 ^ : X X X X X X X X X X X > P : X > P g P P > X X X X X * * @ . . . .         ",
"        O O O O O O 6.5 X X X X X X X X X X : > R P : > : P g P R > X X X X * . n + . . . .         ",
"        O O O O O O 0.O O 5 o X X X X # E E > $ > X > # T T T T R ; X X * . . - - . . . . .         ",
"        O O O O O , 0.O O O O 5 X X > > ; X X X X X X X $ X > Q > X * . . . . A . . . . . .         ",
"        O O O O O 7 4 O O O O O O 5 > / $ X X X X X X X X X X # ^ * . . . . . S . . . . . .         ",
"        O O O O O , 7 O O O O O O 7 5 X X X X X X X X X X X X * - S . . . . + - . . . . . .         ",
"        O O O O O O 3 , O O O O O 4 7 O 5 X X X X X X X X * . @ - S . . . . D . . . . . . .         ",
"        O O O O O O 7 2 O O O O O 7 7 O O O 5 X X X X * . . . ; - S . . . + - . . . . . . .         ",
"        ( O O O , 7 7 7 O O O O O 3 7 O O O O 5 5 X * . . . + - # D . . . - - . . . . . . .         ",
"        f O O O 7 4 t.4 O O O , , 7 w., O O O O O . . . . . - - - D @ . + D + . . . . . . .         ",
"        U O f 3 1 7 7 7 O O O 3 w.7 7 4 O O O O O . . . . . D . + + D . - D F - + . . . . .         ",
"        U f U * t.7 7 2 O O 7 7 e., 3 7 O O O O O . . . . + D . . X D . # D : F : + . . . .         ",
"        f f U O U , 2 7 O O i.7 i., , 2 O O O O O . . . . # + . . . F . - F . - $.- . . . .         ",
"        d f Y O 2 7 7 2 Y O g.f f 7 O 7 i.7 O O O . . . . - + . . - $.. - F . + $.- . . 9 8         ",
"        d d O d U 4 7 7 U O O O 7 7 O O 4 i.O O O X . . + $.+ . $.- $.. @ # . . O.p 9 9 8 F         ",
"        Y d O d U 3 7 3 O O f Y 7 7 O O O g., O O . . . + . . + $.+ *.. . 8 . . O.u . 8 O. .        ",
"        ( d O O & 7 r.4 O O O O f 7 O O O 7 g.O O . . . . . . @ - . %.. . . . v O.A 8 F  . .        ",
"        s _ s U O % e., O O U O f 4 O O U O g.O O . v . . . + *.+ . &.. p p . b O.N Z Z  .V         ",
"        { { ] _ s O t.f d O f O & 7 O O O O g., O u p p . . = = . + &.. 9 8 8 8 Z 9 Z Z V V         ",
"        3.4.a a s _ 4 f d U U O O & U O O O 7 4 O u . u . = - + . u u . . M D 8 Z Z V V V t         ",
"        :.8.2.6.5.a ) d s o O O d U O O O O , g., v . u p *.+ . - O.9 . . N  .V V V V t r w         ",
"        -.;.:.2.4.5.} d o O o U O O O O O O O i.7 v 9 . p *.. p O.i k M C Z V V B t t e w q         ",
"            ;.>.8.1.4.{ ] ] o ( O U o O O O O 4 i.p . . - O.. u v c N Z V  .V t t e e w 0           ",
"              ..=.,.:.3.4.} o _ Y o O O U O O 6 i.p p . O.= 8  .+ M V V V t t t w w q               ",
"                  *.;.:.1.3.7.} o o O O U U O 2 r.. i .  .= k  .C V V t t t r e q                   ",
"                      =.>.,.3.5.} o ] _ O o O < i.i i + Z x M V V V t t r r q                       ",
"                          =.,.8.3.o o ] ) ` ( % r.i i j k M B V V t r e w q                         ",
"                            *.;.,.8.2.5.} ] _ ( ( i j x m . V r r r q q                             ",
"                                *.,.,.3.X 7.} { _ . l B t V t r e q                                 ",
"                                    -.,.:.3.<.} 5.l m t t t w q                                     ",
"                                       .=.,.8.3.5.B t t r w 0                                       ",
"                                          =.-.:.8.r r w q                                           ",
"                                              =.>.w q                                               ",
"                                                  0                                                 "
};
