/* XPM */
static char *_08129e403bf40b0c89c45a5cfe15bb5ph7RCfA6QVdXfutg[] = {
/* columns rows colors chars-per-pixel */
"64 64 190 2 ",
"   c None",
".  c #000101",
"X  c #040B0B",
"o  c #061313",
"O  c #091C1C",
"+  c #081717",
"@  c #0C2323",
"#  c #0E2C2C",
"$  c #143C3C",
"%  c #113333",
"&  c #0F3030",
"*  c #164242",
"=  c #194D4D",
"-  c #174949",
";  c #1C5454",
":  c #1D5B5B",
">  c #215E5D",
",  c #1F6161",
"<  c #216464",
"1  c #236C6C",
"2  c #267474",
"3  c #277878",
"4  c #297D7D",
"5  c #297474",
"6  c #DA3ED6",
"7  c #D63FD6",
"8  c #E03BD6",
"9  c #BD5CD4",
"0  c #9C7DD4",
"q  c #AB6ED5",
"w  c #B565D5",
"e  c #B269D6",
"r  c #BA69DB",
"t  c #A575D5",
"y  c #AA71D5",
"u  c #A179D5",
"i  c #A57FDA",
"p  c #B270DA",
"a  c #CD4DD6",
"s  c #D645D6",
"d  c #D942D6",
"f  c #D34AD6",
"g  c #DB47DB",
"h  c #C555D5",
"j  c #C951D6",
"k  c #C359D7",
"l  c #D653D6",
"z  c #D65BD6",
"x  c #D663D6",
"c  c #D66BD6",
"v  c #D965D6",
"b  c #D67CD6",
"n  c #D775D7",
"m  c #FE54FE",
"M  c #FF5DFF",
"N  c #DE77FA",
"B  c #EF6EFF",
"V  c #E76EFA",
"C  c #FD63FF",
"Z  c #F36AFF",
"A  c #FF6BFF",
"S  c #F667FF",
"D  c #E676FF",
"F  c #EA72FF",
"G  c #E27AFF",
"H  c #FF75FF",
"J  c #FE7CFE",
"K  c #2C8484",
"L  c #2D8B8B",
"P  c #2F9292",
"I  c #319595",
"U  c #349B9B",
"Y  c #35A3A3",
"T  c #3AADAD",
"R  c #38A6A6",
"E  c #3AB3B3",
"W  c #3DBBBA",
"Q  c #41BCBC",
"!  c #7D9CD4",
"~  c #779ED2",
"^  c #5CBCD4",
"/  c #6CADD4",
"(  c #6EA6D1",
")  c #76A4D5",
"_  c #78A1D4",
"`  c #64B4D4",
"'  c #68B5D7",
"]  c #3FC2C2",
"[  c #3DDCD4",
"{  c #3FD6D1",
"}  c #3DD1CC",
"|  c #41C4C4",
" . c #43CCCC",
".. c #42D1CF",
"X. c #4CCCD3",
"o. c #47CED1",
"O. c #54C5D4",
"+. c #51C9D5",
"@. c #59C3D6",
"#. c #44D3D2",
"$. c #4AD4D6",
"%. c #45DAD8",
"&. c #48DAD9",
"*. c #7EDDFF",
"=. c #4DE4E4",
"-. c #4FECEC",
";. c #52ECEB",
":. c #54F3F3",
">. c #56FDFD",
",. c #5AFFFF",
"<. c #5FF5F9",
"1. c #4FFFFF",
"2. c #6EEEFF",
"3. c #76E6FF",
"4. c #72EBFF",
"5. c #7BE2FF",
"6. c #66F5FF",
"7. c #69F2FF",
"8. c #61FAFF",
"9. c #8C8ED5",
"0. c #9485D4",
"q. c #9684D5",
"w. c #8594D4",
"e. c #8098D3",
"r. c #BE9EFF",
"t. c #9EBEFF",
"y. c #AEACFD",
"u. c #BAA2FF",
"i. c #B2AAFF",
"p. c #B6A6FF",
"a. c #ABB2FF",
"s. c #A2BAFF",
"d. c #A5B3FE",
"f. c #D684D6",
"g. c #D68BD6",
"h. c #DB87DB",
"j. c #D694D6",
"k. c #D69BD6",
"l. c #D6A3D6",
"z. c #D8A8D8",
"x. c #D6B3D6",
"c. c #D6BBD6",
"v. c #CA8EFC",
"b. c #D685FF",
"n. c #DB81FF",
"m. c #D28AFF",
"M. c #C595FE",
"N. c #CA92FF",
"B. c #C29AFF",
"V. c #FF84FF",
"C. c #FF8EFF",
"Z. c #FF9DFF",
"A. c #FF93FF",
"S. c #FEA3FE",
"D. c #FFABFF",
"F. c #FFB3FF",
"G. c #FFBBFF",
"H. c #8ECCFE",
"J. c #9AC2FF",
"K. c #94C9FF",
"L. c #86D6FE",
"P. c #8AD2FF",
"I. c #83D8FF",
"U. c #D6C4D6",
"Y. c #D6CCD6",
"T. c #DDC5DD",
"R. c #D6D5D6",
"E. c #D6DAD6",
"W. c #DADBDA",
"Q. c #D8D7D8",
"!. c #DFE3DF",
"~. c #FFCBFF",
"^. c #FFC4FF",
"/. c #FEDCFE",
"(. c #FFD5FF",
"). c #E2E3E2",
"_. c #EEEEEE",
"`. c #EBEBEB",
"'. c #FFE5FF",
"]. c #FFECFF",
"[. c gray95",
"{. c #F3F3F3",
"}. c #F1F1F1",
"|. c #F5F5F5",
" X c #FEF5FE",
".X c #F9F9F9",
"XX c white",
"oX c #FEFEFE",
"OX c #FDFDFD",
"+X c #FFFCFF",
/* pixels */
"                                                                                                                                ",
"                                                              [.[.                                                              ",
"                                                            [.[.[.[.                                                            ",
"                                                          [.[.[.[.[.[.                                                          ",
"                                                      [.[.[.[.[.[.[.[.[.[.                                                      ",
"                                                [.[.[.[.[.[.[.[.[.[.[.[.[.[.[.[.                                                ",
"                                                [.[.[.[.[.[.[.[.[.[.[.[.[.[.[.[.[.[.                                            ",
"                                              [.[.[.[.[.[.[.[.[.[.[.[.[.[.[.[.[.[.[.[.                                          ",
"                                        [.[.[.[.[.[.[.[.[.[.[.[.[.[.[.[.[.[.[.[.[.[.[.[.                                        ",
"                                    [.[.[.[.[.[.[.[.[.[.[.[.[.[.[.[.[.[.[.[.[.[.[.[.[.[.[.[.                                    ",
"                                [.[.[.[.[.[.[.[.[.[.[.[.[.[.[.[.[.[.[.[.[.[.[.[.[.[.[.[.[.[.[.[.                                ",
"                              [.[.[.[.[.[.[.[.[.[.[.[.[.[.[.[.[.[.[.[.[.[.[.[.[.[.[.[.[.[.[.[.[.[.                              ",
"                            [.[.[.[.[.[.[.[.[.[.[.[.[.[.[.[.[.[.[.[.[.[.[.[.[.[.[.[.[.[.[.[.[.[.[.[.[.                          ",
"                      [.[.[.[.[.[.[.[.[.[.[.[.[.[.[.[.[.[.[.[.[.[.[.[.[.[.[.[.[.[.[.[.[.[.[.[.[.[.[.[.[.[.                      ",
"                  [.[.[.[.[.[.[.[.[.[.[.[.[.[.[.[.[.[.[.[.[.[.[.[.[.[.[.[.[.[.[.[.[.[.[.[.[.[.[.[.[.[.[.[.[.[.                  ",
"              [.[.[.[.[.[.[.[.[.[.[.[.[.[.[.[.[.[.[.[.[.[.[.[.[.[.[.[.[.[.[.[.[.[.[.[.[.[.[.[.[.[.[.[.[.[.[.[.[.[.              ",
"            [.[.[.[.[.[.[.[.[.[.[.[.[.[.[.[.[.[.[.[.[.[.[.[.[.[.[.[.[.[.[.[.[.[.[.[.[.[.[.[.[.[.[.[.[.[.[.[.[.[.[.{.            ",
"          {.{.{.[.[.[.[.[.[.[.[.[.[.[.[.[.[.[.[.[.[.[.[.[.[.[.[.[.[.[.[.[.[.[.[.[.[.[.[.[.[.[.[.[.[.[.[.[.[.[.[._._._.          ",
"          XXXX.X[.[.[.[.[.[.[.[.[.[.[.[.[.[.[.[.[.[.[.[.[.[.[.[.[.[.[.[.[.[.[.[.[.[.[.[.[.[.[.[.[.[.[.[.[.[.}._.).R.Q.          ",
"          XXXXXXXX.X{.[.[.[.[.[.[.[.[.[.[.[.[.[.[.[.[.[.[.[.[.[.[.[.[.[.[.[.[.[.[.[.[.[.[.[.[.[.[.[.[.[.[._.!.!.E.R.E.          ",
"          S./.XXXXXX.X.X.X{.[.[.[.[.[.[.[.[.[.[.[.[.[.[.[.[.[.[.[.[.[.[.[.[.[.[.[.[.[.[.[.[.[.[.[.[.{.{._.T.g.Y.E.x.f.          ",
"          V.~. X(.+XXXXXXX{.[.[.[.[.[.[.[.[.[.[.[.[.[.[.[.[.[.[.[.[.[.[.[.[.[.[.[.[.[.[.[.[.[.[.[.[.`.`.).c.n l.Y.x.c           ",
"          +X+XG.H  XXXXXXXXX{.[.[.[.[.[.[.[.[.[.[.[.[.[.[.[.[.[.[.[.[.[.[.[.[.[.[.[.[.[.[.[.{.}.[.`.Q.E.Y.U.c.c k.Y.U.          ",
"          XXF.C H ].XXXXXXXX+X+X.X[.[.[.[.[.[.[.[.[.[.[.[.[.[.[.[.[.[.[.[.[.[.[.[.[.[.[.[.[.{.).Q.Q.E.E.j.z x x.f.z z           ",
"          A.F.~.^.Z.'.~.D.+XXXXXXX.X.X[.{.[.[.[.[.[.[.[.[.[.[.[.[.[.[.[.[.[.[.[.[.[.[.{._.!.!.Q.E.E.R.g.g.l.l.f.l d s           ",
"          m A.^.F.A S.D.F.+X~.'.XXXXXX.X{.{.[.[.[.[.[.[.[.[.[.[.[.[.[.[.[.[.[.[.[.[.{._.).R.E.E.c.j.k.h.x.R.j.f d d d           ",
"          n.Z M M C m D.XX(.A ^.+X'.XXXXXX+X{.[.[.[.[.[.[.[.[.[.[.[.[.[.[.[.[.[.[._.`.!.R.R.c.R.x.z f k.U.j.g s s j w           ",
"          7.B.m M M M D.(.A A ^.^.J  XXXXXXXXX[.[.[.[.[.[.[.[.[.[.[.[.[.[.[.}.}._.Q.Q.R.R.U.c k.Y.x.l f l f s s d 0 +.          ",
"          b.B M M M M H H A ~.S.A H  XXXXXXXXXXXXX.X[.[.[.[.[.[.[.[.[.[.{.{.).!.!.E.E.k.b R.c.f.v x f d s s s s s j e           ",
"          m M M C M M M M C Z.F.G.F.D.Z.(.XXXXXXXXXX.X.X[.[.[.[.[.[.[.[.).).W.R.U.g.U.c.g.f.g.j.n d s s s s d s s d 8           ",
"          M.D M M M C M M M M S.(.G.A J D.~.~.+XXXXXXXXX.X[.[.[.{.{.[.).R.E.c.c.Y.b j.U.c.s d g.g.d s s d h y f d k u           ",
"          4.B.C B M M M M M M M C M M ~.S.C V.]. X'.].XXXX.X[.{.}._.).R.R.Q.b c U.R.b g.l.f s s f h f s d e ' e j q.@.          ",
"          F C N.L.B M M C M M C M M M A A V.'.+XS.A C. XOXOXOX.XW.Q.Q.R.R.Q.f.d c U.Y.j.l s s d i / j s s f r ' O.w.k           ",
"          m B.2.2.B M M M M M M M C M M m A A.C.G.A.H +XOXOXOX.X!.E.l.f.Y.g.j.g.f c b z 6 s s s k e f 9./ / ~ 0 ' +.)           ",
"          p.a.a.a.i.B G B.M M M M M M C M M M Z.G.F.D.F.F.'..X|.l.U.x.h.g.l n b s 7 7 r u g f s 6 8 s ` ^ w.9.q.0.` [           ",
"          >.s.D m.H.B.a.t.C G Z M M M M M M A ^.C.C.~.C.H F./.~.n j.Y.U.c f s s s s s q.e.f s d j e e ) 9.9 y +.9.0 `           ",
"          ,.8.8.5.n.P.d.M F L.B.M S C M M C Z A M M V.'.|.S.C J T.b f.Y.c.z d s s s s f a s a a 0 +.+.y w.$.$.o.#.! h           ",
"          ,.,.,.,.*.8.i.G P.N.C N.K.Z M M b.P.F m M A H J S V./.W.U.j.x x f s f s s s s 6 a ) @.w.y +.^ +.#.#.o.#.O.`           ",
"          ,.J.s.,.>.>.5.P.6.F N.3.4.Z u.m.F B.Z u.B.M m M M H S.h.f.v 6 d s s s s 6 d y 0.s y ^ ^ _ $.[ { o.#.#.o.#.%.          ",
"          ,.t.d.6.K.7.5.P.6.i.d.K.s.B.2.a.m m M i.u.M M M M M m d 7 9 y f s d d a y j y ! 0 y / [ [ %.( ^ #.#.#.#.E L           ",
"          $.:.,.4.b.I.t.M.6.2.r.B v.7.7.i.F D C M M M C M M M M k f q.) a d h a h ` u h 0 $.#.#.X.^ ^ y w.{  .#.#.2 .           ",
"          O U ,.<.7.,.6.6.6.b.s.7.7.6.N.y.6.I.D C C C M M M m V ' p g j s d w.! f h ) O.+.#.$.{ ~ h 9 (  .#. . .#.2 .           ",
"          T =.Q > ;.,.,.,.8.L.7.>.7.N.t.6.5.N.K.L.L.s.S M M b.H.i j d 6 d 7 k 9.! f 9 ) [ $.{ 9.0 ( ( X.%.%.] ; I ] P           ",
"          ,.,. .K :.,.,.,.,.>.H.i.i.p.y.I.5.a.6.H.L.3.S B.G G y.g 6 e 0 a 0 h y $.e.0.q.~ o.#.~ ) [ } K < , , : , , 2           ",
"          Q =.,.,.,.,.&. .,.,.a.G M.6.r.J.>.,.,.i.u.J.M.4.y.m m r a t ) u O.! 0 / ` X.! 0 o.{ #.W Y ] & X & $ L ; + .           ",
"          X K -.;.>.:.4 ; :.,.,.<.,.,.8.6.7.6.8.,.s.b.3.7.y.S N ' u s w @.+.X.~ j 9 ` #.o.} o.%.4 @ E * : W Y # 3 < .           ",
"          . + @ = =.< 5 =.,.,.,.,.,.,.>.t.B b.4.,.8.H.n.V d.4.L.p _ 0.f 9 9 9 0 ^ ^ O.} o.o.} #.3 O W E , O & L ; X .           ",
"          . . . X ; I K > < =.,.Q 2 :.,.*.t.s.B.N.M.u.J.J.4.4.v.g e 9.) ! e.w./ } { } o.%.] : U E P ] 2 @ . . * O . .           ",
"            . . . . 2 ; X < -.,.W 5 :.8.,.>.8.p.N.N.r.J.J.J.y.M.u 0 0.( { { { #.o.o.o.Y P ] , U W K 2 + . . . . . .             ",
"                . @ X . %  .#.-.>.,.>.&.;.:.&.<.,.,.5.n.D F p.>.%.{ ! t X.#.#.#.} } #.3 * Y Y T , . . . . . . . .               ",
"                  | * . X o O Y >.>.:.; I Q % &.,.,.,.7.7.7.7.:.$.#.o.X.#.o.o.} o.}  .] L + X o X . . . . . .                   ",
"                      . . X I 1 % < -.#.=.E + $.,.,.,.,.,.>.L.v.@.{ o.{ o.} } o.o. .} 4 = K + . . + 2 @ .                       ",
"                          o 1 # . @ =.Y | =.U ;.Y Q 8.,.,.,.5.d.+.#.%.#. . . .U 1 ] #., o ; o $ $ o P                           ",
"                            . . . O U : 4 Q | >.4 < | ,.,.,.,.,.%.#.E U }  .o.U * 4 P - . . . ; : .                             ",
"                                  . X Y 1 . O | ;.L * $.=.:.<.=.W } 3 $ ]  .W E P + . . . . . . .                               ",
"                                    . O o . . O @ 5 Q & @ R | @ @ P ] E  .] , + O . . . . .                                     ",
"                                        2 1 . . . O 1 Y R =.T . 1 E I - = E U - . . . .                                         ",
"                                          Y + ; @ @ 1 U U I K 4  .%.1 . . ; 3 - . . .                                           ",
"                                              =.$ = U X @ # <  .Y Y ; X @ . . . .                                               ",
"                                                X X X X R =.I o X X . @ L @ . .                                                 ",
"                                                      . # $ # . . . . X #                                                       ",
"                                                          . . . . . .                                                           ",
"                                                            . . . .                                                             ",
"                                                                .                                                               "
};
