/* XPM */
static char *Z3JvdW5k[] = {
/* columns rows colors chars-per-pixel */
"50 50 152 2 ",
"   c #6C8080",
".  c #6D8181",
"X  c #6E8383",
"o  c #6F8484",
"O  c #708585",
"+  c #718686",
"@  c #718787",
"#  c #728787",
"$  c #738989",
"%  c #748A8A",
"&  c #758A8A",
"*  c #768C8C",
"=  c #778D8D",
"-  c #778E8E",
";  c #788E8E",
":  c #788F8F",
">  c #799090",
",  c #7A9090",
"<  c #7A9191",
"1  c #7B9191",
"2  c #7B9292",
"3  c #7C9393",
"4  c #7D9494",
"5  c #7E9595",
"6  c #7F9797",
"7  c #809797",
"8  c #809898",
"9  c #819898",
"0  c #819999",
"q  c #829A9A",
"w  c #839B9B",
"e  c #849C9C",
"r  c #849D9D",
"t  c #859D9D",
"y  c #859E9E",
"u  c #869E9E",
"i  c #869F9F",
"p  c #87A0A0",
"a  c #88A1A1",
"s  c #89A2A2",
"d  c #8AA3A3",
"f  c #8AA4A4",
"g  c #8BA4A4",
"h  c #8BA5A5",
"j  c #8CA5A5",
"k  c #8CA6A6",
"l  c #8DA7A7",
"z  c #8EA8A8",
"x  c #8FA9A9",
"c  c #8FAAAA",
"v  c #92A7A7",
"b  c #90AAAA",
"n  c #90ABAB",
"m  c #91ABAB",
"M  c #91ACAC",
"N  c #92ACAC",
"B  c #92ADAD",
"V  c #93ADAD",
"C  c #93AEAE",
"Z  c #94AEAE",
"A  c #94AFAF",
"S  c #94B0B0",
"D  c #95B0B0",
"F  c #95B1B1",
"G  c #96B1B1",
"H  c #97B2B2",
"J  c #99B5B5",
"K  c #9AB6B6",
"L  c #9BB7B7",
"P  c #9DBABA",
"I  c #9EBABA",
"U  c #9FBCBC",
"Y  c #A0BDBD",
"T  c #A1BEBE",
"R  c #A1BFBF",
"E  c #A2C0C0",
"W  c #A3C0C0",
"Q  c #A4C1C1",
"!  c #A4C2C2",
"~  c #A5C2C2",
"^  c #A5C3C3",
"/  c #A6C4C4",
"(  c #A7C5C5",
")  c #A8C6C6",
"_  c #A9C7C7",
"`  c #A9C8C8",
"'  c #AAC9C9",
"]  c #ABC9C9",
"[  c #ABCACA",
"{  c #ACCACA",
"}  c #ACCBCB",
"|  c #ACCCCC",
" . c #ADCCCC",
".. c #ADCDCD",
"X. c #AECDCD",
"o. c #AECECE",
"O. c #AFCECE",
"+. c #AFCFCF",
"@. c #B0C0C0",
"#. c #B0C9C9",
"$. c #B0CFCF",
"%. c #B0D0D0",
"&. c #B1D1D1",
"*. c #B2D2D2",
"=. c #B3D3D3",
"-. c #B3D4D4",
";. c #B4D4D4",
":. c #B4D5D5",
">. c #B5D5D5",
",. c #B5D6D6",
"<. c #B6D6D6",
"1. c #B6D7D7",
"2. c #B7D7D7",
"3. c #B7D8D8",
"4. c #B8D8D8",
"5. c #B8D9D9",
"6. c #B9DADA",
"7. c #BADBDB",
"8. c #BADCDC",
"9. c #BBDCDC",
"0. c #BBDDDD",
"q. c #BCDDDD",
"w. c #BCDEDE",
"e. c #BDDEDE",
"r. c #BDDFDF",
"t. c #BEDFDF",
"y. c #ABEFEF",
"u. c #BEE0E0",
"i. c #BFE1E1",
"p. c #B2E8E8",
"a. c #C7D9D9",
"s. c #C3DFDF",
"d. c #C0E2E2",
"f. c #C0E3E3",
"g. c #C1E3E3",
"h. c #C7E3E3",
"j. c #C1E4E4",
"k. c #C2E4E4",
"l. c #C2E5E5",
"z. c #C3E5E5",
"x. c #C3E6E6",
"c. c #C4E6E6",
"v. c #C4E7E7",
"b. c #C5E8E8",
"n. c #D9FFFF",
"m. c #DFFFFF",
"M. c #E2E2E2",
"N. c LightCyan",
"B. c #E2FFFF",
"V. c #E3FFFF",
"C. c #E7FFFF",
"Z. c None",
/* pixels */
"Z.Z.Z.Z.Z.Z.Z.Z.Z.Z.Z.Z.Z.Z.Z.Z.Z.Z.Z.Z.Z.Z.Z.Z.Z.Z.Z.Z.Z.Z.Z.Z.Z.Z.Z.Z.Z.Z.Z.Z.Z.Z.Z.Z.Z.Z.Z.Z.Z.Z.",
"Z.Z.Z.Z.Z.Z.Z.Z.Z.Z.Z.Z.Z.Z.Z.Z.Z.Z.Z.Z.Z.Z.Z.Z.M.a.Z.Z.Z.Z.Z.Z.Z.Z.Z.Z.Z.Z.Z.Z.Z.Z.Z.Z.Z.Z.Z.Z.Z.Z.",
"Z.Z.Z.Z.Z.Z.Z.Z.Z.Z.Z.Z.Z.Z.Z.Z.Z.Z.Z.Z.Z.Z.Z.M.h.h.M.Z.Z.Z.Z.Z.Z.Z.Z.Z.Z.Z.Z.Z.Z.Z.Z.Z.Z.Z.Z.Z.Z.Z.",
"Z.Z.Z.Z.Z.Z.Z.Z.Z.Z.Z.Z.Z.Z.Z.Z.Z.Z.Z.Z.Z.M.h.h.h.h.h.h.M.Z.Z.Z.Z.Z.Z.Z.Z.Z.Z.Z.Z.Z.Z.Z.Z.Z.Z.Z.Z.Z.",
"Z.Z.Z.Z.Z.Z.Z.Z.Z.Z.Z.Z.Z.Z.Z.Z.Z.Z.Z.M.h.h.h.h.h.h.h.h.h.h.M.Z.Z.Z.Z.Z.Z.Z.Z.Z.Z.Z.Z.Z.Z.Z.Z.Z.Z.Z.",
"Z.Z.Z.Z.Z.Z.Z.Z.Z.Z.Z.Z.Z.Z.Z.Z.Z.Z.M.h.h.h.h.h.h.h.h.p.h.h.h.h.M.Z.Z.Z.Z.Z.Z.Z.Z.Z.Z.Z.Z.Z.Z.Z.Z.Z.",
"Z.Z.Z.Z.Z.Z.Z.Z.Z.Z.Z.Z.Z.Z.Z.Z.M.h.h.h.h.h.h.h.h.h.h.h.h.h.h.h.h.M.Z.Z.Z.Z.Z.Z.Z.Z.Z.Z.Z.Z.Z.Z.Z.Z.",
"Z.Z.Z.Z.Z.Z.Z.Z.Z.Z.Z.Z.Z.Z.M.h.h.h.h.h.h.h.h.h.h.h.h.h.h.h.h.h.p.h.h.M.Z.Z.Z.Z.Z.Z.Z.Z.Z.Z.Z.Z.Z.Z.",
"Z.Z.Z.Z.Z.Z.Z.Z.Z.Z.Z.Z.M.h.h.h.h.h.p.h.h.h.h.h.h.h.h.h.h.h.h.h.h.h.h.h.h.M.Z.Z.Z.Z.Z.Z.Z.Z.Z.Z.Z.Z.",
"Z.Z.Z.Z.Z.Z.Z.Z.Z.Z.Z.M.h.h.h.p.h.h.h.h.h.h.h.p.h.h.h.h.h.h.h.h.h.h.h.h.h.h.M.M.Z.Z.Z.Z.Z.Z.Z.Z.Z.Z.",
"Z.Z.Z.Z.Z.Z.Z.Z.Z.M.h.h.p.h.h.h.h.h.h.h.h.h.h.h.h.h.h.h.h.h.h.h.h.h.h.h.h.h.h.h.M.Z.Z.Z.Z.Z.Z.Z.Z.Z.",
"Z.Z.Z.Z.Z.Z.Z.M.h.h.h.h.h.h.h.h.h.h.h.h.h.h.h.h.h.p.h.h.h.h.h.h.h.h.h.h.h.h.h.v.h.h.M.Z.Z.Z.Z.Z.Z.Z.",
"Z.Z.Z.Z.Z.M.M.h.h.h.h.h.h.h.h.p.h.h.h.h.h.h.h.h.h.h.h.h.h.h.h.h.h.h.h.h.h.b.p.h.v.v.h.h.M.Z.Z.Z.Z.Z.",
"Z.Z.Z.Z.a.M.h.h.h.h.h.h.h.h.h.h.h.h.h.h.h.p.h.h.h.h.h.h.h.h.h.h.h.h.h.h.v.b.b.h.v.h.h.h.h.a.Z.Z.Z.Z.",
"Z.Z.Z.Z.b.b.M.h.h.h.h.h.p.h.h.h.h.h.h.h.h.h.h.h.h.h.h.h.h.h.h.h.h.h.h.h.h.h.h.h.h.h.h.M.@.F Z.Z.Z.Z.",
"Z.Z.Z.Z.b.b.b.b.M.h.h.h.h.h.h.h.h.h.h.h.h.h.h.h.h.h.h.h.h.h.h.h.h.h.h.h.h.h.h.h.h.M.R A F F Z.Z.Z.Z.",
"Z.Z.Z.Z.b.b.b.b.b.b.M.h.h.h.h.h.h.h.h.h.h.h.h.h.h.h.h.h.h.h.h.h.h.h.h.h.h.h.h.M.M.@.F F F F Z.Z.Z.Z.",
"Z.Z.Z.Z.b.b.b.b.b.b.b.M.h.h.h.h.h.h.h.h.h.h.h.h.h.h.h.h.h.h.h.h.h.p.h.h.h.h.M.@.F F F F F F Z.Z.Z.Z.",
"Z.Z.Z.Z.b.b.b.b.b.b.C.b.v.M.v.h.h.h.h.h.h.h.h.h.y.y.h.h.h.h.h.p.h.h.h.h.M.@.F F F F F F F F Z.Z.Z.Z.",
"Z.Z.Z.Z.b.b.b.b.b.b.b.b.b.v.b.M.h.h.h.h.h.h.h.h.h.h.h.h.h.h.h.h.h.h.M.@.F F F F F F F F F F Z.Z.Z.Z.",
"Z.Z.Z.Z.b.b.b.b.b.b.b.b.b.b.b.b.b.M.h.h.h.h.h.h.h.h.h.h.h.h.h.h.h.M.@.F F F F F F F F F F A Z.Z.Z.Z.",
"Z.Z.Z.Z.b.b.b.b.b.b.b.b.b.b.b.b.b.b.M.h.h.h.h.h.h.h.h.h.h.h.h.M.@.F F F F F F F F F F F F G Z.Z.Z.Z.",
"Z.Z.Z.Z.b.b.b.b.b.b.b.b.b.b.b.b.b.b.b.b.M.h.y.h.h.h.h.h.h.M.@.F F F F F F F F F F G F G A G Z.Z.Z.Z.",
"Z.Z.Z.Z.v.b.b.b.b.b.b.b.b.b.b.b.b.b.b.b.b.b.M.h.h.h.h.M.@.@.F F F F F F F F F G F A A #.G A Z.Z.Z.Z.",
"Z.Z.Z.Z.v.v.v.b.b.b.b.b.b.b.b.b.b.b.b.b.b.b.b.M.M.h.M.@.F F F F F F F F F F F A { G A F F A Z.Z.Z.Z.",
"Z.Z.Z.Z.v.v.v.v.b.b.b.b.b.b.b.b.b.b.b.b.b.b.b.b.b.F F F F F F F F F F F F F G A F A F A A F Z.Z.Z.Z.",
"Z.Z.Z.Z.h.v.v.v.v.v.b.b.b.b.b.b.b.b.b.b.b.b.b.b.b.F F F F F F F F F G A A G A G F A A F F A Z.Z.Z.Z.",
"Z.Z.Z.Z.z.v.v.v.v.v.b.v.b.b.N.b.b.b.b.b.b.b.b.b.b.F F F F F F | G A F G G A G A A G A A A A Z.Z.Z.Z.",
"Z.Z.Z.Z.g.z.z.z.v.v.v.v.v.b.b.b.b.b.b.b.C.b.b.b.v.F F F F F F F G A G A A G A A G A A A B A Z.Z.Z.Z.",
"Z.Z.Z.Z.g.z.z.z.z.v.v.v.v.v.b.v.b.b.b.b.b.b.b.b.b.F F F F F A F A G A G G A G A A A A A B B Z.Z.Z.Z.",
"Z.Z.Z.Z.i.i.i.m.z.z.z.z.v.v.v.v.b.b.b.b.b.b.b.b.b.G F F F A F A G A G A A G A A A A N A B c Z.Z.Z.Z.",
"Z.Z.Z.Z.w.i.i.i.i.z.z.z.z.z.v.v.v.b.b.b.b.b.b.b.b.F F G A F A F A G A A A A A A N A N b B z Z.Z.Z.Z.",
"Z.Z.Z.Z.7.q.q.g.i.z.z.g.z.z.v.v.v.v.v.v.v.b.b.b.b.F F F F A G A G A A A A A B A B b b b z z Z.Z.Z.Z.",
"Z.Z.Z.Z.7.q.q.q.q.i.i.i.z.i.m.z.z.v.v.v.v.b.b.b.b.F F F A F A G A A A A A B B b b b z l g g Z.Z.Z.Z.",
"Z.Z.Z.Z.%.;.;.7.w.w.q.i.z.z.z.z.z.z.v.v.v.v.v.v.v.F A F F A A A { A A A B B b b b z l d p d Z.Z.Z.Z.",
"Z.Z.Z.Z.%.%.;.;.3.w.q.i.w.i.i.i.z.z.z.z.v.v.v.v.v.A F A A A A A B N A b B b b l l l g d y 9 Z.Z.Z.Z.",
"Z.Z.Z.Z.Q ) { %.;.;.7.w.u.w.i.i.g.g.z.g.z.v.v.v.v.F A A A A A B B B b b b z l l g p p w 9 4 Z.Z.Z.Z.",
"Z.Z.Z.Z.K Q T | | -.%.;.3.w.w.i.i.g.i.z.z.z.z.z.v.A A A A A B b b b v b l l d d d y 9 9 * % Z.Z.Z.Z.",
"Z.Z.Z.Z.Z.Z.K T Q | %.-.;.3.w.n.w.q.i.i.i.i.z.z.v.A A A ) B B B B b l l g p p y 9 6 * % O Z.Z.Z.Z.Z.",
"Z.Z.Z.Z.Z.Z.Z.B I Q ( | %.-.-.3.w.w.i.i.g.g.i.z.g.A A b B b b b l l g d d y w 6 6 * $ Z.Z.Z.Z.Z.Z.Z.",
"Z.Z.Z.Z.Z.Z.Z.Z.Z.F U Q | | %.;.7.2.q.q.q.g.i.g.g.B B B B z z l l g d p 9 9 6 * O Z.Z.Z.Z.Z.Z.Z.Z.Z.",
"Z.Z.Z.Z.Z.Z.Z.Z.Z.Z.Z.F T Q { %.%.;.2.q.q.q.i.i.g.b b B b l g g d d 9 w 9 1 $ Z.Z.Z.Z.Z.Z.Z.Z.Z.Z.Z.",
"Z.Z.Z.Z.Z.Z.Z.Z.Z.Z.Z.Z.Z.K Q ) { $.%.;.7.q.w.q.i.z z z l d d d w w 9 1 1   Z.Z.Z.Z.Z.Z.Z.Z.Z.Z.Z.Z.",
"Z.Z.Z.Z.Z.Z.Z.Z.Z.Z.Z.Z.Z.Z.G L T ( | -.-.;.3.w.w.z l g g p y 9 9 1 * O Z.Z.Z.Z.Z.Z.Z.Z.Z.Z.Z.Z.Z.Z.",
"Z.Z.Z.Z.Z.Z.Z.Z.Z.Z.Z.Z.Z.Z.Z.Z.F I ( [ $.%.2.;.7.l d d p y 9 6 z % Z.Z.Z.Z.Z.Z.Z.Z.Z.Z.Z.Z.Z.Z.Z.Z.",
"Z.Z.Z.Z.Z.Z.Z.Z.Z.Z.Z.Z.Z.Z.Z.Z.Z.Z.K T ) { %.%.;.p d w 9 6 1 : Z.Z.Z.Z.Z.Z.Z.Z.Z.Z.Z.Z.Z.Z.Z.Z.Z.Z.",
"Z.Z.Z.Z.Z.Z.Z.Z.Z.Z.Z.Z.Z.Z.Z.Z.Z.Z.Z.B I T ( | | y w 6 3 * X Z.Z.Z.Z.Z.Z.Z.Z.Z.Z.Z.Z.Z.Z.Z.Z.Z.Z.Z.",
"Z.Z.Z.Z.Z.Z.Z.Z.Z.Z.Z.Z.Z.Z.Z.Z.Z.Z.Z.Z.Z.B U T [ 6 6 * O Z.Z.Z.Z.Z.Z.Z.Z.Z.Z.Z.Z.Z.Z.Z.Z.Z.Z.Z.Z.Z.",
"Z.Z.Z.Z.Z.Z.Z.Z.Z.Z.Z.Z.Z.Z.Z.Z.Z.Z.Z.Z.Z.Z.Z.F T 1 O Z.Z.Z.Z.Z.Z.Z.Z.Z.Z.Z.Z.Z.Z.Z.Z.Z.Z.Z.Z.Z.Z.Z.",
"Z.Z.Z.Z.Z.Z.Z.Z.Z.Z.Z.Z.Z.Z.Z.Z.Z.Z.Z.Z.Z.Z.Z.Z.Z.X Z.Z.Z.Z.Z.Z.Z.Z.Z.Z.Z.Z.Z.Z.Z.Z.Z.Z.Z.Z.Z.Z.Z.Z."
};
