/* XPM */
static char *_dcfd6cb97a14cf5ccb658dbc55703f3FwbtMx8zMWtfztY4[] = {
/* columns rows colors chars-per-pixel */
"64 64 151 2 ",
"   c None",
".  c #3C5E21",
"X  c #3F6322",
"o  c #416624",
"O  c #446B26",
"+  c #476F28",
"@  c #486F28",
"#  c #4B742A",
"$  c #4E792C",
"%  c #517D2E",
"&  c #53812E",
"*  c #558230",
"=  c #588633",
"-  c #5C8B34",
";  c #5A863B",
":  c #5F9037",
">  c #609237",
",  c #669E36",
"<  c #689F37",
"1  c #629539",
"2  c #669A3B",
"3  c #699E3C",
"4  c #6BA13E",
"5  c #5D8740",
"6  c #5E8943",
"7  c #618A46",
"8  c #648D4C",
"9  c #678E51",
"0  c #6A8F59",
"q  c #6A9056",
"w  c #6D925D",
"e  c #6EA344",
"r  c #70A647",
"t  c #71A648",
"y  c #75AA51",
"u  c #78AA57",
"i  c #7BAD5B",
"p  c #7DB05F",
"a  c #74976A",
"s  c #76986E",
"d  c #799A74",
"f  c #7E9D7C",
"g  c #7DAC62",
"h  c #7EB163",
"j  c #82B36A",
"k  c #86B771",
"l  c #8ABA77",
"z  c #8CBB7A",
"x  c #7F9E80",
"c  c #819F83",
"v  c #86A38C",
"b  c #8FBF83",
"n  c #90BD80",
"m  c #8AA594",
"M  c #90A99F",
"N  c #93ABA3",
"B  c #96ADAC",
"V  c #98AEAE",
"C  c #99AFB1",
"Z  c #9CB2B3",
"A  c #A3B6B6",
"S  c #A6BABA",
"D  c #ABBCBC",
"F  c #91C086",
"G  c #95C18B",
"H  c #97C592",
"J  c #99C696",
"K  c #9BC798",
"L  c #A1CBA2",
"P  c #A6CEA9",
"I  c #A6D0AD",
"U  c #ACD1B3",
"Y  c #ADD6BB",
"T  c #B0D2BD",
"R  c #B2C2C2",
"E  c #BAC6C6",
"W  c #B6C9C9",
"Q  c #BDCBCB",
"!  c #B3D7C1",
"~  c #B6D8C6",
"^  c #B7DCCC",
"/  c #BADBCB",
"(  c #BED1D1",
")  c #BCDED3",
"_  c #BCE0D5",
"`  c #AFEDED",
"'  c #B7E7E7",
"]  c #BCE6E6",
"[  c #B4EAEA",
"{  c #BCE8E8",
"}  c #C4CDCD",
"|  c #C6D2D2",
" . c #CAD0D0",
".. c #C4DCDC",
"X. c #CBDDDD",
"o. c #D1D5D5",
"O. c #D3DCDC",
"+. c #DDDFDF",
"@. c #C0E4DF",
"#. c #C2DFE0",
"$. c #C7E3E3",
"%. c #CAE4E4",
"&. c #CAE7EA",
"*. c #C6E8EA",
"=. c #CCE9EA",
"-. c #D3E3E3",
";. c #D9E6E6",
":. c #DCE6E6",
">. c #DBE2E2",
",. c #D1E9E9",
"<. c #D3EBEB",
"1. c #D6EAEA",
"2. c #D0ECEC",
"3. c #D1EDED",
"4. c #D2EDEE",
"5. c #D1EFEF",
"6. c #D7EEEE",
"7. c #D4ECEC",
"8. c #DDE9E9",
"9. c #DCEFEF",
"0. c #CCEAF0",
"q. c #CEEAF1",
"w. c #D5F0F0",
"e. c #D7F2F2",
"r. c #D7F1F1",
"t. c #D9F3F3",
"y. c #DAF3F3",
"u. c #DFF0F0",
"i. c #D9F4F4",
"p. c #DCF5F5",
"a. c #DFF5F5",
"s. c #DBF4F4",
"d. c #DFFBFB",
"f. c #E0E1E1",
"g. c #E0E2E2",
"h. c #E1E2E2",
"j. c #E2E2E2",
"k. c #E3E2E2",
"l. c #E4E2E2",
"z. c #E0E7E7",
"x. c #E0E3E3",
"c. c #E1E8E8",
"v. c #E1EAEA",
"b. c #E2EEEE",
"n. c #E3F0F0",
"m. c #E3F3F3",
"M. c #E0F2F2",
"N. c #E1F4F4",
"B. c #E3FBFB",
"V. c #E2F8F8",
"C. c #E3FCFC",
/* pixels */
"                                                                                                                                ",
"                                                              f.X.                                                              ",
"                                                            >.+.X.O.                                                            ",
"                                                          >.-.$.$.-.>.                                                          ",
"                                                      f.%.$.%.$.$.%.$.%.f.                                                      ",
"                                                l.-.$.$.$.%.$.$.$.$.$.$.=.$.>.l.                                                ",
"                                                >.-.$.$.$.%.$.$.$.$.] ] $.$.%.-.%.l.                                            ",
"                                              >.%.$.$.$.$.$.$.$.$.$.$.] $.$.$.$.$.>.f.                                          ",
"                                        >.>.$.$.$.$.$.$.%.#.$.$.$.$.$.$.$.%.$.@.#.%.>.>.                                        ",
"                                    f.%.$.$.$.$.$.$.$.$.%.@.$.$.$.X.$.$.$.$.$.$.%.] $.%.%.+.                                    ",
"                                >.$.-.$.$.$.$.] $.$.$.$.%.$.$.$.$.$.$.$.$.$.#.%.$.$.$.$.$.-.$.>.                                ",
"                              >.-.$.#.] $.$.$.] $.$.$.$.$.$.] $.$.%.$.$.%.$.%.$.$.$.$.$.$.$.$.-.>.                              ",
"                            >.%.] $.$.] $.$.$.$.$.$.$.$.$.$.] $.$.$.$.$.$.$.$.$.$.$.$.$.$.$.$.$.%.>.>.                          ",
"                      f.>.$.$.] ] $.$.$.$.%.$.$.$.$.$.$.$.$.$.$.$.$.$.$.$.$.$.$.$.$.$.$.$.$.$.$.$.%.$.>.>.                      ",
"                  f.-.$.$.$.$.$.$.$.$.$.$.$.$.$.%.$.$.$.$.$.$.$.] ] $.$.$.$.$.%.$.$.$.$.$.$.$.$.$.$.$.=.$.=.l.                  ",
"              l.f.-.%.$.$.$.$.$.$.$.$.] $.$.%.%.#.$.$.$.$.$.$.$.$.$.$.$.$.$.$.$.$.$.$.$.$.$.$.$.] ] $.$.$.%.-.%.>.              ",
"            +.>.-.$.$.$.$.$.$.$.$.$.$.] $.$.$.$.$.$.$.] $.$.$.$.$.%.$.$.$.$.$.$.$.$.$.$.$.$.$.$.] { $.] $.$.$.$.-.-.            ",
"          X.>.:.%.%.$.$.%.@.$.$.$.$.$.$.$.$.$.$.$.%.$.] $.$.$.$.$.$.$.$.$.%.$.$.$.%.$.$.$.$.$.%.$.$.*.$.&.#.$.%.#...|           ",
"          $.e.m.+.%.%.@.%.$.$.] ] $.$.$.$.$.$.$.$.$.$.$.$.$.$.$.#.%.%.$.$.#.$.$.$.$.%.$.$.$.$.$.$.$.$.$.%.%.#.+.} S C           ",
"          %.=.=.,.a.8.-.$.$.$.$.$.$.$.$.$.$.$.$.$.%.$.@.$.$.$.$.$.%.$.$.%.%.$.$.$.$.$.$.$.$.$.$.$.$.$.$.-.O.W D A C B           ",
"          =.&.$.*.r.1.1.6.>.@.%.%.$.$.%.$.$.$.$.$.$.$.$.$.$.$.$.$.$.$.%.$.$.$.$.$.$.$.$.$.$.$.%.$.$.>.;.O.} A B B V V           ",
"          U ) &.%.$.@.w.N.v.;.@.$.$.$.$.$.$.$.$.$.$.$.$.%.$.$.$.%.$.$.$.$.$.$.$.$.$.$.$.%.$.$.$.%.-.o.o.E A C B V V C           ",
"          4 J $.$.%.%.$.2.C.z.-.%.%.#.$.$.$.$.$.%.$.$.$.$.$.$.$.$.$.$.$.#.$.$.$.$.$.] ] $.$.%.@.X.O.T Z B C B C V B N           ",
"          4 e G *.%.*.$.2.C.,.t.m.+.-.@.%.$.$.$.$.$.$.$.$.%.] [ ` $.%.#.$.$.$.] ' $.$.$.$.$.+.| D A C B C B C B C f 6           ",
"          4 4 y l l ~ =.3.5.2.5.,.,.y.;.%.$.$.%.$.$.$.$.$.$.$.] ] $.$.$.$.$.$.$.$.$.$.%.O.Q R S V B V V V Z B a m N v           ",
"          4 4 4 4 4 F L U @.L ~ %.&.t.n.9.2.-.@.$.$.%.$.$.$.$.$.%.$.$.$.$.$.$.$.$.%.-.-.} S B B V V V Z m f s = w f f           ",
"          4 4 4 4 4 4 4 j Y k I =.$.%.i.C.N.z.-.%.$.$.$.$.$.$.$.$.$.$.%.$.$.$.%.@.X.O.} S V V V V Z V M w & & = * & &           ",
"          4 4 4 4 4 4 4 4 y Y @.$.%.$.&.%.2.V.z.O.$.%.$.$.$.$.$.$.$.$.$.$.$.$.-.O.R A V V V V V B B N q * & & = * * *           ",
"          4 e 4 4 4 4 4 4 4 p p K *.*.$.$.=.=.=.y.b.>.$.[ { %.$.$.$.$.$.$.>.| R S Z V B V V V Z v 8 8 = & = & & * * *           ",
"          4 4 4 4 4 4 4 4 4 4 4 p G G _ =.$.$.%.3.7.1.e.=.$.$.%.$.$.-.-.Q | R Z B V V Z M a a a 8 & & & & & = & & * *           ",
"          4 4 4 4 4 4 4 4 4 4 4 4 4 4 G _ =.=.%.$.$.&.i.b.:.%.%.$.%.O. .S S Z V V V V M s = & & & = & * & = * * * * *           ",
"          4 4 4 4 4 4 4 4 4 4 4 4 4 4 4 G _ _ @.%.&.$.&.p.9.k.k.X.O. .S V V V V Z V N a & & & = & * * * & = * * * * *           ",
"          4 4 4 4 4 e 4 4 4 4 4 4 4 4 4 r t j ^ *.$.$.$.%.=.7.9.R C Z C C V V V B B w = & & & * * * * * * * * * & * *           ",
"          4 4 3 4 4 4 4 4 4 4 4 4 4 4 4 4 4 4 k k I _ n ~ %.=.=.Z B B V V C C m 0 0 ; & & = = & * * * * * & * * * * =           ",
"          4 e 4 4 4 4 4 4 4 4 4 4 4 4 4 4 4 4 4 4 p F e ! q.=...Z V V C V f d w * & * * * & = & * * * * & & * * * * &           ",
"          4 3 4 4 4 4 4 4 4 e 4 4 4 4 4 4 4 4 4 4 4 e j I ! / @.Z C C B v 6 & * * * * * * * & = * * * 7 6 & * * * * *           ",
"          3 3 4 3 3 4 4 4 4 4 4 4 4 4 4 4 4 4 4 4 4 i Y j 4 l _ Z B B v : * * * * * * * * * * * * * * x a & * & % * *           ",
"          3 3 3 4 4 3 4 3 4 4 4 4 4 4 4 4 4 4 4 4 4 r p 4 4 r j N a 6 6 * * * * * * * * * * * * * * * 6 5 * & & * % *           ",
"          3 3 3 3 4 3 4 e 3 4 4 4 4 4 4 4 4 4 4 4 4 4 4 4 4 4 2 w : 9 a = * * * * * * * * * & * * & * & & & & & % % %           ",
"          3 3 3 3 3 3 3 3 4 3 3 4 4 4 4 4 4 4 4 4 4 4 4 4 4 4 4 = & w d = * * * * * * * * & * * * * * & & & & & * % *           ",
"          2 < 3 3 3 3 3 3 3 3 3 4 4 4 4 4 4 4 4 4 4 4 4 4 4 4 4 = * * * * * * * * * * * * & * & * * * % % % % % % % %           ",
"          2 2 2 2 3 3 3 3 3 e 3 4 4 4 4 4 4 4 4 4 4 4 4 r 4 4 2 = & & * * * * * * * * * * * & * * % * * * * % % % % %           ",
"          2 1 2 2 2 2 3 3 3 3 3 4 4 4 4 4 4 4 4 4 4 4 4 4 4 4 4 = * * * * * * * * * * * & % * * % % & % % % % % % % %           ",
"          1 1 1 1 2 2 2 3 3 3 < 4 4 4 4 4 4 4 4 4 4 4 4 4 4 4 4 = * * * * * * * * * * % * * % % % * % % % % $ % $ # #           ",
"          1 : 1 1 1 2 2 2 2 3 3 3 3 e 3 4 4 4 4 4 4 3 4 4 4 4 2 = & * * & & * * * % * * % * & & % * % % % $ $ $ $ $ #           ",
"          - - : 1 1 1 2 2 2 2 2 2 3 2 3 4 4 3 < 4 4 4 e 4 4 4 3 - & * * & ; * * * * % * * % % % % % % $ $ $ $ # # # #           ",
"          - - - : : : 2 : 2 2 3 2 2 2 3 3 < 3 4 4 3 3 4 4 4 4 3 = * * & ; x w & % & % % % % % % % % $ $ $ $ # # + + +           ",
"          % = = - - : : 1 1 : 2 2 2 2 3 2 3 3 3 3 3 4 4 4 4 4 3 * & * & & q 6 * & % & % % % % % $ $ $ $ # # # + + O O           ",
"            % = = = - - > 1 1 1 2 2 2 2 2 2 3 3 3 3 3 < 2 3 4 3 = * * * & % % * % % % % % % $ $ $ $ # # # @ + O o o             ",
"                % * = - - - > 1 1 1 1 2 2 2 2 3 3 3 e u r 3 4 2 * % * % & & % % % % % % % $ $ $ $ # # # # O O X X               ",
"                  % % * = - - : > 1 1 1 2 2 2 2 3 1 u T g 2 3 2 = * * * & % % % % % $ $ $ $ $ # # # @ + O o X                   ",
"                      % & = = - - > > 1 1 1 2 2 3 2 e g e 3 3 2 * % % * % % % % $ $ $ $ $ # # # @ @ O o o                       ",
"                          * * = = - - : 1 1 1 1 2 2 2 1 3 3 3 3 * % * % % % % $ $ $ $ $ $ # @ @ O O O                           ",
"                            % * * * - - - : > 1 1 2 1 2 2 3 3 1 * * % % % $ % $ $ $ # # @ @ O o O X                             ",
"                                  * = - = - 1 1 1 1 1 2 1 2 3 2 * % % $ $ $ $ $ # $ # + O O o X .                               ",
"                                    % * = = - > : : 1 1 1 2 2 1 % $ % $ $ $ # # # # + O O o                                     ",
"                                        & * = = - : : 1 1 1 1 1 % $ $ $ # # # @ + O o o                                         ",
"                                          % * * = = - 1 : 1 1 1 % $ $ # # @ + + O O o                                           ",
"                                              % * * = - : : 1 : $ # # # + + O o o                                               ",
"                                                $ % * = = - : : % # @ + O O X X                                                 ",
"                                                      % * = = - # + O O X                                                       ",
"                                                          * * * @ O o                                                           ",
"                                                            % % o X                                                             ",
"                                                                .                                                               "
};
