/* XPM */
static char *eae971092d8342d3f025d11141970e6bSKeQFWWwwtmst7Nl[] = {
/* columns rows colors chars-per-pixel */
"64 64 146 2 ",
"   c None",
".  c gray11",
"X  c gray14",
"o  c #2E2E2D",
"O  c #302F2F",
"+  c #30302F",
"@  c #343434",
"#  c #383837",
"$  c #3C3C3B",
"%  c #403F3F",
"&  c #40403F",
"*  c #444443",
"=  c #484847",
"-  c #4C4C4B",
";  c #504F4F",
":  c #50504F",
">  c #545454",
",  c #585757",
"<  c #585857",
"1  c #5C5C5B",
"2  c #605F5F",
"3  c #60605F",
"4  c #646463",
"5  c #686867",
"6  c #676768",
"7  c #6A6A69",
"8  c #6B6B69",
"9  c #6A6A68",
"0  c #6A6A6A",
"q  c #6B6B6A",
"w  c gray42",
"e  c #696969",
"r  c #6C6C6B",
"t  c #6D6D6B",
"y  c #6C6C6C",
"u  c #6D6D6C",
"i  c #6D6D6D",
"p  c #6E6E6C",
"a  c #6E6E6D",
"s  c gray43",
"d  c #6F6F6E",
"f  c #6F6F6F",
"g  c #6C6C6B",
"h  c #70706E",
"j  c #70706F",
"k  c #70706F",
"l  c gray44",
"z  c #717070",
"x  c #717170",
"c  c #717171",
"v  c #727271",
"b  c #727272",
"n  c #737372",
"m  c gray45",
"M  c #747372",
"N  c #747472",
"B  c #747474",
"V  c #757474",
"C  c #757574",
"Z  c gray46",
"A  c #767675",
"S  c #777775",
"D  c #767676",
"F  c #777776",
"G  c #777777",
"H  c #737373",
"J  c #787877",
"K  c gray47",
"L  c #797878",
"P  c #797978",
"I  c #797979",
"U  c #7A7A78",
"Y  c #7A7A79",
"T  c gray48",
"R  c #7B7B7A",
"E  c #7B7B7B",
"W  c #7B7C7B",
"Q  c #7C7C7B",
"!  c #7C7C7C",
"~  c #7D7D7C",
"^  c gray49",
"/  c #7E7D7D",
"(  c #7E7E7D",
")  c #7E7E7E",
"_  c #7F7F7E",
"`  c #7E7E7F",
"'  c gray50",
"]  c #7B7B7B",
"[  c #807F7F",
"{  c #80807F",
"}  c #81817F",
"|  c #808080",
" . c #818180",
".. c #818181",
"X. c gray51",
"o. c #838382",
"O. c #838383",
"+. c #848483",
"@. c #848484",
"#. c #858584",
"$. c gray52",
"%. c #868685",
"&. c #868686",
"*. c #878786",
"=. c gray53",
"-. c #838383",
";. c #888887",
":. c #888887",
">. c #878788",
",. c #888888",
"<. c #898988",
"1. c #898989",
"2. c gray54",
"3. c #8B8B8A",
"4. c #8B8B8B",
"5. c #8C8C8B",
"6. c gray55",
"7. c #8D8D8C",
"8. c #8D8D8D",
"9. c #8E8E8C",
"0. c #8E8E8D",
"q. c #8E8E8E",
"w. c #8E8F8E",
"e. c #8F8F8E",
"r. c gray56",
"t. c #8B8B8B",
"y. c #90908F",
"u. c #90908F",
"i. c #909090",
"p. c gray57",
"a. c #929292",
"s. c #939393",
"d. c gray58",
"f. c #959595",
"g. c #969695",
"h. c gray59",
"j. c #979797",
"k. c #939393",
"l. c #999998",
"z. c gray60",
"x. c #9A9A99",
"c. c #9D9D9D",
"v. c #9B9B9B",
"b. c #A7A7A7",
"n. c #A2A2A2",
"m. c #AAAAAA",
/* pixels */
"                                                                                                                                ",
"                                                              ^ '                                                               ",
"                                                            ' ' ..'                                                             ",
"                                                          %.-.%.%.....                                                          ",
"                                                      ' 2.8.8.2.%.......^                                                       ",
"                                                ..5 , ..i 5 m i.x.^ K O..., 6 ..                                                ",
"                                                l , * 6 c b T 2.%.1.1...4 - , < > W                                             ",
"                                              4 < * @ > 8 c B ..T D B 6 > , - = - 4 B                                           ",
"                                        b 8 : $ = $ @ < < - 2 -...> # * , 4 , - * $ 4 b                                         ",
"                                    ^ 4 * % 1 < - - = = < 2 i >.W 1 * $ = < 1 - + - : - < W                                     ",
"                                ~ ~ X.~ 5 : - - > > = * ; > w -.2...D 4 = - = # @ 1 l b D ' X.'                                 ",
"                              8.i.w.=.G f 5 : * ; 1 4 6 1 6 W -.^ T %.%.6 ; * = 3 3 ..s.s.w.=.W D                               ",
"                            ..i.x.w.W 5 i K 6 : * - 6 2...>.w.&.b w E 8.2.< - 4 &.6 W 8.i.i.i.W D ....                          ",
"                      b ^ 8.%...n 4 w D ..&...4 $ o $ K s.w.-.-.%.2.%.%.1.4 - 4 @.O.i 6 c B j.w.+...} T D                       ",
"                  ^ 6 * * D 8.2.T b W B 8.i.4 - = # + - > T i...%.-.s.8., 1 2 2 1 3 i ! K 5 t.8.4.' < , , 5 ^                   ",
"              ..T 4 < = * - - 4 G ' X.B 4 3 6 3 4 1 : = o - K r.%.6 l i @ - - # @ = 1 4 6 K 1.f 4 w > = - - - - l               ",
"            ..D , > , < ; # X # 3 E 6.b ; = < , < 1 < * @ # < ' c - * = * - * @ @ & > : > i i : * - - - : = o # < m             ",
"          ^ D , # 1 6 2 ; $ O # ; D j.! 6 > % @ # # @ + 1 1 > 3 > & @ $ > : - - : = : > , > 1 < = @ % - , - O + $ 1 ^           ",
"          T - = l > , , : 1 - 1 E 6.z.z.T 4 3 ; $ O o & &.4.` ` 5 2 1 < = , : - - : * - 6 -.j.>.> @ = # @ @ # w * = b           ",
"          T w i l # 4 3 , ` >...` ..b 6 6 y 6 1 * $ - b G Z -.c.8.K i 6 4 - * - < 4 4 B ..i 1.Z y K m - , < O 8 % : w.          ",
"          5 ^ f...% e 1 = %.i.f.>.K W f B T B f < 1 Z &.W b W i.X.w.t.' T i - = 6 ..8.i...m ..i l 8.%.y , - - E i l O.          ",
"          1 J f.s.- 8 1 * 5 ^ i.2.! h.d.2.` f i 2 3 i T 2.^ D W 4 s.b.d.&.` < = 3 W j.j.>.T -.G V ! 5 D , = ^ s.r.^ l           ",
"          8 1 8 O.- 4 T 6 $ b b m >.j.d.>.c : = * $ # 1 t.X.K ..< -.c.d.8.6 : - = * i i.2.4 E ` ! i # 1 b ^ i.2.E b w           ",
"          = - 4 D = * m x.8.^ - - ..&.c 6 4 > @ & ; = % 5 -.8.-.W f < : b 3 < = o X % & * 6 E - $ 3 V b ..s.4.> D E 1           ",
"          ' O.^ 4 * < i %.n.f...G f - 6 4 > 1 $ # $ * * - 4 B c 8 < * * = * & - : * $ ; > $ 6 4 , 8 8.T i 4 , - ^ r...          ",
"          f.c.8.1 8 O.w < t...%.t.` - > = = w - * = = = $ > 6 6 B c < * & @ @ - l 4 2 1 : = b O.c 3 K m 5 > * , ..i.>.          ",
"          8 %.%.i s.n.T , i , < K h...: @ = 0 < 1 1 ; * = 1 w i i.i.n < 4 - $ : i 1 B 1 = D >.q.c = < c D i 4 1 ^ ' i           ",
"          $ 1 T K E j.c.2.5 1 i T ..j.z.1.2 $ f 1 - - : ..` 6 4 B 6 W x.d.6 ; 1 l # 4 -.6.6.D b 5 < i 1.i.8.O.b i b b           ",
"          2.4 2 i.f.=.i.c.8.8 ..w.W X.j.n.1.4 B = = B K c ..i.2.=.W C B Z K = * B K >.i.4.G m m 1 = &.a.%.G D m < 8 2.          ",
"          m.:.k D i k ..d.c.< } w.i K 1.8...f ..3 4 B > 6 @.a.a.g.' n 6 * = - 2 1.j.-...` l > 1 5 l a.h.[ 4 - < 8 ..f.          ",
"          y.v.:.< 1 ^ N i 2.- T d.B b 6 f c 4 X.6.@.y * < Z &.&.+.G 6 > o @ 4 W E W m l l 6 > - 4 4.>.m G b > = T p.>.          ",
"          5 2.} , i.b.D > 8 - T c.i.6 - 3 c 1 c q.q.E K = < D c 1 n 1 @ $ 2 ` B - > 4 l l 2 .., - l 6 = e f.%.= D $.8           ",
"          3 J i = m j.n.^ & * 5 ' E B 4.E , = 1 5 i ' x.j.5 # @ o < ' G & % : 4 w 5 * 4 1.i i : > 5 = B i.4.4 # c E >           ",
"          = 1 < * i ..j.c.T : : 5 T E ..3 , ..2.T 6 b n.m.i.W G 1 4 X.X.* < = < ^ - 4 -.2.c 2 - * > B W W E i @ - : #           ",
"          # 4 4 * i T %.x.n.5 5 6 1 G i = 1 m.b.d.-.T b D %.8.%.} w f f & n t h -.& T i.^ c - * - i d.W 6 4 > @ # - 3           ",
"          # T 2.2 E b b -.f.G g.1.< 5 < = 1 n.n.n.n.8.= * 8 G 5 X.3 2 f < =.g.s...- c W 8 1 > & 4 f.-.8 < * O * * 4 f.          ",
"          # b n.v.c.2 1 D D 8 8.n.2.* * = < W x.c.n.i.5 1 ' i.W b > w w.t.s.s.X.c 6 > 1 3 $ ` < < -., $ $ % $ K , 1 r.          ",
"          # 4 ^ -.c.l , > = : < i ^ i %.i = 1 ^ ......2.w - 2 s.t * - 9 n G G C i - * i O.4 G - # > $ & 5 W 4 6 5 8 D           ",
"          @ < D T -.c 6 i f * # - 5 i 2.5 : ..8.4 < T %.D w ..c.n w < - X.n < = = - i B c c 3 & - c 6 B W W i 8 : - ,           ",
"          < c D 6 K i l -.t., < 1 : : 5 > 1 b.b.B 8 ..4 n 2.c.c.' =.f < n W 4 : , 3 W c : , 4 > 4 1.i.8.K w 8 , $ * ,           ",
"          f.x.D : =.5 3 N G G 8.W * % < ; < j.c.c.n.s.> 5 n ' g.w.n n c - -.j.d.1.6 4 < = * ` E w b -.i 5 f w * = 2 w           ",
"          5 =.J - i.1 * 1 G G ^ 8 - i r.i = 1 G W t.n.s.4 > 4 T n : % , 1.s.j.1.c < * $ > ..Z c i i i > 1 T 2.>.1 , w           ",
"          8 T 5 - i.2.b 5 h T ^ 4 - V ..%.b * = 2 G X.T , * = : * 6 2 = K W W K 8 = # # : G b i c 6 - $ 4 %.K G < = ;           ",
"          : > , 2 -.8...W X.2 8 4 = m G %..., * * < k n = < n w < -.f = 6 c c 4 > 5 1 = = w l l 3 > 4 < 8 T 6 8 > # @           ",
"          - * - 4 5 i B ^ 8.- , 3 , b T G G D 4 < , 1 w % n n.s.=.1.4 & i 5 c 4 > O.W , * i i b 1 - ..W i 6 6 1 , = #           ",
"          4.5 * * > 5 b B D i , 1 T G D G B G s.n.^ * # @ 8 w.N w.n = $ 4 = i i.-.c b < - 6 i ' T 4 8 6 6 6 3 * 5 b 4           ",
"          i - > ..%.N i b f 8 ^ %.E r.T b D E j.n.c.' # # - 5 G ' 5 * o * : 6 K B c c l 5 4 ..W w 4 5 < > > , l 8 2 1           ",
"          1 % * T T ' :.D - > b ' G O.2.w - > 4 W 2...4 n < - 4 5 * : f c 4 w c c b - 4 ..i K c 1 : 2 > 3 4 = 6 3 , <           ",
"            # * 5 4 T %.T , = 2 b B D >.i = * % < i D G =.2 : 8 : - i 2.-.6 1 5 i 2 > 6 W l i i 1 > 8 < 6 6 * > , >             ",
"                2 3 6 6 b %.> 1 8 6 b D K b 1 = = 2 D D i : 1 y.* i ..i i > ; < 4 = B ' i i 4 1 4 b T 6 1 > $ ; >               ",
"                  1 1 4 5 6 3 1 - * w b B b 6 i 4 8 W G B > 2 i.% 1 c c K * 5 ..5 2 6 i w 4 * # , G 4 1 1 ; #                   ",
"                      1 1 4 1 b T T O., 1 i 1 b n %.x.i.> @ : G $ 1 3 = = i K m 6 , 4 : ; B : @ * 5 1 < <                       ",
"                          1 - 5 K ' 2., = 1 4 1 i ..8.=.c - - w # * * * 3 W B w 5 = : , 5 E 2 $ & < 1                           ",
"                            $ > 3 6 G 5 = - G , 2 i c n 8.w 1 T : - * - ..c 8 3 > * : 6 E m 4 $ # <                             ",
"                                  1 4 6 - - O.i 4 4 i b n 2 6 s.( =.4 * 4 5 6 , # - c c 1 < , @ .                               ",
"                                    1 3 = * l ..=.n 2 i c i f W =.n : # = 1 K E 6 < c w , >                                     ",
"                                        @ # 4 l G i 4 3 ; > 4 b t 9 : % w G n u 5 - 1 4                                         ",
"                                          @ 2 4 4 4 4 : 1 - * > 1 < > 2 C G 5 1 < * ;                                           ",
"                                              2 1 4 1 - K 3 $ = 4 * < G 3 3 1 < ,                                               ",
"                                                < 1 , * 2 6 l ..5 * - 4 1 < > :                                                 ",
"                                                      * < 4 w m T = * 1 <                                                       ",
"                                                          2 2 4 8 $ O                                                           ",
"                                                            1 1 > @                                                             ",
"                                                                ;                                                               "
};
