/* XPM */
static char *_532fdd0da1d43a9d3fed5d167558b26eD3FLg9Kr62mrdKR[] = {
/* columns rows colors chars-per-pixel */
"64 64 188 2 ",
"   c None",
".  c #020203",
"X  c #060608",
"o  c #0A050A",
"O  c #06090A",
"+  c #0B0C0C",
"@  c #100F0F",
"#  c #0F100F",
"$  c #0D0E10",
"%  c #100610",
"&  c #130C13",
"*  c #1B0D1B",
"=  c #0E1313",
"-  c #0F1817",
";  c #0F1719",
":  c #0F1818",
">  c #131314",
",  c #181517",
"<  c #181917",
"1  c #15141B",
"2  c #1B141B",
"3  c #131C1C",
"4  c #1C1B1C",
"5  c #210F1F",
"6  c #20161F",
"7  c #201E1D",
"8  c #15201E",
"9  c #1E201E",
"0  c #20211F",
"q  c #1E1721",
"w  c #141E21",
"e  c #1A1C22",
"r  c #250E23",
"t  c #241424",
"y  c #281626",
"u  c #231B23",
"i  c #281927",
"p  c #2B152A",
"a  c #241B28",
"s  c #2C1B2C",
"d  c #31182F",
"f  c #2E1D31",
"g  c #361735",
"h  c #391736",
"j  c #341B34",
"k  c #381A36",
"l  c #371E39",
"z  c #3C1F3C",
"x  c #162221",
"c  c #1A2525",
"v  c #1A2827",
"b  c #1B2729",
"n  c #1D2B2B",
"m  c #242323",
"M  c #282527",
"N  c #24232A",
"B  c #2B232C",
"V  c #232B2D",
"C  c #2A292B",
"Z  c #30242F",
"A  c #22302F",
"S  c #2B312F",
"D  c #2C2332",
"F  c #2C2C34",
"G  c #2F2C39",
"H  c #332334",
"J  c #382236",
"K  c #302E33",
"L  c #342439",
"P  c #3B233B",
"I  c #342C3B",
"U  c #3A2A3F",
"Y  c #243433",
"T  c #2B3535",
"R  c #253937",
"E  c #2C3A37",
"W  c #2D333A",
"Q  c #263B39",
"!  c #2A3C3C",
"~  c #32343E",
"^  c #343C3E",
"/  c #41213F",
"(  c #2A403E",
")  c #33403E",
"_  c #3E2641",
"`  c #362F40",
"'  c #3D2D43",
"]  c #2E3E41",
"[  c #363442",
"{  c #3C3345",
"}  c #343C44",
"|  c #393846",
" . c #3E3648",
".. c #3D3C4B",
"X. c #441F42",
"o. c #442343",
"O. c #482547",
"+. c #422A45",
"@. c #492748",
"#. c #462C49",
"$. c #4A2C4C",
"%. c #403047",
"&. c #45344B",
"*. c #4A314E",
"=. c #423B4C",
"-. c #4A3551",
";. c #463A50",
":. c #493A52",
">. c #2D4442",
",. c #2E4845",
"<. c #324445",
"1. c #3B4447",
"2. c #304947",
"3. c #36454A",
"4. c #3D434D",
"5. c #344D4C",
"6. c #394B4E",
"7. c #35514F",
"8. c #38514E",
"9. c #3E4650",
"0. c #3E4C52",
"q. c #365451",
"w. c #3B5554",
"e. c #3B5956",
"r. c #3E5D5A",
"t. c #3E5C5A",
"y. c #3E5E5A",
"u. c #3E5E5B",
"i. c #3F5E5B",
"p. c #3E5F5B",
"a. c #3F5F5B",
"s. c #3D5C59",
"d. c #3F5F5C",
"f. c #3E5C59",
"g. c #3E605B",
"h. c #3F615D",
"j. c #3F615D",
"k. c #41404D",
"l. c #444152",
"z. c #4B4056",
"x. c #4B4257",
"c. c #4A4457",
"v. c #404A53",
"b. c #434D55",
"n. c #494558",
"m. c #474D59",
"M. c #484D5A",
"N. c #4A4C5B",
"B. c #405357",
"V. c #46575E",
"C. c #44565B",
"Z. c #4B525F",
"A. c #49545E",
"S. c #435C5C",
"D. c #40605D",
"F. c #41625F",
"G. c #41615E",
"H. c #4A5660",
"J. c #465F61",
"K. c #4A5E64",
"L. c #4A5C63",
"P. c #426460",
"I. c #456563",
"U. c #446663",
"Y. c #476766",
"T. c #456462",
"R. c #486465",
"E. c #496365",
"W. c #456966",
"Q. c #466A66",
"!. c #486867",
"~. c #496967",
"^. c #4A6769",
"/. c #476B68",
"(. c #476C68",
"). c #486B68",
"_. c #4A6869",
"`. c #486C68",
"'. c #496D6A",
"]. c #496E6A",
"[. c #4A6E6B",
"{. c #4B6F6C",
"}. c #496D6A",
"|. c #4B706D",
" X c #4D726F",
".X c #4B716D",
"XX c #4D7570",
"oX c #4D7671",
/* pixels */
"                                                                                                                                ",
"                                                              w.o.                                                              ",
"                                                            u.w...0.                                                            ",
"                                                          u.u.u.u.u.u.                                                          ",
"                                                      P B.u.u.f.f.u.f.u.u.                                                      ",
"                                                u.u.B.w.f.u.s.u.S.f.u.f.u.u.u.u.                                                ",
"                                                u.u.f.u.u.u.f.s.u.u.u.w.=.w.u.u.f.u.                                            ",
"                                              u.f.u.u.f.f.u.S.u.u.s.S.w. .w.u.u.s.v.{                                           ",
"                                        u.u.u.s.u.s.u.s.u.s.s.S.s.u.f.u.s.u.s.u.w.+._ {                                         ",
"                                    u.u.u.f.s.u.s.u.s.s.s.u.s.s.u.s.u.s.u.s.S.s.u.w.w.s.s.u.                                    ",
"                                 .s.u.s.u.f.u.s.u.u.s.S.u.s.s.u.s.u.s.u.s.u.s.u.u.u.D.4...s.s.u.                                ",
"                              _  .u.s.u.f.u.s.S.u.s.u.s.u.u.u.u.S.u.f.s.u.s.u.s.s.u.g.v.k.s.u.s.u.                              ",
"                            u.....S.u.s.s.u.g.s.s.S.s.s.u.s.u.s.s.u.s.S.s.u.s.u.u.s.s.u.u.s.s.u.u.u.u.                          ",
"                      s.u.u.u.u.s.s.s.u.s.s.s.s.u.s.s.u.s.u.s.u.u.s.u.s.u.s.S.s.s.u.u.s.s.u.u.s.u.f.u.u.S.                      ",
"                  u.S.s.u.s.u.u.s.u.u.u.k. .S.s.s.u.u.s.s.s.u.s.s.u.s.u.s.u.s.u.S.u.s.u.u.s.u.u.s.u.f.u...' f.                  ",
"              f.u.u.s.u.s.u.u.s.u.s.u.u..._ s.s.u.u.s.u.S.s.u.u.u.s.u.s.u.s.u.s.g.s.u.s.s.S.s.u.u.s.u.u.v.0.f.u.u.              ",
"            0.g.t.t.t.t.h.u.s.u.u.s.s.u.4.4.s.u.u.s.u.s.u.s.u.s.u.s.u.s.u.u.u.w.k.s.u.s.u.f.f.0.0.S.s.u.u.u.u.u.s.u.            ",
"          +.v.h.f.f.t.t.u.u.u.f.u.f.S.s.u.u.u.s.s.u.s.u.s.u.s.u.s.u.s.u.s.u.g.4. .w.u.u.u.s.u.....f.u.s.s.u.s.u.s.w.w.          ",
"          E.!.U.f.f.s.u.u.s.f.s.s.u.f.u.s.u.s.u.S.s.u.s.u.S.s.s.S.s.u.s.u.s.s.S.s.f.s.s.s.f.u.s.s.u.s.u.u.f.u.u.w.| j           ",
"          :.:.-.' 4 D 9.u.u.u.u.u.s.u.s.u.s.S.s.s.u.s.u.u.s.s.u.u.s.u.s.s.S.u.s.u.u.S.s.u.u.u.u.s.s.u.s.u.s.q.q.5.F 6           ",
"          J J P s X I V.F.u.u.s.S.s.s.u.s.u.s.u.u.s.u.s.u.s.u.s.s.s.u.s.s.u.s.u.s.u.u.u.t.h.t.u.s.S.u.u.s.q.7.| F e <           ",
"          < m M e O 5.XX`.G.s.u.s.u.u.s.u.s.u.s.s.u.s.u.s.S.s.u.u.u.s.u.u.s.u.s.u.s.v.w.t.t.t.G.u.s.e.s.5.3.} f u < <           ",
"          O > 4 4 O >.Q.!.`.G.S.u.s.s.u.s.s.s.u.S.s.u.s.u.s.u.s.s.s.u.s.s.u.s.u.s.s.%.4.t.t.w.w.w.s.7.7.[ g j 4 > < <           ",
"          S.v + < X O s z.`.`.!.F.u.u.s.u.S.s.u.s.u.s.u.s.u.u.u.u.S.s.u.u.s.S.s.u.S.w.s.t.f.' 2 c 7.7.I k s 2 > X x 2.          ",
"           Xe.2.<.X . 5 $.x.^.Z.M.`.Q.G.u.G.u.u.f.u.s.u.u.u.u.u.u.s.u.s.u.s.S.s.u.f.u.u.f.7.a X 8 5.~ s u & + R R ( q.          ",
"          }.}.XXU.Y n a p J 6.&.*.A.K.m.} W 4.s.u.u.f.s.g.0.4.4.s.u.s.u.s.u.s.u.u.u.u.f.w.<.= . 1 ~ t & + X X >.w.5.|           ",
"          }.}.}.`. X X>.= > 0 H / +.=.+.* $ %.w.s.u.u.u.f..._ ' w.g.u.s.u.s.u.s.u.e.e.q.} F > . & j o o . . - >.5.[ g           ",
"          _._.^.`.`.`.`.5.+ < 4 9 M M 4 o w Y.h.u.u.f.s.S.s.s.s.S.s.s.u.s.u.s.u.e.q.q.| f 4 > X & p o y 2 3 5.5.I k j           ",
"          :.-.N. X`.`. XT.| _ * O 0 m 4 O w /./.!.F.S.u.u.s.u.u.u.u.u.f.D.D.e.8.w.7.[ J j < + . 1 <.] L 5 3 5.U s 2 <           ",
"          5 t F 3.n.E. X_.n.L o 3 ( > > X x `. X.X`.U.U.S.u.u.u.f.u.0.| v v ( q.5.[ s t 2 o n n Q e.q.F , > c 2 & O X           ",
"          . . > m J 4.S.Z.;.4 . V P.n V = 1 V.V.V.H.K.).P.w.v.0.f.t.k.p . = Y <.! s 4 = + 3 2.e.5.} ] c > + . X . X %           ",
"          + + = < < m H @.P 2 X n `./.`.R * J B J o.&.E.!.l./ _ w.h.} t X Q U p > > @ O 3 5.q.5.| d u < # . . O X & j           ",
"          D.G.! . X > u C B 4 X n `.`.`.Q.<.o > 6 0 Z #.&.:.:.#.0.q.! > . X t y > . . x 2.7.5.[ l s 2 > + . X Q ] B 4           ",
"          ^ G.A.y X . O > 4 4 O n .X X.X XU.5.5.8 # 0 Z O.U K Z I I B > . . X e Y + . c e.7.[ B u * + X 3 R R 7.[ s <           ",
"          7 ! 1.J X . . . + # . e M.M.E.]. X X.X~ t B , d C m M j p u # . 3 x Y ] > . c 5.T a & O X . - ! w.| E N 2 +           ",
"          > 4 m 4 . . O 3 - . . * @.+.v.J.J.E._.:.o.d . + < 4 m p q > + - >.q.3.I + . c ! < $ X X = = ( 5.! s < > X .           ",
"          O > < < . . V ~.s.- . q P B m H $.$.K.z.d # X X X # 3 > > + = 2.5.q.} p > X * s & X . 3 5.5.5.Y < < > O X X           ",
"          e.c . X . . a &.E 8.s.W o X < m H @.*.U 7 9 8.e.s.Q . X A >.>.q.q.[ f 4 > X . X X r o 8 q.5.Y < # . . n ( !           ",
"          .X7.Q Y . . % s M ) U.P.! Q 3 + 2 Z H C < c `. X XG.! A >.e.q.q.| D 2 > O . . O n q o > ~ b $ X . . c ,.5.[           ",
"          Q..X XP.n O . o < 7 ) w.S.K.V o . @ , 7 < V !..X]. X`.e.q.5.} ! s 2 > X . = 3 c } < . % * X . o & x 5.3.K p           ",
"          T.J.J.T.S.b # + . > e m C k.#.6 X + . + < V s.E.E.E.E.q.5.[ p < > + + + + Q q.} s > . . . O X * D >.3.L t <           ",
"          @.+.@.@.#.m.F.,.X . > 9 M M m o w e.= . O # + J $.#.&.5.A q < > . . 3 ,.,.7.E 4 < & X . + ( L * + + s a < >           ",
"          o.J B Z X.*.A.h.[ j 2 X + 4 4 o w W.q.7.A . . 2 s J @.U 2 + X . . 8 >.q.q.R 4 @ X . x R Q 7.V 2 X . p 2 + o           ",
"          o.d 4 m H J { n.-.L o . . + + X 1 b.0.!.s.v . . + 4 j * o . . . . Y 7.R S > X . . 3 >.6.} T 9 > o X & @ o *           ",
"          &.a $ 7 m 0 B P J 2 X O 3 : X . & o.s 1.D.8.8 : + X > . + = o . . v S > O . X = - ! 3.~ y 2 4 > + . > = 2 p           ",
"          S.n + 4 4 0 m m m < X v Y.G.w X & P 2 9 m S G.W.V . O O Y [ y . . X O # X . c 7.<.L j y < < > > O O Q ~ N >           ",
"          f.e.} j + > 4 m m 4 X n J.;.0.s.] o X > 9 M S S ^ %.P ] ` s > . . . . X y o c 3.J j t < < > X x ( W D f u >           ",
"          [  .{ g X X + $ 4 < X e ;.O.-.K.h.>.>.3 + # 9 m F U $.` B 2 = . . 3 A V 2 X c >.u u < + + A n Q <.G p t & #           ",
"            h j s X . = 3 + > X * X.J k =.A.V.{.W o X @ > 4 M J p > O X . > ( 5.[ $ . e T > > + = x 2.] W F t t & O             ",
"                > . . A 2.- 4 O * P m m Z / / V.=.y . . . + 4 0 # . O + = ! 5.} p > . & p # & X < 2.] f p t $ o O               ",
"                  . . n w.q.e.x * P u 0 m m M B B 4 + . . . + < + . x 2.>.L j s < > . * y o t % : ] f p 2 > +                   ",
"                      s I ` e.5.5.3.+ > 7 0 m m m 4 + . Q w.R + Y R >.5.I j p < < O . e ! N * . : ! q & &                       ",
"                          l { | 0.e.Y - > 4 4 m m 9 # X w. Xg.Q 5.q.3.I t i < & + . 3 R <.D @ . ; D <                           ",
"                            g h { 4.0.: X # > 4 0 0 > X 3.V.V.V.7.>.F t < > $ + = - T ] W t @ . o y                             ",
"                                  k j , . . + 3 9 4 # . j @./ +.3.V < < > = X w <.] D p t > + X .                               ",
"                                    4 > X - 5.w.8 + @ . j J M M j i < $ . . c W f f p q > +                                     ",
"                                        . 3 e.G.2.] Y . 2 m 0 m d & & * . . n ! p 2 * &                                         ",
"                                          - 7.4.4.w.e.n + # 4 6 * 1 a y . . e D 2 > X                                           ",
"                                              k g ' 0.w.c < x > # Y G * . . & * #                                               ",
"                                                j j l P 6.w.! o Q D t = . . X o                                                 ",
"                                                      l U ..| s D i , + .                                                       ",
"                                                          D B s 6 & @                                                           ",
"                                                            < < @ +                                                             ",
"                                                                +                                                               "
};
